<?xml version="1.0" standalone="no"?>
<!DOCTYPE svg PUBLIC "-//W3C//DTD SVG 1.1//EN" "http://www.w3.org/Graphics/SVG/1.1/DTD/svg11.dtd" >
<svg xmlns="http://www.w3.org/2000/svg" xmlns:xlink="http://www.w3.org/1999/xlink" version="1.1">
<metadata>
Created by FontForge 20170910 at Wed Jul 10 13:17:40 2013
 By Jimmy Wärting
Copyright (c) 2013 by Neil Summerour. All rights reserved.
</metadata>
<defs>
<font id="LustScript" horiz-adv-x="606" >
  <font-face 
    font-family="Lust Script"
    font-weight="400"
    font-style="italic"
    font-stretch="normal"
    units-per-em="1000"
    panose-1="2 0 5 5 9 0 0 2 0 4"
    ascent="775"
    descent="-225"
    x-height="532"
    cap-height="811"
    bbox="-1148 -479 2231 1005"
    underline-thickness="24"
    underline-position="-136"
    slope="-9"
    stemh="14"
    stemv="183"
    unicode-range="U+0020-FB04"
  />
<missing-glyph horiz-adv-x="175" 
 />
    <glyph glyph-name="f_f" unicode="ff" horiz-adv-x="618" 
d="M76 525h52c23 139 46 256 193 256c86 0 130 -39 130 -95c0 -55 -39 -99 -107 -99c-50 0 -97 47 -73 99c30 -6 56 13 56 44c0 22 -11 39 -39 39c-43 0 -89 -46 -89 -100c0 -85 102 -104 93 -144h145c23 140 47 272 200 272c89 0 144 -45 144 -109
c0 -62 -43 -111 -120 -111c-57 0 -110 53 -83 112c34 -7 63 15 63 49c0 25 -9 47 -39 47c-44 0 -91 -47 -91 -101c0 -85 99 -117 90 -159h84l-2 -10h-68l-76 -482c-23 -144 -44 -266 -194 -266c-86 0 -130 39 -130 95c0 55 39 99 107 99c50 0 97 -47 73 -99
c-30 6 -56 -13 -56 -44c0 -22 11 -39 39 -39c43 0 89 46 89 100c0 89 -115 111 -103 184l72 452h-130l-79 -502c-19 -120 -84 -257 -210 -257c-86 0 -135 45 -135 108c0 74 58 105 113 105c52 0 102 -34 95 -102c-37 2 -58 -16 -58 -46c0 -22 13 -38 37 -38
c45 0 60 41 60 86c0 85 -88 105 -74 194l72 452h-53z" />
    <glyph glyph-name="f_i" unicode="fi" horiz-adv-x="589" 
d="M581 418l-34 -205c-12 -70 -36 -198 -2 -215l-3 -3c-72 -11 -210 -7 -184 154l47 289c11 67 50 77 -22 77h-77l-79 -502c-19 -120 -84 -257 -210 -257c-86 0 -135 45 -135 108c0 74 58 105 113 105c52 0 102 -34 95 -102c-37 2 -58 -16 -58 -46c0 -22 13 -38 37 -38
c45 0 60 41 60 86c0 85 -88 105 -74 194l72 452h-53l2 10h53c56 291 487 371 487 161c0 -55 -39 -99 -107 -99c-50 0 -97 47 -73 99c30 -6 56 13 56 44c0 126 -265 21 -265 -97c0 -85 76 -71 65 -108h72c52 0 93 3 146 3c56 0 84 -34 71 -110z" />
    <glyph glyph-name="f_f_i" unicode="ffi" horiz-adv-x="898" 
d="M76 525h52c23 139 46 256 193 256c86 0 130 -39 130 -95c0 -55 -39 -99 -107 -99c-50 0 -97 47 -73 99c30 -6 56 13 56 44c0 22 -11 39 -39 39c-43 0 -89 -46 -89 -100c0 -85 102 -104 93 -144h145c56 291 487 371 487 161c0 -55 -39 -99 -107 -99c-50 0 -97 47 -73 99
c30 -6 56 13 56 44c0 126 -265 21 -265 -97c0 -85 76 -71 65 -108h72c52 0 93 3 146 3c56 0 84 -34 71 -110l-34 -205c-12 -70 -36 -198 -2 -215l-3 -3c-72 -11 -210 -7 -184 154l47 289c11 67 50 77 -22 77h-77l-76 -482c-23 -144 -46 -266 -185 -266
c-86 0 -130 39 -130 95c0 55 39 99 107 99c50 0 97 -47 73 -99c-30 6 -56 -13 -56 -44c0 -22 11 -39 39 -39c43 0 80 46 80 100c0 89 -115 111 -103 184l72 452h-129l-79 -502c-19 -120 -84 -257 -210 -257c-86 0 -135 45 -135 108c0 74 58 105 113 105
c52 0 102 -34 95 -102c-37 2 -58 -16 -58 -46c0 -22 13 -38 37 -38c45 0 60 41 60 86c0 85 -88 105 -74 194l72 452h-53z" />
    <glyph glyph-name="f_j" unicode="fj" horiz-adv-x="589" 
d="M346 63l59 375c11 67 50 77 -22 77h-77l-79 -502c-19 -120 -84 -257 -210 -257c-86 0 -135 45 -135 108c0 74 58 105 113 105c52 0 102 -34 95 -102c-37 2 -58 -16 -58 -46c0 -22 13 -38 37 -38c45 0 60 41 60 86c0 85 -88 105 -74 194l72 452h-53l2 10h53
c56 291 487 371 487 161c0 -55 -39 -99 -107 -99c-50 0 -97 47 -73 99c30 -6 56 13 56 44c0 126 -265 21 -265 -97c0 -85 76 -71 65 -108h72c52 0 93 3 146 3c56 0 83 -34 71 -110l-60 -385c-22 -144 -46 -266 -185 -266c-86 0 -130 39 -130 95c0 55 39 99 107 99
c50 0 97 -47 73 -99c-30 6 -56 -13 -56 -44c0 -22 11 -39 39 -39c43 0 80 46 80 100c0 89 -114 111 -103 184z" />
    <glyph glyph-name="f_f_j" unicode="ffj" horiz-adv-x="898" 
d="M76 525h52c23 139 46 256 193 256c86 0 130 -39 130 -95c0 -55 -39 -99 -107 -99c-50 0 -97 47 -73 99c30 -6 56 13 56 44c0 22 -11 39 -39 39c-43 0 -89 -46 -89 -100c0 -85 102 -104 93 -144h146c55 291 487 371 487 161c0 -55 -39 -99 -107 -99c-50 0 -97 47 -73 99
c30 -6 56 13 56 44c0 126 -265 21 -265 -97c0 -85 76 -71 65 -108h72c52 0 93 3 146 3c56 0 83 -34 71 -110l-60 -385c-22 -144 -41 -266 -180 -266c-86 0 -128 39 -128 95c0 55 39 99 107 99c50 0 97 -47 73 -99c-30 6 -56 -13 -56 -44c0 -22 9 -39 37 -39
c43 0 75 46 75 100c0 89 -114 111 -103 184l59 375c11 67 50 77 -22 77h-77l-74 -474c-22 -144 -46 -266 -185 -266c-86 0 -130 39 -130 95c0 55 39 99 107 99c50 0 97 -47 73 -99c-30 6 -56 -13 -56 -44c0 -22 11 -39 39 -39c43 0 80 46 80 100c0 89 -114 111 -103 184
l70 444h-130l-79 -502c-19 -120 -84 -257 -210 -257c-86 0 -135 45 -135 108c0 74 58 105 113 105c52 0 102 -34 95 -102c-37 2 -58 -16 -58 -46c0 -22 13 -38 37 -38c45 0 60 41 60 86c0 85 -88 105 -74 194l72 452h-53z" />
    <glyph glyph-name="f_l" unicode="fl" horiz-adv-x="578" 
d="M613 686l-76 -473c-11 -70 -36 -198 -2 -215l-3 -3c-72 -11 -210 -7 -184 154l87 537c39 -10 62 16 62 44c0 27 -22 57 -71 57c-77 0 -199 -74 -199 -154c0 -85 76 -71 65 -108h69l-2 -10h-53l-79 -502c-19 -120 -84 -257 -210 -257c-86 0 -135 45 -135 108
c0 74 58 105 113 105c52 0 102 -34 95 -102c-37 2 -58 -16 -58 -46c0 -22 13 -38 37 -38c45 0 60 41 60 86c0 85 -88 105 -74 194l72 452h-53l2 10h53c34 179 211 279 340 279c81 0 157 -39 144 -118z" />
    <glyph glyph-name="f_f_l" unicode="ffl" horiz-adv-x="887" 
d="M76 525h52c23 139 46 256 193 256c86 0 130 -39 130 -95c0 -55 -39 -99 -107 -99c-50 0 -97 47 -73 99c30 -6 56 13 56 44c0 22 -11 39 -39 39c-43 0 -89 -46 -89 -100c0 -85 102 -104 93 -144h146c34 179 211 279 340 279c81 0 157 -39 144 -118l-76 -473
c-11 -70 -36 -198 -2 -215l-3 -3c-72 -11 -210 -7 -184 154l87 537c39 -10 62 16 62 44c0 27 -22 57 -71 57c-77 0 -199 -74 -199 -154c0 -85 76 -71 65 -108h69l-2 -10h-53l-77 -482c-23 -144 -46 -266 -185 -266c-86 0 -130 39 -130 95c0 55 39 99 107 99
c50 0 97 -47 73 -99c-30 6 -56 -13 -56 -44c0 -22 11 -39 39 -39c43 0 80 46 80 100c0 89 -114 111 -102 184l72 452h-130l-79 -502c-19 -120 -84 -257 -210 -257c-86 0 -135 45 -135 108c0 74 58 105 113 105c52 0 102 -34 95 -102c-37 2 -58 -16 -58 -46
c0 -22 13 -38 37 -38c45 0 60 41 60 86c0 85 -88 105 -74 194l72 452h-53z" />
    <glyph glyph-name="t_t" unicode="tt" horiz-adv-x="580" 
d="M617 744l-37 -219h70l-2 -10h-69l-50 -302c-14 -86 -24 -198 20 -215l-3 -3c-14 -2 -31 -4 -49 -4c-77 0 -175 28 -153 158l57 366h-112l-50 -302c-14 -86 -24 -198 20 -215l-3 -3c-14 -2 -31 -4 -49 -4c-77 0 -175 28 -153 158l57 366h-45l2 10c144 0 222 48 245 190h9
l-32 -190h70c169 0 225 77 248 219h9z" />
    <glyph glyph-name=".notdef" horiz-adv-x="175" 
 />
    <glyph glyph-name=".null" horiz-adv-x="287" 
d="M262 640v-10h-237v10h237zM262 560v-10h-237v10h237zM262 480v-10h-237v10h237zM262 400v-10h-237v10h237zM262 320v-10h-237v10h237zM262 240v-10h-237v10h237zM262 160v-10h-237v10h237zM262 80v-10h-237v10h237z" />
    <glyph glyph-name=".null" horiz-adv-x="287" 
d="M262 640v-10h-237v10h237zM262 560v-10h-237v10h237zM262 480v-10h-237v10h237zM262 400v-10h-237v10h237zM262 320v-10h-237v10h237zM262 240v-10h-237v10h237zM262 160v-10h-237v10h237zM262 80v-10h-237v10h237z" />
    <glyph glyph-name="nbspace" unicode="&#xa0;" horiz-adv-x="230" 
 />
    <glyph glyph-name="space" unicode=" " horiz-adv-x="230" 
 />
    <glyph glyph-name="A" unicode="A" horiz-adv-x="1119" 
d="M821 734l172 -556c37 -118 67 -171 136 -171l-1 -7h-415l1 7c92 0 94 77 70 162l-21 75h-154c-109 -203 -226 -334 -379 -334c-126 0 -230 69 -230 200c0 117 102 190 203 190c96 0 200 -57 200 -158c0 -67 -51 -123 -130 -123c-57 0 -106 46 -88 107c48 1 86 41 86 94
c0 52 -46 72 -83 72c-71 0 -147 -75 -147 -180c0 -113 74 -192 193 -192c256 0 416 423 587 814zM706 445c-31 -69 -61 -133 -92 -191h146z" />
    <glyph glyph-name="B" unicode="B" horiz-adv-x="860" 
d="M539 733c-23 43 10 78 46 78c27 0 55 -16 55 -54s-40 -56 -59 -62c17 3 35 6 53 6c111 0 225 -43 225 -137c0 -148 -181 -171 -301 -176l-1 -2c98 -2 293 -32 293 -199c0 -155 -189 -297 -505 -217l1 7c235 -48 295 155 295 259c0 72 -34 146 -134 146l1 8
c122 0 159 91 159 203c0 55 -27 98 -75 98c-40 0 -70 -33 -87 -141l-86 -550h-304l1 7c104 0 113 56 132 173l53 340c20 132 166 161 245 165v1c-125 0 -234 98 -358 98c-62 0 -106 -25 -106 -78c0 -47 35 -63 66 -63c27 0 55 13 76 40c117 -53 41 -200 -76 -200
c-74 0 -148 56 -148 144c0 93 77 166 185 166c127 0 248 -100 367 -100c22 0 32 13 32 25c0 16 -17 32 -45 15z" />
    <glyph glyph-name="C" unicode="C" horiz-adv-x="715" 
d="M536 751c-160 0 -285 -357 -285 -603c0 -99 30 -226 171 -226c120 0 247 92 247 251c0 102 -65 133 -120 133c-50 0 -88 -35 -88 -90c0 -44 30 -75 72 -76c7 -61 -50 -107 -107 -107c-71 0 -111 45 -111 102c0 109 130 179 234 179c90 0 159 -41 159 -141
c0 -141 -106 -263 -310 -263c-234 0 -348 160 -348 322c0 262 182 528 489 528c119 0 226 -51 226 -152c0 -78 -65 -128 -123 -128c-50 0 -105 41 -90 101c39 9 69 34 69 83c0 55 -37 87 -85 87z" />
    <glyph glyph-name="D" unicode="D" horiz-adv-x="912" 
d="M345 -30l1 7c315 -56 380 328 380 510c0 129 -33 203 -123 203c-56 0 -81 -29 -98 -140l-86 -550h-304l1 7c105 0 115 56 133 173l52 340c20 132 166 161 245 165v1c-125 0 -234 98 -358 98c-62 0 -106 -25 -106 -78c0 -47 35 -63 66 -63c27 0 55 13 76 40
c117 -53 41 -200 -76 -200c-74 0 -148 56 -148 144c0 93 77 166 185 166c127 0 248 -100 367 -100c22 0 32 13 32 25c0 16 -17 32 -45 15c-23 43 10 78 46 78c27 0 55 -16 55 -54s-40 -56 -59 -62c16 2 31 3 47 3c146 0 298 -85 298 -308c0 -204 -128 -539 -581 -420z" />
    <glyph glyph-name="E" unicode="E" horiz-adv-x="707" 
d="M477 710c-86 0 -136 -108 -136 -183c0 -72 46 -140 113 -140h27l-2 -8h-16c-141 0 -236 -161 -236 -300c0 -105 34 -198 163 -198c173 0 278 147 278 260c0 66 -41 124 -129 124c-50 0 -88 -35 -88 -90c0 -44 30 -75 72 -76c7 -61 -50 -107 -107 -107
c-71 0 -111 45 -111 102c0 109 130 179 234 179c115 0 168 -67 168 -145c0 -116 -117 -259 -350 -259c-219 0 -317 126 -317 253c0 132 116 255 367 257l1 2c-154 3 -242 70 -242 162c0 141 206 176 309 176c124 0 229 -51 229 -151c0 -79 -65 -129 -123 -129
c-50 0 -105 41 -90 101c36 8 69 32 69 83c0 52 -34 87 -83 87z" />
    <glyph glyph-name="F" unicode="F" horiz-adv-x="986" 
d="M464 180l52 340c20 132 166 161 245 165v1c-125 0 -234 98 -358 98c-62 0 -106 -25 -106 -78c0 -47 35 -63 66 -63c27 0 55 13 76 40c117 -53 41 -200 -76 -200c-74 0 -148 56 -148 144c0 93 77 166 185 166c127 0 248 -100 367 -100c22 0 32 13 32 25
c0 16 -17 32 -45 15c-23 43 10 78 46 78c27 0 55 -16 55 -54s-40 -56 -59 -62v-1c55 8 97 6 260 6l-38 -241h-9c22 147 0 232 -156 232c-100 0 -118 -42 -133 -141l-29 -189c107 0 197 50 220 157h7l-67 -323h-7c19 97 -47 159 -153 159l-24 -148
c-40 -255 -310 -296 -444 -296c-102 0 -223 68 -223 199c0 117 102 190 203 190c96 0 200 -57 200 -158c0 -67 -51 -123 -130 -123c-57 0 -106 46 -88 107c48 1 86 41 86 94c0 52 -46 72 -83 72c-71 0 -147 -75 -147 -180c0 -113 85 -191 187 -191c125 0 210 87 236 260z
" />
    <glyph glyph-name="G" unicode="G" horiz-adv-x="768" 
d="M576 -182c0 80 -88 103 -86 179c-32 -44 -95 -63 -161 -63c-185 0 -279 147 -279 319c0 256 209 507 497 507c123 0 229 -51 229 -152c0 -78 -65 -128 -123 -128c-50 0 -105 41 -90 101c39 9 69 33 69 83c0 55 -36 87 -85 87c-166 0 -289 -342 -289 -562
c0 -53 7 -239 109 -239c38 0 103 26 125 67l19 125c18 121 27 170 -68 170l1 7h359v-7c-66 0 -82 -38 -96 -129l-33 -221c-18 -120 -84 -257 -210 -257c-86 0 -135 45 -135 108c0 74 58 105 113 105c52 0 102 -34 95 -102c-37 2 -58 -16 -58 -46c0 -22 13 -38 37 -38
c45 0 60 41 60 86z" />
    <glyph glyph-name="H" unicode="H" horiz-adv-x="1190" 
d="M880 150l30 200h-221l-22 -144c-40 -255 -310 -296 -444 -296c-102 0 -223 68 -223 199c0 117 102 190 203 190c96 0 200 -57 200 -158c0 -67 -51 -123 -130 -123c-57 0 -106 46 -88 107c48 1 86 41 86 94c0 52 -46 72 -83 72c-71 0 -147 -75 -147 -180
c0 -113 85 -191 187 -191c125 0 210 87 236 260l52 341c20 132 166 160 245 164v1c-125 0 -234 98 -358 98c-62 0 -106 -25 -106 -78c0 -47 35 -63 66 -63c27 0 55 13 76 40c117 -53 41 -200 -76 -200c-74 0 -148 56 -148 144c0 93 77 166 185 166c127 0 248 -100 367 -100
c22 0 32 13 32 25c0 16 -17 32 -45 15c-23 43 10 78 46 78c25 0 54 -17 54 -49c0 -73 -105 -34 -133 -212l-30 -190h221l8 52c37 244 300 432 437 432c60 0 88 -34 88 -75c0 -65 -57 -101 -104 -101c-22 0 -42 11 -52 38c21 9 31 31 31 52c0 27 -17 53 -50 53
c-73 0 -107 -138 -118 -205l-68 -426c-19 -117 -28 -173 77 -173l-1 -7h-379l1 7c66 0 81 36 98 143z" />
    <glyph glyph-name="I" unicode="I" horiz-adv-x="554" 
d="M506 550l-63 -400c-17 -107 -1 -143 82 -143l-1 -7h-409l1 7c105 0 115 56 133 173l52 341c20 132 166 160 245 164v1c-125 0 -234 98 -358 98c-62 0 -106 -25 -106 -78c0 -47 35 -63 66 -63c27 0 55 13 76 40c117 -53 41 -200 -76 -200c-74 0 -148 56 -148 144
c0 93 77 166 185 166c127 0 248 -100 367 -100c22 0 32 13 32 25c0 16 -17 32 -45 15c-23 43 10 78 46 78c25 0 54 -17 54 -49c0 -73 -105 -34 -133 -212z" />
    <glyph glyph-name="J" unicode="J" horiz-adv-x="769" 
d="M721 550l-54 -344c-40 -255 -310 -296 -444 -296c-102 0 -223 68 -223 199c0 117 102 190 203 190c96 0 200 -57 200 -158c0 -67 -51 -123 -130 -123c-57 0 -106 46 -88 107c48 1 86 41 86 94c0 52 -46 72 -83 72c-71 0 -147 -75 -147 -180c0 -113 85 -191 187 -191
c125 0 210 87 236 260l52 341c20 132 166 160 245 164v1c-125 0 -234 98 -358 98c-62 0 -106 -25 -106 -78c0 -47 35 -63 66 -63c27 0 55 13 76 40c117 -53 41 -200 -76 -200c-74 0 -148 56 -148 144c0 93 77 166 185 166c127 0 248 -100 367 -100c22 0 32 13 32 25
c0 16 -17 32 -45 15c-23 43 10 78 46 78c25 0 54 -17 54 -49c0 -73 -105 -34 -133 -212z" />
    <glyph glyph-name="K" unicode="K" horiz-adv-x="1098" 
d="M721 550l-30 -187l102 98c95 94 233 232 115 232l1 7h284l-1 -7c-124 0 -284 -132 -394 -239l-79 -75c178 37 235 18 308 -196c42 -124 80 -228 137 -242l-3 -3c-174 -36 -308 38 -343 217c-21 107 -48 208 -102 221l-27 -26l-22 -144c-40 -255 -310 -296 -444 -296
c-102 0 -223 68 -223 199c0 117 102 190 203 190c96 0 200 -57 200 -158c0 -67 -51 -123 -130 -123c-57 0 -106 46 -88 107c48 1 86 41 86 94c0 52 -46 72 -83 72c-71 0 -147 -75 -147 -180c0 -113 85 -191 187 -191c125 0 210 87 236 260l52 341c20 132 166 160 245 164v1
c-125 0 -234 98 -358 98c-62 0 -106 -25 -106 -78c0 -47 35 -63 66 -63c27 0 55 13 76 40c117 -53 41 -200 -76 -200c-74 0 -148 56 -148 144c0 93 77 166 185 166c127 0 248 -100 367 -100c22 0 32 13 32 25c0 16 -17 32 -45 15c-23 43 10 78 46 78c25 0 54 -17 54 -49
c0 -73 -105 -34 -133 -212z" />
    <glyph glyph-name="L" unicode="L" horiz-adv-x="670" 
d="M210 370c32 194 210 418 428 418c82 0 122 -50 122 -105c0 -71 -67 -132 -140 -132c-46 0 -87 32 -74 84c40 -1 62 36 62 69c0 27 -24 56 -66 56c-88 0 -112 -129 -123 -196l-53 -336c-35 -217 -242 -232 -343 -394l1 -1c90 109 175 148 262 148c206 0 468 -181 640 -181
c43 0 80 12 110 40l4 -2c-74 -146 -163 -195 -260 -195c-203 0 -444 214 -683 214c-35 0 -58 -5 -90 -52l-7 4c73 126 145 151 172 321z" />
    <glyph glyph-name="M" unicode="M" horiz-adv-x="1362" 
d="M603 655l-68 -428c-41 -261 -185 -317 -290 -317c-153 0 -245 86 -245 199c0 117 102 190 203 190c96 0 200 -57 200 -158c0 -67 -51 -123 -130 -123c-57 0 -106 46 -88 107c48 1 86 41 86 94c0 52 -46 72 -83 72c-71 0 -147 -75 -147 -180c0 -89 53 -191 204 -191
c150 0 247 110 278 305l78 488c47 -18 91 -27 144 -25c-104 16 -177 96 -288 96c-62 0 -106 -25 -106 -78c0 -47 35 -63 66 -63c27 0 55 13 76 40c117 -53 41 -200 -76 -200c-74 0 -148 56 -148 144c0 93 77 166 185 166c127 0 215 -100 334 -100c22 0 32 13 32 25
c0 16 -17 32 -45 15c-23 43 10 78 46 78c25 0 54 -17 54 -49c0 -50 -30 -68 -65 -74l96 -426c96 164 220 342 335 431c99 98 221 151 288 151c60 0 88 -34 88 -75c0 -65 -57 -101 -104 -101c-22 0 -42 11 -52 38c21 9 31 31 31 52c0 27 -17 53 -50 53
c-73 0 -107 -138 -118 -205l-68 -426c-19 -117 -28 -173 77 -173l-1 -7h-379l1 7c66 0 81 36 98 143l40 262c12 82 46 154 90 214c-179 -183 -364 -530 -417 -660z" />
    <glyph glyph-name="N" unicode="N" horiz-adv-x="1227" 
d="M523 225l46 281c11 68 11 166 -22 198c55 -17 110 -18 170 -15c-104 16 -176 95 -287 95c-62 0 -106 -25 -106 -78c0 -47 35 -63 66 -63c27 0 55 13 76 40c117 -53 42 -200 -77 -200c-73 0 -147 56 -147 145c0 91 77 165 184 165c124 0 226 -100 325 -100
c36 0 42 13 42 24c0 18 -17 33 -45 16c-23 43 10 78 47 78c22 0 53 -13 53 -54c0 -42 -32 -62 -67 -69l290 -415l50 315c35 220 121 278 208 278c78 0 99 -56 99 -95c0 -67 -57 -103 -102 -103c-25 0 -44 11 -54 38c21 9 31 31 31 52c0 27 -17 53 -49 53
c-73 0 -108 -133 -119 -205l-100 -640l-441 625l-59 -364c-42 -261 -185 -317 -290 -317c-153 0 -245 86 -245 199c0 117 102 190 203 190c96 0 200 -57 200 -158c0 -67 -51 -123 -130 -123c-57 0 -106 46 -88 107c48 1 86 41 86 94c0 52 -46 72 -83 72
c-71 0 -147 -75 -147 -180c0 -89 53 -191 204 -191c150 0 246 110 278 305z" />
    <glyph glyph-name="O" unicode="O" horiz-adv-x="868" 
d="M50 239c0 170 68 292 188 377c36 87 133 158 295 158c239 0 355 -155 355 -321c0 -298 -247 -529 -509 -529c-195 0 -329 135 -329 315zM493 726l4 -4c-100 -35 -170 -163 -210 -306c28 -25 63 -37 97 -37c58 0 93 36 93 90c0 44 -30 75 -72 76c-7 61 50 107 107 107
c71 0 111 -45 111 -102c0 -109 -131 -179 -231 -179c-42 0 -79 11 -108 33c-25 -92 -37 -190 -37 -272c0 -113 30 -197 109 -197c165 0 331 367 331 602c0 99 -27 228 -175 228c-86 0 -201 -43 -250 -133c65 41 142 71 231 94z" />
    <glyph glyph-name="P" unicode="P" horiz-adv-x="1061" 
d="M464 180l52 340c20 132 167 161 246 165v1c-125 0 -234 98 -358 98c-62 0 -106 -25 -106 -78c0 -47 35 -63 66 -63c27 0 55 13 76 40c117 -53 41 -200 -76 -200c-74 0 -148 56 -148 144c0 93 77 166 185 166c127 0 248 -100 367 -100c22 0 32 13 32 25
c0 16 -17 32 -45 15c-23 43 10 78 46 78c27 0 55 -16 55 -54s-40 -56 -59 -62c17 3 35 6 53 6c145 0 241 -54 241 -177c0 -201 -234 -279 -390 -254l1 8c143 -12 181 168 181 292c0 69 -25 120 -75 120c-40 0 -70 -32 -87 -140l-54 -344c-40 -255 -310 -296 -444 -296
c-102 0 -223 68 -223 199c0 117 102 190 203 190c96 0 200 -57 200 -158c0 -67 -51 -123 -130 -123c-57 0 -106 46 -88 107c48 1 86 41 86 94c0 52 -46 72 -83 72c-71 0 -147 -75 -147 -180c0 -113 85 -191 187 -191c125 0 210 87 236 260z" />
    <glyph glyph-name="Q" unicode="Q" horiz-adv-x="850" 
d="M247 -58c-141 0 -200 45 -200 76c0 28 46 43 84 43c58 0 156 -33 276 -73c182 86 262 313 262 506c0 104 -26 272 -173 272c-183 0 -264 -241 -264 -421c0 -118 35 -165 96 -165c60 0 88 42 88 104c0 50 -34 86 -83 87c-8 70 47 131 123 131c82 0 128 -60 128 -125
c0 -126 -140 -206 -248 -206c-81 0 -255 64 -255 268c0 206 179 336 402 336c185 0 387 -90 387 -301c0 -193 -169 -418 -421 -500c211 -71 486 -159 774 -159c80 0 131 7 170 39l4 -2c-78 -143 -176 -235 -335 -235c-239 0 -491 209 -689 338c-41 -8 -83 -13 -126 -13z
M243 -48c39 0 76 6 109 15c-79 50 -150 85 -206 85c-41 0 -58 -18 -58 -35c0 -29 52 -65 155 -65z" />
    <glyph glyph-name="R" unicode="R" horiz-adv-x="1102" 
d="M464 180l52 340c20 132 167 161 246 165v1c-125 0 -234 98 -358 98c-62 0 -106 -25 -106 -78c0 -47 35 -63 66 -63c27 0 55 13 76 40c117 -53 41 -200 -76 -200c-74 0 -148 56 -148 144c0 93 77 166 185 166c127 0 248 -100 367 -100c22 0 32 13 32 25
c0 16 -17 32 -45 15c-23 43 10 78 46 78c27 0 55 -16 55 -54s-40 -56 -59 -62c17 3 35 6 53 6c145 0 246 -40 246 -154c0 -159 -235 -204 -395 -238c166 28 286 37 347 -160c39 -125 67 -194 124 -208l-3 -3c-29 -6 -56 -9 -82 -9c-133 0 -224 42 -253 192
c-21 107 -69 181 -132 185l-1 3l-1 2c155 60 183 147 183 271c0 69 -25 108 -75 108c-40 0 -70 -32 -87 -140l-54 -344c-40 -255 -310 -296 -444 -296c-102 0 -223 68 -223 199c0 117 102 190 203 190c96 0 200 -57 200 -158c0 -67 -51 -123 -130 -123
c-57 0 -106 46 -88 107c48 1 86 41 86 94c0 52 -46 72 -83 72c-71 0 -147 -75 -147 -180c0 -113 85 -191 187 -191c125 0 210 87 236 260z" />
    <glyph glyph-name="S" unicode="S" horiz-adv-x="715" 
d="M168 490c0 149 170 229 321 229c119 0 226 -50 226 -153c0 -76 -65 -127 -123 -127c-50 0 -99 36 -84 96c40 8 61 41 61 78c0 67 -47 97 -99 97c-63 0 -133 -43 -133 -112c0 -153 373 -141 373 -395c0 -182 -191 -334 -418 -334c-196 0 -292 114 -292 231
c0 112 87 199 203 199c96 0 200 -57 200 -158c0 -67 -51 -123 -130 -123c-57 0 -106 46 -88 107c48 1 86 41 86 94c0 52 -46 72 -83 72c-83 0 -147 -89 -147 -188c0 -115 85 -224 261 -224c166 0 264 98 264 196c0 185 -398 201 -398 415z" />
    <glyph glyph-name="T" unicode="T" horiz-adv-x="637" 
d="M0 625c5 182 189 231 352 231c168 0 427 -68 563 -68c46 0 82 7 118 40l4 -2c-78 -153 -167 -195 -264 -195c-39 0 -80 7 -122 17c-33 -12 -54 -61 -66 -140l-57 -358c-17 -107 -1 -143 82 -143l-1 -7h-409l1 7c105 0 115 56 133 173l46 299c19 126 175 165 261 172
c-164 44 -345 145 -480 145c-67 0 -109 -25 -109 -78s40 -79 84 -79c32 0 66 14 88 42c41 -19 58 -49 58 -80c0 -76 -65 -117 -133 -117c-70 0 -143 44 -149 141z" />
    <glyph glyph-name="U" unicode="U" horiz-adv-x="968" 
d="M258 249l43 272c21 132 166 160 245 164v1c-125 0 -234 98 -358 98c-62 0 -106 -25 -106 -78c0 -47 35 -63 66 -63c27 0 55 13 76 40c117 -53 41 -200 -76 -200c-74 0 -148 56 -148 144c0 93 77 166 185 166c127 0 248 -100 367 -100c22 0 32 13 32 25
c0 16 -17 32 -45 15c-23 43 10 78 46 78c25 0 54 -17 54 -49c0 -73 -105 -34 -133 -212l-42 -268c-20 -126 -42 -312 96 -312c125 0 221 107 247 268l27 165c22 137 41 290 -106 290l1 7h319l-1 -7c-150 0 -181 -153 -206 -309l-23 -146c-27 -171 -124 -282 -298 -282
c-192 0 -295 82 -262 293z" />
    <glyph glyph-name="V" unicode="V" horiz-adv-x="896" 
d="M488 -31l1 -1c232 156 398 377 398 524c0 48 -26 82 -71 82c-34 0 -66 -19 -80 -51c-59 4 -87 38 -87 90c0 75 59 124 124 124c70 0 143 -56 143 -177c0 -243 -241 -491 -444 -610l-3 6c8 12 12 27 12 42c0 107 -202 266 -202 459c0 151 125 218 267 228v1
c-125 0 -234 98 -358 98c-62 0 -106 -25 -106 -78c0 -47 35 -63 66 -63c27 0 55 13 76 40c117 -53 42 -200 -77 -200c-73 0 -147 56 -147 145c0 91 77 165 184 165c124 0 259 -100 358 -100c36 0 42 13 42 24c0 18 -17 33 -45 16c-23 43 10 78 46 78c25 0 54 -16 54 -51
s-30 -44 -60 -67c-67 -53 -89 -126 -89 -205c0 -153 84 -325 84 -396c0 -49 -29 -75 -86 -123z" />
    <glyph glyph-name="W" unicode="W" horiz-adv-x="1172" 
d="M861 493c0 -54 -16 -113 -44 -172c26 -84 61 -158 61 -214c0 -49 -41 -90 -98 -138l1 -1c232 156 387 377 387 524c0 48 -26 82 -71 82c-34 0 -66 -19 -80 -51c-59 4 -87 38 -87 90c0 75 59 124 124 124c70 0 143 -56 143 -177c0 -243 -230 -491 -433 -610l-3 6
c8 12 12 27 12 42c0 44 -26 100 -56 164c-68 -84 -154 -160 -245 -212l-3 6c8 12 12 27 12 42c0 107 -202 266 -202 459c0 151 125 218 267 228v1c-125 0 -234 98 -358 98c-62 0 -106 -25 -106 -78c0 -47 35 -63 66 -63c27 0 55 13 76 40c117 -53 42 -200 -77 -200
c-73 0 -147 56 -147 145c0 91 77 165 184 165c124 0 259 -100 358 -100c36 0 42 13 42 24c0 18 -17 33 -45 16c-23 43 10 78 46 78c25 0 54 -16 54 -51s-30 -44 -60 -67c-67 -53 -90 -126 -90 -203c0 -151 85 -320 85 -398c0 -49 -29 -75 -86 -123l1 -1
c90 61 166 132 223 204c-40 85 -84 182 -84 281c0 122 69 180 130 180c53 0 103 -46 103 -140zM792 471c0 -46 8 -91 21 -134c24 55 37 108 37 153c0 31 -6 70 -28 70c-26 0 -30 -59 -30 -89z" />
    <glyph glyph-name="X" unicode="X" horiz-adv-x="962" 
d="M880 727c-120 0 -200 -139 -228 -283c82 -199 187 -470 316 -503l-3 -3c-33 -6 -107 -12 -142 -12c-122 0 -183 67 -236 168c-18 34 -35 72 -52 111c-53 -205 -174 -295 -305 -295c-118 0 -230 76 -230 199c0 117 102 190 203 190c96 0 200 -57 200 -158
c0 -67 -51 -123 -130 -123c-57 0 -106 46 -88 107c48 1 86 41 86 94c0 52 -46 72 -83 72c-71 0 -147 -75 -147 -180c0 -97 64 -191 191 -191c152 0 254 126 295 303c-90 216 -171 477 -298 448l-3 3c45 28 113 45 167 45c95 0 152 -47 196 -132c17 -33 35 -76 55 -124
c33 141 108 275 245 275c95 0 143 -65 143 -139c0 -89 -59 -172 -155 -172c-117 0 -169 149 -43 202c12 -27 33 -42 60 -42c45 0 68 32 68 66c0 36 -19 74 -82 74z" />
    <glyph glyph-name="Y" unicode="Y" horiz-adv-x="544" 
d="M849 827c-86 0 -162 -72 -234 -201l-174 -313l-21 -133c-19 -117 -28 -173 77 -173l-1 -7h-410l1 7c105 0 114 56 133 173l15 101c-24 185 -98 388 -185 388c-13 0 -31 -10 -47 -23l-3 5c44 37 115 76 184 76c189 0 253 -243 218 -456l202 360c49 86 135 213 246 213
c95 0 144 -59 144 -136c0 -86 -60 -166 -153 -166c-73 0 -118 48 -118 103c0 32 16 80 73 95c12 -27 32 -42 62 -42c42 0 66 31 66 68c0 34 -19 61 -75 61z" />
    <glyph glyph-name="Z" unicode="Z" horiz-adv-x="675" 
d="M550 284l2 3c73 -34 124 -122 124 -193c0 -79 -60 -176 -167 -176c-136 0 -276 181 -396 181c-23 0 -53 -9 -53 -40c0 -24 35 -42 66 -16c36 -62 -10 -109 -60 -109c-30 0 -66 17 -66 73c0 43 23 70 60 88c85 236 500 259 592 453c-151 -66 -483 -10 -483 -147
c0 -23 8 -40 39 -59l-2 -3c-73 34 -124 122 -124 193c0 79 60 176 167 176c136 0 245 -159 365 -159c23 0 52 11 52 42c0 24 -35 45 -66 19c-36 62 10 109 60 109c30 0 66 -17 66 -73c0 -44 -23 -72 -60 -91c-75 -206 -497 -225 -594 -454c158 63 517 -13 517 124
c0 23 -8 40 -39 59z" />
    <glyph glyph-name="Agrave" unicode="&#xc0;" horiz-adv-x="1119" 
d="M821 734l172 -556c37 -118 67 -171 136 -171l-1 -7h-415l1 7c92 0 94 77 70 162l-21 75h-154c-109 -203 -226 -334 -379 -334c-126 0 -230 69 -230 200c0 117 102 190 203 190c96 0 200 -57 200 -158c0 -67 -51 -123 -130 -123c-57 0 -106 46 -88 107c48 1 86 41 86 94
c0 52 -46 72 -83 72c-71 0 -147 -75 -147 -180c0 -113 74 -192 193 -192c256 0 416 423 587 814zM706 445c-31 -69 -61 -133 -92 -191h146zM849 785l-4 -6l-215 98c0 16 14 30 32 30c29 0 94 -59 187 -122z" />
    <glyph glyph-name="Aacute" unicode="&#xc1;" horiz-adv-x="1119" 
d="M821 734l172 -556c37 -118 67 -171 136 -171l-1 -7h-415l1 7c92 0 94 77 70 162l-21 75h-154c-109 -203 -226 -334 -379 -334c-126 0 -230 69 -230 200c0 117 102 190 203 190c96 0 200 -57 200 -158c0 -67 -51 -123 -130 -123c-57 0 -106 46 -88 107c48 1 86 41 86 94
c0 52 -46 72 -83 72c-71 0 -147 -75 -147 -180c0 -113 74 -192 193 -192c256 0 416 423 587 814zM706 445c-31 -69 -61 -133 -92 -191h146zM803 779l-3 6c114 63 197 122 226 122c14 0 23 -10 23 -24z" />
    <glyph glyph-name="Acircumflex" unicode="&#xc2;" horiz-adv-x="1119" 
d="M821 734l172 -556c37 -118 67 -171 136 -171l-1 -7h-415l1 7c92 0 94 77 70 162l-21 75h-154c-109 -203 -226 -334 -379 -334c-126 0 -230 69 -230 200c0 117 102 190 203 190c96 0 200 -57 200 -158c0 -67 -51 -123 -130 -123c-57 0 -106 46 -88 107c48 1 86 41 86 94
c0 52 -46 72 -83 72c-71 0 -147 -75 -147 -180c0 -113 74 -192 193 -192c256 0 416 423 587 814zM706 445c-31 -69 -61 -133 -92 -191h146zM847 890l135 -120l-6 -5l-138 67l-160 -67l-4 5z" />
    <glyph glyph-name="Atilde" unicode="&#xc3;" horiz-adv-x="1119" 
d="M821 734l172 -556c37 -118 67 -171 136 -171l-1 -7h-415l1 7c92 0 94 77 70 162l-21 75h-154c-109 -203 -226 -334 -379 -334c-126 0 -230 69 -230 200c0 117 102 190 203 190c96 0 200 -57 200 -158c0 -67 -51 -123 -130 -123c-57 0 -106 46 -88 107c48 1 86 41 86 94
c0 52 -46 72 -83 72c-71 0 -147 -75 -147 -180c0 -113 74 -192 193 -192c256 0 416 423 587 814zM706 445c-31 -69 -61 -133 -92 -191h146zM645 797l-8 3c37 60 62 82 101 82c78 0 115 -87 191 -87c32 0 54 16 86 67l8 -3c-38 -62 -64 -74 -94 -74c-81 0 -118 87 -194 87
c-29 0 -52 -13 -90 -75z" />
    <glyph glyph-name="Adieresis" unicode="&#xc4;" horiz-adv-x="1119" 
d="M821 734l172 -556c37 -118 67 -171 136 -171l-1 -7h-415l1 7c92 0 94 77 70 162l-21 75h-154c-109 -203 -226 -334 -379 -334c-126 0 -230 69 -230 200c0 117 102 190 203 190c96 0 200 -57 200 -158c0 -67 -51 -123 -130 -123c-57 0 -106 46 -88 107c48 1 86 41 86 94
c0 52 -46 72 -83 72c-71 0 -147 -75 -147 -180c0 -113 74 -192 193 -192c256 0 416 423 587 814zM706 445c-31 -69 -61 -133 -92 -191h146zM945 884c26 0 44 -21 44 -46c0 -34 -29 -61 -61 -61c-25 0 -44 20 -44 47c0 32 30 60 61 60zM747 884c26 0 44 -21 44 -46
c0 -34 -29 -61 -61 -61c-25 0 -44 20 -44 47c0 32 30 60 61 60z" />
    <glyph glyph-name="Amacron" unicode="&#x100;" horiz-adv-x="1119" 
d="M821 734l172 -556c37 -118 67 -171 136 -171l-1 -7h-415l1 7c92 0 94 77 70 162l-21 75h-154c-109 -203 -226 -334 -379 -334c-126 0 -230 69 -230 200c0 117 102 190 203 190c96 0 200 -57 200 -158c0 -67 -51 -123 -130 -123c-57 0 -106 46 -88 107c48 1 86 41 86 94
c0 52 -46 72 -83 72c-71 0 -147 -75 -147 -180c0 -113 74 -192 193 -192c256 0 416 423 587 814zM706 445c-31 -69 -61 -133 -92 -191h146zM990 818l-2 -10h-318l2 10h318z" />
    <glyph glyph-name="Abreve" unicode="&#x102;" horiz-adv-x="1119" 
d="M821 734l172 -556c37 -118 67 -171 136 -171l-1 -7h-415l1 7c92 0 94 77 70 162l-21 75h-154c-109 -203 -226 -334 -379 -334c-126 0 -230 69 -230 200c0 117 102 190 203 190c96 0 200 -57 200 -158c0 -67 -51 -123 -130 -123c-57 0 -106 46 -88 107c48 1 86 41 86 94
c0 52 -46 72 -83 72c-71 0 -147 -75 -147 -180c0 -113 74 -192 193 -192c256 0 416 423 587 814zM706 445c-31 -69 -61 -133 -92 -191h146zM989 869l8 -2c-15 -41 -84 -92 -169 -92s-136 51 -139 92l8 2c7 -39 56 -64 136 -64s137 25 156 64z" />
    <glyph glyph-name="Aring" unicode="&#xc5;" horiz-adv-x="1119" 
d="M821 734l172 -556c37 -118 67 -171 136 -171l-1 -7h-415l1 7c92 0 94 77 70 162l-21 75h-154c-109 -203 -226 -334 -379 -334c-126 0 -230 69 -230 200c0 117 102 190 203 190c96 0 200 -57 200 -158c0 -67 -51 -123 -130 -123c-57 0 -106 46 -88 107c48 1 86 41 86 94
c0 52 -46 72 -83 72c-71 0 -147 -75 -147 -180c0 -113 74 -192 193 -192c256 0 416 423 587 814zM858 959c51 0 88 -37 88 -84c0 -60 -57 -109 -118 -109c-52 0 -88 37 -88 85c0 59 56 108 118 108zM858 949c-57 0 -108 -44 -108 -98c0 -42 32 -75 78 -75
c56 0 108 45 108 99c0 41 -33 74 -78 74zM706 445c-31 -69 -61 -133 -92 -191h146z" />
    <glyph glyph-name="Aogonek" unicode="&#x104;" horiz-adv-x="1119" 
d="M1113 -182c-50 3 -67 23 -67 49c0 44 52 103 76 133h-409l1 7c92 0 94 77 70 162l-21 75h-154c-109 -203 -226 -334 -379 -334c-126 0 -230 69 -230 200c0 117 102 190 203 190c96 0 200 -57 200 -158c0 -67 -51 -123 -130 -123c-57 0 -106 46 -88 107c48 1 86 41 86 94
c0 52 -46 72 -83 72c-71 0 -147 -75 -147 -180c0 -113 74 -192 193 -192c256 0 416 423 587 814l172 -556c37 -118 67 -171 136 -171l-1 -7c-23 -29 -73 -90 -73 -130c0 -22 16 -39 60 -42zM706 445c-31 -69 -61 -133 -92 -191h146z" />
    <glyph glyph-name="A.alt" horiz-adv-x="849" 
d="M514 169l-21 75h-222c-54 -101 -107 -237 28 -237l-1 -7h-293l1 7c117 0 215 174 286 293l259 434l172 -556c37 -118 67 -171 136 -171l-1 -7h-415l1 7c92 0 94 77 70 162zM421 499l-118 -200l-26 -45h213z" />
    <glyph glyph-name="Agrave.alt" horiz-adv-x="849" 
d="M514 169l-21 75h-222c-54 -101 -107 -237 28 -237l-1 -7h-293l1 7c117 0 215 174 286 293l259 434l172 -556c37 -118 67 -171 136 -171l-1 -7h-415l1 7c92 0 94 77 70 162zM421 499l-118 -200l-26 -45h213zM575 762l-4 -6l-215 98c0 16 14 30 32 30c29 0 94 -59 187 -122
z" />
    <glyph glyph-name="Aacute.alt" horiz-adv-x="849" 
d="M514 169l-21 75h-222c-54 -101 -107 -237 28 -237l-1 -7h-293l1 7c117 0 215 174 286 293l259 434l172 -556c37 -118 67 -171 136 -171l-1 -7h-415l1 7c92 0 94 77 70 162zM421 499l-118 -200l-26 -45h213zM529 756l-3 6c114 63 197 122 226 122c14 0 23 -10 23 -24z" />
    <glyph glyph-name="Acircumflex.alt" horiz-adv-x="849" 
d="M514 169l-21 75h-222c-54 -101 -107 -237 28 -237l-1 -7h-293l1 7c117 0 215 174 286 293l259 434l172 -556c37 -118 67 -171 136 -171l-1 -7h-415l1 7c92 0 94 77 70 162zM421 499l-118 -200l-26 -45h213zM573 867l135 -120l-6 -5l-138 67l-160 -67l-4 5z" />
    <glyph glyph-name="Atilde.alt" horiz-adv-x="849" 
d="M514 169l-21 75h-222c-54 -101 -107 -237 28 -237l-1 -7h-293l1 7c117 0 215 174 286 293l259 434l172 -556c37 -118 67 -171 136 -171l-1 -7h-415l1 7c92 0 94 77 70 162zM421 499l-118 -200l-26 -45h213zM371 774l-8 3c37 60 62 82 101 82c78 0 115 -87 191 -87
c32 0 54 16 86 67l8 -3c-38 -62 -64 -74 -94 -74c-81 0 -118 87 -194 87c-29 0 -52 -13 -90 -75z" />
    <glyph glyph-name="Adieresis.alt" horiz-adv-x="849" 
d="M514 169l-21 75h-222c-54 -101 -107 -237 28 -237l-1 -7h-293l1 7c117 0 215 174 286 293l259 434l172 -556c37 -118 67 -171 136 -171l-1 -7h-415l1 7c92 0 94 77 70 162zM421 499l-118 -200l-26 -45h213zM473 861c26 0 44 -21 44 -46c0 -34 -29 -61 -61 -61
c-25 0 -44 20 -44 47c0 32 30 60 61 60zM671 861c26 0 44 -21 44 -46c0 -34 -29 -61 -61 -61c-25 0 -44 20 -44 47c0 32 30 60 61 60z" />
    <glyph glyph-name="Amacron.alt" horiz-adv-x="849" 
d="M514 169l-21 75h-222c-54 -101 -107 -237 28 -237l-1 -7h-293l1 7c117 0 215 174 286 293l259 434l172 -556c37 -118 67 -171 136 -171l-1 -7h-415l1 7c92 0 94 77 70 162zM421 499l-118 -200l-26 -45h213zM716 795l-2 -10h-318l2 10h318z" />
    <glyph glyph-name="Abreve.alt" horiz-adv-x="849" 
d="M514 169l-21 75h-222c-54 -101 -107 -237 28 -237l-1 -7h-293l1 7c117 0 215 174 286 293l259 434l172 -556c37 -118 67 -171 136 -171l-1 -7h-415l1 7c92 0 94 77 70 162zM421 499l-118 -200l-26 -45h213zM715 846l8 -2c-15 -41 -84 -92 -169 -92s-136 51 -139 92l8 2
c7 -39 56 -64 136 -64s137 25 156 64z" />
    <glyph glyph-name="Aring.alt" horiz-adv-x="849" 
d="M514 169l-21 75h-222c-54 -101 -107 -237 28 -237l-1 -7h-293l1 7c117 0 215 174 286 293l259 434l172 -556c37 -118 67 -171 136 -171l-1 -7h-415l1 7c92 0 94 77 70 162zM421 499l-118 -200l-26 -45h213zM584 936c51 0 88 -37 88 -84c0 -60 -57 -109 -118 -109
c-52 0 -88 37 -88 85c0 59 56 108 118 108zM584 926c-57 0 -108 -44 -108 -98c0 -42 32 -75 78 -75c56 0 108 45 108 99c0 41 -33 74 -78 74z" />
    <glyph glyph-name="Aogonek.alt" horiz-adv-x="849" 
d="M843 -182c-50 3 -67 23 -67 49c0 44 52 103 76 133h-409l1 7c92 0 94 77 70 162l-21 75h-222c-54 -101 -107 -237 28 -237l-1 -7h-293l1 7c117 0 215 174 286 293l259 434l172 -556c37 -118 67 -171 136 -171l-1 -7c-23 -29 -73 -90 -73 -130c0 -22 16 -39 60 -42z
M421 499l-118 -200l-26 -45h213z" />
    <glyph glyph-name="AE" unicode="&#xc6;" horiz-adv-x="1161" 
d="M931 710c-86 0 -136 -108 -136 -183c0 -72 46 -140 113 -140h27l-2 -8h-16c-141 0 -236 -161 -236 -300c0 -105 34 -198 163 -198c173 0 278 147 278 260c0 66 -41 124 -129 124c-50 0 -88 -35 -88 -90c0 -44 30 -75 72 -76c7 -61 -50 -107 -107 -107
c-71 0 -111 45 -111 102c0 109 130 179 234 179c115 0 168 -67 168 -145c0 -116 -117 -259 -350 -259c-219 0 -317 126 -317 253c0 43 12 85 37 122h-192c-81 -101 -172 -237 -37 -237l-1 -7h-296l1 7c115 0 264 173 367 293l269 315c56 81 204 104 287 104
c124 0 229 -51 229 -151c0 -79 -65 -129 -123 -129c-50 0 -105 41 -90 101c36 8 69 32 69 83c0 52 -34 87 -83 87zM385 299l-39 -45h192c55 72 161 123 323 125l1 2c-154 3 -242 70 -242 162c0 12 1 23 4 33z" />
    <glyph glyph-name="AEacute" unicode="&#x1fc;" horiz-adv-x="1161" 
d="M931 710c-86 0 -136 -108 -136 -183c0 -72 46 -140 113 -140h27l-2 -8h-16c-141 0 -236 -161 -236 -300c0 -105 34 -198 163 -198c173 0 278 147 278 260c0 66 -41 124 -129 124c-50 0 -88 -35 -88 -90c0 -44 30 -75 72 -76c7 -61 -50 -107 -107 -107
c-71 0 -111 45 -111 102c0 109 130 179 234 179c115 0 168 -67 168 -145c0 -116 -117 -259 -350 -259c-219 0 -317 126 -317 253c0 43 12 85 37 122h-192c-81 -101 -172 -237 -37 -237l-1 -7h-296l1 7c115 0 264 173 367 293l269 315c56 81 204 104 287 104
c124 0 229 -51 229 -151c0 -79 -65 -129 -123 -129c-50 0 -105 41 -90 101c36 8 69 32 69 83c0 52 -34 87 -83 87zM385 299l-39 -45h192c55 72 161 123 323 125l1 2c-154 3 -242 70 -242 162c0 12 1 23 4 33zM859 757l-3 6c114 63 197 122 226 122c14 0 23 -10 23 -24z" />
    <glyph glyph-name="AE.alt" horiz-adv-x="1178" 
d="M1193 700l-13 -241h-10c8 151 -45 232 -212 232h-97l-53 -330c107 0 197 50 220 157h7l-68 -323h-7c20 97 -46 159 -153 159l-40 -253c-11 -71 -1 -92 43 -92c194 0 312 112 370 289h10l-94 -298h-650l1 7c105 0 114 56 133 173l10 64h-251c-81 -101 -172 -237 -37 -237
l-1 -7h-296l1 7c115 0 264 173 367 293l341 400h479zM385 299l-39 -45h245l56 350z" />
    <glyph glyph-name="AEacute.alt" horiz-adv-x="1178" 
d="M1193 700l-13 -241h-10c8 151 -45 232 -212 232h-97l-53 -330c107 0 197 50 220 157h7l-68 -323h-7c20 97 -46 159 -153 159l-40 -253c-11 -71 -1 -92 43 -92c194 0 312 112 370 289h10l-94 -298h-650l1 7c105 0 114 56 133 173l10 64h-251c-81 -101 -172 -237 -37 -237
l-1 -7h-296l1 7c115 0 264 173 367 293l341 400h479zM385 299l-39 -45h245l56 350zM816 756l-3 6c114 63 197 122 226 122c14 0 23 -10 23 -24z" />
    <glyph glyph-name="B.alt" horiz-adv-x="735" 
d="M100 700h276c159 0 358 -1 358 -136c0 -148 -181 -171 -301 -176l-1 -2c97 -1 293 -24 293 -161c0 -165 -194 -225 -345 -225h-390l1 7c104 0 113 56 132 173l53 340c19 121 28 173 -77 173zM355 390h28c122 0 159 91 159 203c0 64 -29 100 -113 100h-26zM354 382
l-41 -258c-15 -95 -16 -117 46 -117c124 0 157 158 157 262c0 72 -30 113 -130 113h-32z" />
    <glyph glyph-name="Cacute" unicode="&#x106;" horiz-adv-x="715" 
d="M536 751c-160 0 -285 -357 -285 -603c0 -99 30 -226 171 -226c120 0 247 92 247 251c0 102 -65 133 -120 133c-50 0 -88 -35 -88 -90c0 -44 30 -75 72 -76c7 -61 -50 -107 -107 -107c-71 0 -111 45 -111 102c0 109 130 179 234 179c90 0 159 -41 159 -141
c0 -141 -106 -263 -310 -263c-234 0 -348 160 -348 322c0 262 182 528 489 528c119 0 226 -51 226 -152c0 -78 -65 -128 -123 -128c-50 0 -105 41 -90 101c39 9 69 34 69 83c0 55 -37 87 -85 87zM510 805l-3 6c114 63 197 122 226 122c14 0 23 -10 23 -24z" />
    <glyph glyph-name="Ccircumflex" unicode="&#x108;" horiz-adv-x="715" 
d="M536 751c-160 0 -285 -357 -285 -603c0 -99 30 -226 171 -226c120 0 247 92 247 251c0 102 -65 133 -120 133c-50 0 -88 -35 -88 -90c0 -44 30 -75 72 -76c7 -61 -50 -107 -107 -107c-71 0 -111 45 -111 102c0 109 130 179 234 179c90 0 159 -41 159 -141
c0 -141 -106 -263 -310 -263c-234 0 -348 160 -348 322c0 262 182 528 489 528c119 0 226 -51 226 -152c0 -78 -65 -128 -123 -128c-50 0 -105 41 -90 101c39 9 69 34 69 83c0 55 -37 87 -85 87zM554 916l135 -120l-6 -5l-138 67l-160 -67l-4 5z" />
    <glyph glyph-name="Ccaron" unicode="&#x10c;" horiz-adv-x="715" 
d="M536 751c-160 0 -285 -357 -285 -603c0 -99 30 -226 171 -226c120 0 247 92 247 251c0 102 -65 133 -120 133c-50 0 -88 -35 -88 -90c0 -44 30 -75 72 -76c7 -61 -50 -107 -107 -107c-71 0 -111 45 -111 102c0 109 130 179 234 179c90 0 159 -41 159 -141
c0 -141 -106 -263 -310 -263c-234 0 -348 160 -348 322c0 262 182 528 489 528c119 0 226 -51 226 -152c0 -78 -65 -128 -123 -128c-50 0 -105 41 -90 101c39 9 69 34 69 83c0 55 -37 87 -85 87zM707 919l-173 -120l-135 120l6 5l138 -67l160 67z" />
    <glyph glyph-name="Cdotaccent" unicode="&#x10a;" horiz-adv-x="715" 
d="M536 751c-160 0 -285 -357 -285 -603c0 -99 30 -226 171 -226c120 0 247 92 247 251c0 102 -65 133 -120 133c-50 0 -88 -35 -88 -90c0 -44 30 -75 72 -76c7 -61 -50 -107 -107 -107c-71 0 -111 45 -111 102c0 109 130 179 234 179c90 0 159 -41 159 -141
c0 -141 -106 -263 -310 -263c-234 0 -348 160 -348 322c0 262 182 528 489 528c119 0 226 -51 226 -152c0 -78 -65 -128 -123 -128c-50 0 -105 41 -90 101c39 9 69 34 69 83c0 55 -37 87 -85 87zM551 911c26 0 45 -21 45 -46c0 -34 -29 -61 -62 -61c-25 0 -44 20 -44 47
c0 32 31 60 61 60z" />
    <glyph glyph-name="Ccedilla" unicode="&#xc7;" horiz-adv-x="715" 
d="M290 -255l9 6c12 -14 32 -23 58 -23c52 0 78 28 78 57c0 28 -27 57 -82 60c13 24 25 47 31 66c-225 6 -334 162 -334 321c0 262 182 528 489 528c119 0 226 -51 226 -152c0 -78 -65 -128 -123 -128c-50 0 -105 41 -90 101c39 9 69 34 69 83c0 55 -37 87 -85 87
c-160 0 -285 -357 -285 -603c0 -99 30 -226 171 -226c120 0 247 92 247 251c0 102 -65 133 -120 133c-50 0 -88 -35 -88 -90c0 -44 30 -75 72 -76c7 -61 -50 -107 -107 -107c-71 0 -111 45 -111 102c0 109 130 179 234 179c90 0 159 -41 159 -141
c0 -141 -106 -263 -310 -263h-5c-6 -18 -16 -40 -26 -57c52 -6 78 -35 78 -66c0 -35 -31 -69 -89 -69c-29 0 -55 12 -66 27z" />
    <glyph glyph-name="C.alt" horiz-adv-x="690" 
d="M404 -7c-196 0 -341 121 -341 301c0 234 220 413 463 413c151 0 207 -61 207 -120c0 -56 -51 -111 -116 -111c-49 0 -87 29 -80 92c31 8 57 42 57 78c0 27 -18 52 -75 52c-203 0 -251 -331 -251 -493c0 -107 29 -203 139 -203c68 0 114 54 114 103c0 23 -10 45 -33 61
c14 65 63 96 112 96c54 0 84 -37 84 -84c0 -79 -85 -185 -280 -185z" />
    <glyph glyph-name="Cacute.alt" horiz-adv-x="690" 
d="M404 -7c-196 0 -341 121 -341 301c0 234 220 413 463 413c151 0 207 -61 207 -120c0 -56 -51 -111 -116 -111c-49 0 -87 29 -80 92c31 8 57 42 57 78c0 27 -18 52 -75 52c-203 0 -251 -331 -251 -493c0 -107 29 -203 139 -203c68 0 114 54 114 103c0 23 -10 45 -33 61
c14 65 63 96 112 96c54 0 84 -37 84 -84c0 -79 -85 -185 -280 -185zM476 756l-3 6c114 63 197 122 226 122c14 0 23 -10 23 -24z" />
    <glyph glyph-name="Ccircumflex.alt" horiz-adv-x="690" 
d="M404 -7c-196 0 -341 121 -341 301c0 234 220 413 463 413c151 0 207 -61 207 -120c0 -56 -51 -111 -116 -111c-49 0 -87 29 -80 92c31 8 57 42 57 78c0 27 -18 52 -75 52c-203 0 -251 -331 -251 -493c0 -107 29 -203 139 -203c68 0 114 54 114 103c0 23 -10 45 -33 61
c14 65 63 96 112 96c54 0 84 -37 84 -84c0 -79 -85 -185 -280 -185zM520 867l135 -120l-6 -5l-138 67l-160 -67l-4 5z" />
    <glyph glyph-name="Ccaron.alt" horiz-adv-x="690" 
d="M404 -7c-196 0 -341 121 -341 301c0 234 220 413 463 413c151 0 207 -61 207 -120c0 -56 -51 -111 -116 -111c-49 0 -87 29 -80 92c31 8 57 42 57 78c0 27 -18 52 -75 52c-203 0 -251 -331 -251 -493c0 -107 29 -203 139 -203c68 0 114 54 114 103c0 23 -10 45 -33 61
c14 65 63 96 112 96c54 0 84 -37 84 -84c0 -79 -85 -185 -280 -185zM673 870l-173 -120l-135 120l6 5l138 -67l160 67z" />
    <glyph glyph-name="Cdotaccent.alt" horiz-adv-x="690" 
d="M404 -7c-196 0 -341 121 -341 301c0 234 220 413 463 413c151 0 207 -61 207 -120c0 -56 -51 -111 -116 -111c-49 0 -87 29 -80 92c31 8 57 42 57 78c0 27 -18 52 -75 52c-203 0 -251 -331 -251 -493c0 -107 29 -203 139 -203c68 0 114 54 114 103c0 23 -10 45 -33 61
c14 65 63 96 112 96c54 0 84 -37 84 -84c0 -79 -85 -185 -280 -185zM517 862c26 0 45 -21 45 -46c0 -34 -29 -61 -62 -61c-25 0 -44 20 -44 47c0 32 31 60 61 60z" />
    <glyph glyph-name="Ccedilla.alt" horiz-adv-x="690" 
d="M283 -172l9 6c12 -14 32 -23 58 -23c52 0 78 28 78 57c0 28 -27 57 -82 60c13 24 25 48 31 66c-182 10 -314 128 -314 300c0 234 220 413 463 413c151 0 207 -61 207 -120c0 -56 -51 -111 -116 -111c-49 0 -87 29 -80 92c31 8 57 42 57 78c0 27 -18 52 -75 52
c-203 0 -251 -331 -251 -493c0 -107 29 -203 139 -203c68 0 114 54 114 103c0 23 -10 45 -33 61c14 65 63 96 112 96c54 0 84 -37 84 -84c0 -79 -85 -185 -280 -185h-18c-6 -18 -16 -40 -26 -57c52 -6 78 -35 78 -66c0 -35 -31 -69 -89 -69c-29 0 -55 12 -66 27z" />
    <glyph glyph-name="Dcaron" unicode="&#x10e;" horiz-adv-x="912" 
d="M826 870l-173 -120l-13 11v-4c0 -38 -40 -56 -59 -62c16 2 31 3 47 3c146 0 298 -85 298 -308c0 -204 -128 -539 -581 -420l1 7c315 -56 380 328 380 510c0 129 -33 203 -123 203c-56 0 -81 -29 -98 -140l-86 -550h-304l1 7c105 0 115 56 133 173l52 340
c20 132 166 161 245 165v1c-125 0 -234 98 -358 98c-62 0 -106 -25 -106 -78c0 -47 35 -63 66 -63c27 0 55 13 76 40c117 -53 41 -200 -76 -200c-74 0 -148 56 -148 144c0 93 77 166 185 166c127 0 248 -100 367 -100c22 0 32 13 32 25c0 16 -17 32 -45 15
c-23 43 9 77 45 78l-66 59l6 5l138 -67l160 67z" />
    <glyph glyph-name="Dcroat" unicode="&#x110;" horiz-adv-x="912" 
d="M173 345l1 10h101l26 165c20 132 166 161 245 165v1c-125 0 -234 98 -358 98c-62 0 -106 -25 -106 -78c0 -47 35 -63 66 -63c27 0 55 13 76 40c117 -53 41 -200 -76 -200c-74 0 -148 56 -148 144c0 93 77 166 185 166c127 0 248 -100 367 -100c22 0 32 13 32 25
c0 16 -17 32 -45 15c-23 43 10 78 46 78c27 0 55 -16 55 -54s-40 -56 -59 -62c16 2 31 3 47 3c146 0 298 -85 298 -308c0 -204 -128 -539 -581 -420l1 7c315 -56 380 328 380 510c0 129 -33 203 -123 203c-56 0 -81 -29 -98 -140l-31 -195h114l-1 -10h-114l-54 -345h-304
l1 7c105 0 115 56 133 173l25 165h-101z" />
    <glyph glyph-name="Eth" unicode="&#xd0;" horiz-adv-x="912" 
d="M173 345l1 10h101l26 165c20 132 166 161 245 165v1c-125 0 -234 98 -358 98c-62 0 -106 -25 -106 -78c0 -47 35 -63 66 -63c27 0 55 13 76 40c117 -53 41 -200 -76 -200c-74 0 -148 56 -148 144c0 93 77 166 185 166c127 0 248 -100 367 -100c22 0 32 13 32 25
c0 16 -17 32 -45 15c-23 43 10 78 46 78c27 0 55 -16 55 -54s-40 -56 -59 -62c16 2 31 3 47 3c146 0 298 -85 298 -308c0 -204 -128 -539 -581 -420l1 7c315 -56 380 328 380 510c0 129 -33 203 -123 203c-56 0 -81 -29 -98 -140l-31 -195h114l-1 -10h-114l-54 -345h-304
l1 7c105 0 115 56 133 173l25 165h-101z" />
    <glyph glyph-name="D.alt" horiz-adv-x="787" 
d="M-9 0l1 7c103 0 112 56 131 173l53 340c19 121 28 173 -76 173l1 7h363c212 0 341 -89 341 -274c0 -224 -142 -426 -412 -426h-402zM360 7c111 0 185 89 226 343c11 69 18 126 18 174c0 114 -41 169 -172 169h-28l-90 -569c-15 -95 -16 -117 46 -117z" />
    <glyph glyph-name="Dcaron.alt" horiz-adv-x="787" 
d="M-9 0l1 7c103 0 112 56 131 173l53 340c19 121 28 173 -76 173l1 7h363c212 0 341 -89 341 -274c0 -224 -142 -426 -412 -426h-402zM360 7c111 0 185 89 226 343c11 69 18 126 18 174c0 114 -41 169 -172 169h-28l-90 -569c-15 -95 -16 -117 46 -117zM634 870l-173 -120
l-135 120l6 5l138 -67l160 67z" />
    <glyph glyph-name="Dcroat.alt" horiz-adv-x="787" 
d="M-9 0l1 7c103 0 112 56 131 173l25 165h-99l1 10h100l26 165c19 121 28 173 -76 173l1 7h363c212 0 341 -89 341 -274c0 -224 -142 -426 -412 -426h-402zM360 7c111 0 185 89 226 343c11 69 18 126 18 174c0 114 -41 169 -172 169h-28l-54 -338h119l-1 -10h-119l-35 -221
c-15 -95 -16 -117 46 -117z" />
    <glyph glyph-name="Eth.alt" horiz-adv-x="787" 
d="M-9 0l1 7c103 0 112 56 131 173l25 165h-99l1 10h100l26 165c19 121 28 173 -76 173l1 7h363c212 0 341 -89 341 -274c0 -224 -142 -426 -412 -426h-402zM360 7c111 0 185 89 226 343c11 69 18 126 18 174c0 114 -41 169 -172 169h-28l-54 -338h119l-1 -10h-119l-35 -221
c-15 -95 -16 -117 46 -117z" />
    <glyph glyph-name="Egrave" unicode="&#xc8;" horiz-adv-x="707" 
d="M477 710c-86 0 -136 -108 -136 -183c0 -72 46 -140 113 -140h27l-2 -8h-16c-141 0 -236 -161 -236 -300c0 -105 34 -198 163 -198c173 0 278 147 278 260c0 66 -41 124 -129 124c-50 0 -88 -35 -88 -90c0 -44 30 -75 72 -76c7 -61 -50 -107 -107 -107
c-71 0 -111 45 -111 102c0 109 130 179 234 179c115 0 168 -67 168 -145c0 -116 -117 -259 -350 -259c-219 0 -317 126 -317 253c0 132 116 255 367 257l1 2c-154 3 -242 70 -242 162c0 141 206 176 309 176c124 0 229 -51 229 -151c0 -79 -65 -129 -123 -129
c-50 0 -105 41 -90 101c36 8 69 32 69 83c0 52 -34 87 -83 87zM502 771l-4 -6l-215 98c0 16 14 30 32 30c29 0 94 -59 187 -122z" />
    <glyph glyph-name="Eacute" unicode="&#xc9;" horiz-adv-x="707" 
d="M477 710c-86 0 -136 -108 -136 -183c0 -72 46 -140 113 -140h27l-2 -8h-16c-141 0 -236 -161 -236 -300c0 -105 34 -198 163 -198c173 0 278 147 278 260c0 66 -41 124 -129 124c-50 0 -88 -35 -88 -90c0 -44 30 -75 72 -76c7 -61 -50 -107 -107 -107
c-71 0 -111 45 -111 102c0 109 130 179 234 179c115 0 168 -67 168 -145c0 -116 -117 -259 -350 -259c-219 0 -317 126 -317 253c0 132 116 255 367 257l1 2c-154 3 -242 70 -242 162c0 141 206 176 309 176c124 0 229 -51 229 -151c0 -79 -65 -129 -123 -129
c-50 0 -105 41 -90 101c36 8 69 32 69 83c0 52 -34 87 -83 87zM456 765l-3 6c114 63 197 122 226 122c14 0 23 -10 23 -24z" />
    <glyph glyph-name="Ecircumflex" unicode="&#xca;" horiz-adv-x="707" 
d="M477 710c-86 0 -136 -108 -136 -183c0 -72 46 -140 113 -140h27l-2 -8h-16c-141 0 -236 -161 -236 -300c0 -105 34 -198 163 -198c173 0 278 147 278 260c0 66 -41 124 -129 124c-50 0 -88 -35 -88 -90c0 -44 30 -75 72 -76c7 -61 -50 -107 -107 -107
c-71 0 -111 45 -111 102c0 109 130 179 234 179c115 0 168 -67 168 -145c0 -116 -117 -259 -350 -259c-219 0 -317 126 -317 253c0 132 116 255 367 257l1 2c-154 3 -242 70 -242 162c0 141 206 176 309 176c124 0 229 -51 229 -151c0 -79 -65 -129 -123 -129
c-50 0 -105 41 -90 101c36 8 69 32 69 83c0 52 -34 87 -83 87zM500 876l135 -120l-6 -5l-138 67l-160 -67l-4 5z" />
    <glyph glyph-name="Ecaron" unicode="&#x11a;" horiz-adv-x="707" 
d="M477 710c-86 0 -136 -108 -136 -183c0 -72 46 -140 113 -140h27l-2 -8h-16c-141 0 -236 -161 -236 -300c0 -105 34 -198 163 -198c173 0 278 147 278 260c0 66 -41 124 -129 124c-50 0 -88 -35 -88 -90c0 -44 30 -75 72 -76c7 -61 -50 -107 -107 -107
c-71 0 -111 45 -111 102c0 109 130 179 234 179c115 0 168 -67 168 -145c0 -116 -117 -259 -350 -259c-219 0 -317 126 -317 253c0 132 116 255 367 257l1 2c-154 3 -242 70 -242 162c0 141 206 176 309 176c124 0 229 -51 229 -151c0 -79 -65 -129 -123 -129
c-50 0 -105 41 -90 101c36 8 69 32 69 83c0 52 -34 87 -83 87zM653 879l-173 -120l-135 120l6 5l138 -67l160 67z" />
    <glyph glyph-name="Edieresis" unicode="&#xcb;" horiz-adv-x="707" 
d="M477 710c-86 0 -136 -108 -136 -183c0 -72 46 -140 113 -140h27l-2 -8h-16c-141 0 -236 -161 -236 -300c0 -105 34 -198 163 -198c173 0 278 147 278 260c0 66 -41 124 -129 124c-50 0 -88 -35 -88 -90c0 -44 30 -75 72 -76c7 -61 -50 -107 -107 -107
c-71 0 -111 45 -111 102c0 109 130 179 234 179c115 0 168 -67 168 -145c0 -116 -117 -259 -350 -259c-219 0 -317 126 -317 253c0 132 116 255 367 257l1 2c-154 3 -242 70 -242 162c0 141 206 176 309 176c124 0 229 -51 229 -151c0 -79 -65 -129 -123 -129
c-50 0 -105 41 -90 101c36 8 69 32 69 83c0 52 -34 87 -83 87zM400 870c26 0 44 -21 44 -46c0 -34 -29 -61 -61 -61c-25 0 -44 20 -44 47c0 32 30 60 61 60zM598 870c26 0 44 -21 44 -46c0 -34 -29 -61 -61 -61c-25 0 -44 20 -44 47c0 32 30 60 61 60z" />
    <glyph glyph-name="Emacron" unicode="&#x112;" horiz-adv-x="707" 
d="M477 710c-86 0 -136 -108 -136 -183c0 -72 46 -140 113 -140h27l-2 -8h-16c-141 0 -236 -161 -236 -300c0 -105 34 -198 163 -198c173 0 278 147 278 260c0 66 -41 124 -129 124c-50 0 -88 -35 -88 -90c0 -44 30 -75 72 -76c7 -61 -50 -107 -107 -107
c-71 0 -111 45 -111 102c0 109 130 179 234 179c115 0 168 -67 168 -145c0 -116 -117 -259 -350 -259c-219 0 -317 126 -317 253c0 132 116 255 367 257l1 2c-154 3 -242 70 -242 162c0 141 206 176 309 176c124 0 229 -51 229 -151c0 -79 -65 -129 -123 -129
c-50 0 -105 41 -90 101c36 8 69 32 69 83c0 52 -34 87 -83 87zM643 804l-2 -10h-318l2 10h318z" />
    <glyph glyph-name="Ebreve" unicode="&#x114;" horiz-adv-x="707" 
d="M477 710c-86 0 -136 -108 -136 -183c0 -72 46 -140 113 -140h27l-2 -8h-16c-141 0 -236 -161 -236 -300c0 -105 34 -198 163 -198c173 0 278 147 278 260c0 66 -41 124 -129 124c-50 0 -88 -35 -88 -90c0 -44 30 -75 72 -76c7 -61 -50 -107 -107 -107
c-71 0 -111 45 -111 102c0 109 130 179 234 179c115 0 168 -67 168 -145c0 -116 -117 -259 -350 -259c-219 0 -317 126 -317 253c0 132 116 255 367 257l1 2c-154 3 -242 70 -242 162c0 141 206 176 309 176c124 0 229 -51 229 -151c0 -79 -65 -129 -123 -129
c-50 0 -105 41 -90 101c36 8 69 32 69 83c0 52 -34 87 -83 87zM642 855l8 -2c-15 -41 -84 -92 -169 -92s-136 51 -139 92l8 2c7 -39 56 -64 136 -64s137 25 156 64z" />
    <glyph glyph-name="Edotaccent" unicode="&#x116;" horiz-adv-x="707" 
d="M477 710c-86 0 -136 -108 -136 -183c0 -72 46 -140 113 -140h27l-2 -8h-16c-141 0 -236 -161 -236 -300c0 -105 34 -198 163 -198c173 0 278 147 278 260c0 66 -41 124 -129 124c-50 0 -88 -35 -88 -90c0 -44 30 -75 72 -76c7 -61 -50 -107 -107 -107
c-71 0 -111 45 -111 102c0 109 130 179 234 179c115 0 168 -67 168 -145c0 -116 -117 -259 -350 -259c-219 0 -317 126 -317 253c0 132 116 255 367 257l1 2c-154 3 -242 70 -242 162c0 141 206 176 309 176c124 0 229 -51 229 -151c0 -79 -65 -129 -123 -129
c-50 0 -105 41 -90 101c36 8 69 32 69 83c0 52 -34 87 -83 87zM497 871c26 0 45 -21 45 -46c0 -34 -29 -61 -62 -61c-25 0 -44 20 -44 47c0 32 31 60 61 60z" />
    <glyph glyph-name="Eogonek" unicode="&#x118;" horiz-adv-x="707" 
d="M601 -229c-50 3 -67 23 -67 49c0 39 40 88 66 120c-57 -42 -139 -71 -243 -71c-219 0 -317 126 -317 253c0 132 116 255 367 257l1 2c-154 3 -242 70 -242 162c0 141 206 176 309 176c124 0 229 -51 229 -151c0 -79 -65 -129 -123 -129c-50 0 -105 41 -90 101
c36 8 69 32 69 83c0 52 -34 87 -83 87c-86 0 -136 -108 -136 -183c0 -72 46 -140 113 -140h27l-2 -8h-16c-141 0 -236 -161 -236 -300c0 -105 34 -198 163 -198c173 0 278 147 278 260c0 66 -41 124 -129 124c-50 0 -88 -35 -88 -90c0 -44 30 -75 72 -76
c7 -61 -50 -107 -107 -107c-71 0 -111 45 -111 102c0 109 130 179 234 179c115 0 168 -67 168 -145c0 -60 -32 -128 -94 -178c-24 -30 -70 -88 -70 -127c0 -22 16 -39 60 -42z" />
    <glyph glyph-name="E.alt" horiz-adv-x="721" 
d="M736 700l-13 -241h-9c6 151 -48 232 -215 232h-97l-51 -330c107 0 197 50 220 157h7l-67 -323h-7c19 97 -47 159 -154 159l-40 -253c-11 -71 0 -92 44 -92c194 0 311 112 369 289h10l-93 -298h-650l1 7c105 0 115 56 133 173l52 340c19 121 27 173 -77 173l1 7h636z" />
    <glyph glyph-name="Egrave.alt" horiz-adv-x="721" 
d="M736 700l-13 -241h-9c6 151 -48 232 -215 232h-97l-51 -330c107 0 197 50 220 157h7l-67 -323h-7c19 97 -47 159 -154 159l-40 -253c-11 -71 0 -92 44 -92c194 0 311 112 369 289h10l-93 -298h-650l1 7c105 0 115 56 133 173l52 340c19 121 27 173 -77 173l1 7h636z
M469 762l-4 -6l-215 98c0 16 14 30 32 30c29 0 94 -59 187 -122z" />
    <glyph glyph-name="Eacute.alt" horiz-adv-x="721" 
d="M736 700l-13 -241h-9c6 151 -48 232 -215 232h-97l-51 -330c107 0 197 50 220 157h7l-67 -323h-7c19 97 -47 159 -154 159l-40 -253c-11 -71 0 -92 44 -92c194 0 311 112 369 289h10l-93 -298h-650l1 7c105 0 115 56 133 173l52 340c19 121 27 173 -77 173l1 7h636z
M423 756l-3 6c114 63 197 122 226 122c14 0 23 -10 23 -24z" />
    <glyph glyph-name="Ecircumflex.alt" horiz-adv-x="721" 
d="M736 700l-13 -241h-9c6 151 -48 232 -215 232h-97l-51 -330c107 0 197 50 220 157h7l-67 -323h-7c19 97 -47 159 -154 159l-40 -253c-11 -71 0 -92 44 -92c194 0 311 112 369 289h10l-93 -298h-650l1 7c105 0 115 56 133 173l52 340c19 121 27 173 -77 173l1 7h636z
M467 867l135 -120l-6 -5l-138 67l-160 -67l-4 5z" />
    <glyph glyph-name="Ecaron.alt" horiz-adv-x="721" 
d="M736 700l-13 -241h-9c6 151 -48 232 -215 232h-97l-51 -330c107 0 197 50 220 157h7l-67 -323h-7c19 97 -47 159 -154 159l-40 -253c-11 -71 0 -92 44 -92c194 0 311 112 369 289h10l-93 -298h-650l1 7c105 0 115 56 133 173l52 340c19 121 27 173 -77 173l1 7h636z
M620 870l-173 -120l-135 120l6 5l138 -67l160 67z" />
    <glyph glyph-name="Edieresis.alt" horiz-adv-x="721" 
d="M736 700l-13 -241h-9c6 151 -48 232 -215 232h-97l-51 -330c107 0 197 50 220 157h7l-67 -323h-7c19 97 -47 159 -154 159l-40 -253c-11 -71 0 -92 44 -92c194 0 311 112 369 289h10l-93 -298h-650l1 7c105 0 115 56 133 173l52 340c19 121 27 173 -77 173l1 7h636z
M367 861c26 0 44 -21 44 -46c0 -34 -29 -61 -61 -61c-25 0 -44 20 -44 47c0 32 30 60 61 60zM565 861c26 0 44 -21 44 -46c0 -34 -29 -61 -61 -61c-25 0 -44 20 -44 47c0 32 30 60 61 60z" />
    <glyph glyph-name="Emacron.alt" horiz-adv-x="721" 
d="M736 700l-13 -241h-9c6 151 -48 232 -215 232h-97l-51 -330c107 0 197 50 220 157h7l-67 -323h-7c19 97 -47 159 -154 159l-40 -253c-11 -71 0 -92 44 -92c194 0 311 112 369 289h10l-93 -298h-650l1 7c105 0 115 56 133 173l52 340c19 121 27 173 -77 173l1 7h636z
M610 795l-2 -10h-318l2 10h318z" />
    <glyph glyph-name="Ebreve.alt" horiz-adv-x="721" 
d="M736 700l-13 -241h-9c6 151 -48 232 -215 232h-97l-51 -330c107 0 197 50 220 157h7l-67 -323h-7c19 97 -47 159 -154 159l-40 -253c-11 -71 0 -92 44 -92c194 0 311 112 369 289h10l-93 -298h-650l1 7c105 0 115 56 133 173l52 340c19 121 27 173 -77 173l1 7h636z
M609 846l8 -2c-15 -41 -84 -92 -169 -92s-136 51 -139 92l8 2c7 -39 56 -64 136 -64s137 25 156 64z" />
    <glyph glyph-name="Edotaccent.alt" horiz-adv-x="721" 
d="M736 700l-13 -241h-9c6 151 -48 232 -215 232h-97l-51 -330c107 0 197 50 220 157h7l-67 -323h-7c19 97 -47 159 -154 159l-40 -253c-11 -71 0 -92 44 -92c194 0 311 112 369 289h10l-93 -298h-650l1 7c105 0 115 56 133 173l52 340c19 121 27 173 -77 173l1 7h636z
M464 862c26 0 45 -21 45 -46c0 -34 -29 -61 -62 -61c-25 0 -44 20 -44 47c0 32 31 60 61 60z" />
    <glyph glyph-name="Eogonek.alt" horiz-adv-x="721" 
d="M625 -182c-50 3 -67 23 -67 49c0 44 52 103 76 133h-644l1 7c105 0 115 56 133 173l52 340c19 121 27 173 -77 173l1 7h636l-13 -241h-9c6 151 -48 232 -215 232h-97l-51 -330c107 0 197 50 220 157h7l-67 -323h-7c19 97 -47 159 -154 159l-40 -253c-11 -71 0 -92 44 -92
c194 0 311 112 369 289h10l-93 -298c-23 -29 -73 -90 -73 -130c0 -22 16 -39 60 -42z" />
    <glyph glyph-name="F.alt" horiz-adv-x="681" 
d="M480 691h-78l-51 -330c107 0 197 50 220 157h7l-67 -323h-7c19 97 -47 159 -153 159l-28 -175c-21 -134 -26 -172 106 -172l-1 -7h-438l1 7c105 0 115 56 133 173l52 340c19 121 27 173 -77 173l1 7h616l-12 -241h-10c7 151 -47 232 -214 232z" />
    <glyph glyph-name="F.titl" horiz-adv-x="806" 
d="M581 695v-1c55 8 97 6 260 6l-37 -241h-9c22 147 -1 232 -157 232c-100 0 -118 -42 -133 -141l-29 -189c107 0 197 50 220 157h7l-67 -323h-7c19 97 -47 159 -153 159l-28 -175c-21 -134 -26 -172 106 -172l-1 -7h-438l1 7c105 0 115 56 133 173l52 340
c20 132 166 161 245 165v1c-125 0 -234 98 -358 98c-62 0 -106 -25 -106 -78c0 -47 35 -63 66 -63c27 0 55 13 76 40c117 -53 41 -200 -76 -200c-74 0 -148 56 -148 144c0 93 77 166 185 166c127 0 248 -100 367 -100c22 0 32 13 32 25c0 16 -17 32 -45 15
c-23 43 10 78 46 78c27 0 55 -16 55 -54s-40 -56 -59 -62z" />
    <glyph glyph-name="Gcircumflex" unicode="&#x11c;" horiz-adv-x="768" 
d="M576 -182c0 80 -88 103 -86 179c-32 -44 -95 -63 -161 -63c-185 0 -279 147 -279 319c0 256 209 507 497 507c123 0 229 -51 229 -152c0 -78 -65 -128 -123 -128c-50 0 -105 41 -90 101c39 9 69 33 69 83c0 55 -36 87 -85 87c-166 0 -289 -342 -289 -562
c0 -53 7 -239 109 -239c38 0 103 26 125 67l19 125c18 121 27 170 -68 170l1 7h359v-7c-66 0 -82 -38 -96 -129l-33 -221c-18 -120 -84 -257 -210 -257c-86 0 -135 45 -135 108c0 74 58 105 113 105c52 0 102 -34 95 -102c-37 2 -58 -16 -58 -46c0 -22 13 -38 37 -38
c45 0 60 41 60 86zM567 916l135 -120l-6 -5l-138 67l-160 -67l-4 5z" />
    <glyph glyph-name="Gbreve" unicode="&#x11e;" horiz-adv-x="768" 
d="M576 -182c0 80 -88 103 -86 179c-32 -44 -95 -63 -161 -63c-185 0 -279 147 -279 319c0 256 209 507 497 507c123 0 229 -51 229 -152c0 -78 -65 -128 -123 -128c-50 0 -105 41 -90 101c39 9 69 33 69 83c0 55 -36 87 -85 87c-166 0 -289 -342 -289 -562
c0 -53 7 -239 109 -239c38 0 103 26 125 67l19 125c18 121 27 170 -68 170l1 7h359v-7c-66 0 -82 -38 -96 -129l-33 -221c-18 -120 -84 -257 -210 -257c-86 0 -135 45 -135 108c0 74 58 105 113 105c52 0 102 -34 95 -102c-37 2 -58 -16 -58 -46c0 -22 13 -38 37 -38
c45 0 60 41 60 86zM709 895l8 -2c-15 -41 -84 -92 -169 -92s-136 51 -139 92l8 2c7 -39 56 -64 136 -64s137 25 156 64z" />
    <glyph glyph-name="Gdotaccent" unicode="&#x120;" horiz-adv-x="768" 
d="M576 -182c0 80 -88 103 -86 179c-32 -44 -95 -63 -161 -63c-185 0 -279 147 -279 319c0 256 209 507 497 507c123 0 229 -51 229 -152c0 -78 -65 -128 -123 -128c-50 0 -105 41 -90 101c39 9 69 33 69 83c0 55 -36 87 -85 87c-166 0 -289 -342 -289 -562
c0 -53 7 -239 109 -239c38 0 103 26 125 67l19 125c18 121 27 170 -68 170l1 7h359v-7c-66 0 -82 -38 -96 -129l-33 -221c-18 -120 -84 -257 -210 -257c-86 0 -135 45 -135 108c0 74 58 105 113 105c52 0 102 -34 95 -102c-37 2 -58 -16 -58 -46c0 -22 13 -38 37 -38
c45 0 60 41 60 86zM564 911c26 0 45 -21 45 -46c0 -34 -29 -61 -62 -61c-25 0 -44 20 -44 47c0 32 31 60 61 60z" />
    <glyph glyph-name="Gcommaaccent" unicode="&#x122;" horiz-adv-x="768" 
d="M576 -182c0 80 -88 103 -86 179c-32 -44 -95 -63 -161 -63c-185 0 -279 147 -279 319c0 256 209 507 497 507c123 0 229 -51 229 -152c0 -78 -65 -128 -123 -128c-50 0 -105 41 -90 101c39 9 69 33 69 83c0 55 -36 87 -85 87c-166 0 -289 -342 -289 -562
c0 -53 7 -239 109 -239c38 0 103 26 125 67l19 125c18 121 27 170 -68 170l1 7h359v-7c-66 0 -82 -38 -96 -129l-33 -221c-18 -120 -84 -257 -210 -257c-86 0 -135 45 -135 108c0 74 58 105 113 105c52 0 102 -34 95 -102c-37 2 -58 -16 -58 -46c0 -22 13 -38 37 -38
c45 0 60 41 60 86zM224 -291l-5 6c39 31 61 68 61 101c0 27 -16 46 -55 35c-4 29 21 44 45 44c25 0 50 -17 50 -53c0 -53 -51 -99 -96 -133z" />
    <glyph glyph-name="G.alt" horiz-adv-x="737" 
d="M690 194l-31 -199c-9 14 -13 29 -40 29c-58 0 -141 -31 -219 -31c-186 0 -337 123 -337 301c0 234 221 413 464 413c151 0 207 -61 207 -120c0 -56 -51 -111 -116 -111c-49 0 -87 29 -80 92c31 8 57 42 57 78c0 27 -18 52 -75 52c-203 0 -250 -310 -250 -472
c0 -100 37 -224 138 -224c22 0 43 3 63 9l23 142c19 121 27 170 -68 170l1 7h359v-7c-66 0 -82 -38 -96 -129z" />
    <glyph glyph-name="Gcircumflex.alt" horiz-adv-x="737" 
d="M690 194l-31 -199c-9 14 -13 29 -40 29c-58 0 -141 -31 -219 -31c-186 0 -337 123 -337 301c0 234 221 413 464 413c151 0 207 -61 207 -120c0 -56 -51 -111 -116 -111c-49 0 -87 29 -80 92c31 8 57 42 57 78c0 27 -18 52 -75 52c-203 0 -250 -310 -250 -472
c0 -100 37 -224 138 -224c22 0 43 3 63 9l23 142c19 121 27 170 -68 170l1 7h359v-7c-66 0 -82 -38 -96 -129zM523 867l135 -120l-6 -5l-138 67l-160 -67l-4 5z" />
    <glyph glyph-name="Gbreve.alt" horiz-adv-x="737" 
d="M690 194l-31 -199c-9 14 -13 29 -40 29c-58 0 -141 -31 -219 -31c-186 0 -337 123 -337 301c0 234 221 413 464 413c151 0 207 -61 207 -120c0 -56 -51 -111 -116 -111c-49 0 -87 29 -80 92c31 8 57 42 57 78c0 27 -18 52 -75 52c-203 0 -250 -310 -250 -472
c0 -100 37 -224 138 -224c22 0 43 3 63 9l23 142c19 121 27 170 -68 170l1 7h359v-7c-66 0 -82 -38 -96 -129zM665 846l8 -2c-15 -41 -84 -92 -169 -92s-136 51 -139 92l8 2c7 -39 56 -64 136 -64s137 25 156 64z" />
    <glyph glyph-name="Gdotaccent.alt" horiz-adv-x="737" 
d="M690 194l-31 -199c-9 14 -13 29 -40 29c-58 0 -141 -31 -219 -31c-186 0 -337 123 -337 301c0 234 221 413 464 413c151 0 207 -61 207 -120c0 -56 -51 -111 -116 -111c-49 0 -87 29 -80 92c31 8 57 42 57 78c0 27 -18 52 -75 52c-203 0 -250 -310 -250 -472
c0 -100 37 -224 138 -224c22 0 43 3 63 9l23 142c19 121 27 170 -68 170l1 7h359v-7c-66 0 -82 -38 -96 -129zM520 862c26 0 45 -21 45 -46c0 -34 -29 -61 -62 -61c-25 0 -44 20 -44 47c0 32 31 60 61 60z" />
    <glyph glyph-name="Gcommaaccent.alt" horiz-adv-x="737" 
d="M690 194l-31 -199c-9 14 -13 29 -40 29c-58 0 -141 -31 -219 -31c-186 0 -337 123 -337 301c0 234 221 413 464 413c151 0 207 -61 207 -120c0 -56 -51 -111 -116 -111c-49 0 -87 29 -80 92c31 8 57 42 57 78c0 27 -18 52 -75 52c-203 0 -250 -310 -250 -472
c0 -100 37 -224 138 -224c22 0 43 3 63 9l23 142c19 121 27 170 -68 170l1 7h359v-7c-66 0 -82 -38 -96 -129zM321 -224l-5 6c39 31 61 68 61 101c0 27 -16 46 -55 35c-4 29 21 44 45 44c25 0 50 -17 50 -53c0 -53 -51 -99 -96 -133z" />
    <glyph glyph-name="G.swsh" horiz-adv-x="768" 
d="M484 -39l5 34c-33 -42 -95 -61 -160 -61c-185 0 -279 147 -279 319c0 256 209 507 497 507c123 0 229 -51 229 -152c0 -78 -65 -128 -123 -128c-50 0 -105 41 -90 101c39 9 69 33 69 83c0 55 -36 87 -85 87c-166 0 -289 -342 -289 -562c0 -53 7 -239 109 -239
c37 0 102 26 125 66l19 126c18 121 27 170 -68 170l1 7h359v-7c-66 0 -83 -38 -96 -129l-22 -151c-26 -176 -231 -349 -428 -349c-338 0 -674 177 -817 177c-61 0 -84 -29 -84 -57c0 -25 17 -47 53 -47c24 0 54 24 43 53c137 14 140 -192 -8 -192c-77 0 -118 55 -118 120
c0 98 92 220 293 220c347 0 661 -238 764 -238c75 0 90 188 101 242z" />
    <glyph glyph-name="Hcircumflex" unicode="&#x124;" horiz-adv-x="1190" 
d="M880 150l30 200h-221l-22 -144c-40 -255 -310 -296 -444 -296c-102 0 -223 68 -223 199c0 117 102 190 203 190c96 0 200 -57 200 -158c0 -67 -51 -123 -130 -123c-57 0 -106 46 -88 107c48 1 86 41 86 94c0 52 -46 72 -83 72c-71 0 -147 -75 -147 -180
c0 -113 85 -191 187 -191c125 0 210 87 236 260l52 341c20 132 166 160 245 164v1c-125 0 -234 98 -358 98c-62 0 -106 -25 -106 -78c0 -47 35 -63 66 -63c27 0 55 13 76 40c117 -53 41 -200 -76 -200c-74 0 -148 56 -148 144c0 93 77 166 185 166c127 0 248 -100 367 -100
c22 0 32 13 32 25c0 16 -17 32 -45 15c-23 43 10 78 46 78c25 0 54 -17 54 -49c0 -73 -105 -34 -133 -212l-30 -190h221l8 52c37 244 300 432 437 432c60 0 88 -34 88 -75c0 -65 -57 -101 -104 -101c-22 0 -42 11 -52 38c21 9 31 31 31 52c0 27 -17 53 -50 53
c-73 0 -107 -138 -118 -205l-68 -426c-19 -117 -28 -173 77 -173l-1 -7h-379l1 7c66 0 81 36 98 143zM907 926l135 -120l-6 -5l-138 67l-160 -67l-4 5z" />
    <glyph glyph-name="Hbar" unicode="&#x126;" horiz-adv-x="975" 
d="M665 150l30 200h-221l-31 -200c-17 -107 -14 -143 52 -143l-1 -7h-379l1 7c105 0 115 56 133 173l50 328h-72c-22 -15 -49 -25 -79 -25c-74 0 -148 56 -148 144c0 93 77 166 185 166c127 0 248 -100 367 -100c22 0 32 13 32 25c0 16 -17 32 -45 15c-23 43 10 78 46 78
c25 0 54 -17 54 -49c0 -73 -105 -34 -133 -212l-5 -32h234c83 190 290 326 407 326c60 0 88 -34 88 -75c0 -65 -57 -101 -104 -101c-22 0 -42 11 -52 38c21 9 31 31 31 52c0 27 -17 53 -50 53c-73 0 -107 -138 -118 -205l-14 -88h95l-2 -10h-95l-52 -328
c-19 -117 -28 -173 77 -173l-1 -7h-379l1 7c66 0 81 36 98 143zM224 683c81 -37 69 -118 16 -165h60l1 3c20 132 166 160 245 164v1c-125 0 -234 98 -358 98c-62 0 -106 -25 -106 -78c0 -47 35 -63 66 -63c27 0 55 13 76 40zM705 412c5 33 14 65 27 96h-233l-23 -148h221z
" />
    <glyph glyph-name="H.alt" horiz-adv-x="850" 
d="M820 0h-379l1 7c66 0 81 36 98 143l31 200h-222l-31 -200c-17 -107 -14 -143 52 -143l-1 -7h-379l1 7c105 0 115 56 133 173l52 340c19 121 27 173 -77 173l1 7h379l-1 -7c-66 0 -80 -36 -97 -143l-30 -190h221l30 190c17 107 14 143 -52 143l1 7h379l-1 -7
c-105 0 -113 -52 -132 -173l-53 -340c-18 -117 -28 -173 77 -173z" />
    <glyph glyph-name="Hcircumflex.alt" horiz-adv-x="850" 
d="M820 0h-379l1 7c66 0 81 36 98 143l31 200h-222l-31 -200c-17 -107 -14 -143 52 -143l-1 -7h-379l1 7c105 0 115 56 133 173l52 340c19 121 27 173 -77 173l1 7h379l-1 -7c-66 0 -80 -36 -97 -143l-30 -190h221l30 190c17 107 14 143 -52 143l1 7h379l-1 -7
c-105 0 -113 -52 -132 -173l-53 -340c-18 -117 -28 -173 77 -173zM542 867l135 -120l-6 -5l-138 67l-160 -67l-4 5z" />
    <glyph glyph-name="Hbar.alt" horiz-adv-x="850" 
d="M-10 0l1 7c105 0 115 56 133 173l50 328h-103l2 10h103v2c19 121 27 173 -77 173l1 7h379l-1 -7c-66 0 -80 -36 -97 -143l-5 -32h221l5 32c17 107 14 143 -52 143l1 7h379l-1 -7c-105 0 -113 -52 -132 -173v-2h96l-2 -10h-96l-51 -328c-18 -117 -28 -173 77 -173l-1 -7
h-379l1 7c66 0 81 36 98 143l31 200h-222l-31 -200c-17 -107 -14 -143 52 -143l-1 -7h-379zM374 508l-23 -148h221l23 148h-221z" />
    <glyph glyph-name="H.calt" horiz-adv-x="975" 
d="M665 150l30 200h-221l-31 -200c-17 -107 -14 -143 52 -143l-1 -7h-379l1 7c105 0 115 56 133 173l52 341c20 132 166 160 245 164v1c-125 0 -234 98 -358 98c-62 0 -106 -25 -106 -78c0 -47 35 -63 66 -63c27 0 55 13 76 40c117 -53 41 -200 -76 -200
c-74 0 -148 56 -148 144c0 93 77 166 185 166c127 0 248 -100 367 -100c22 0 32 13 32 25c0 16 -17 32 -45 15c-23 43 10 78 46 78c25 0 54 -17 54 -49c0 -73 -105 -34 -133 -212l-30 -190h221l8 52c28 183 167 322 329 384l2 -6c-70 -26 -90 -127 -99 -184l-68 -426
c-19 -117 -28 -173 77 -173l-1 -7h-379l1 7c66 0 81 36 98 143z" />
    <glyph glyph-name="Hcircumflex.calt" horiz-adv-x="975" 
d="M665 150l30 200h-221l-31 -200c-17 -107 -14 -143 52 -143l-1 -7h-379l1 7c105 0 115 56 133 173l52 341c20 132 166 160 245 164v1c-125 0 -234 98 -358 98c-62 0 -106 -25 -106 -78c0 -47 35 -63 66 -63c27 0 55 13 76 40c117 -53 41 -200 -76 -200
c-74 0 -148 56 -148 144c0 93 77 166 185 166c127 0 248 -100 367 -100c22 0 32 13 32 25c0 16 -17 32 -45 15c-23 43 10 78 46 78c25 0 54 -17 54 -49c0 -73 -105 -34 -133 -212l-30 -190h221l8 52c28 183 167 322 329 384l2 -6c-70 -26 -90 -127 -99 -184l-68 -426
c-19 -117 -28 -173 77 -173l-1 -7h-379l1 7c66 0 81 36 98 143zM699 935l135 -120l-6 -5l-138 67l-160 -67l-4 5z" />
    <glyph glyph-name="Hbar.calt" horiz-adv-x="975" 
d="M665 150l30 200h-221l-31 -200c-17 -107 -14 -143 52 -143l-1 -7h-379l1 7c105 0 115 56 133 173l50 328h-72c-22 -15 -49 -25 -79 -25c-74 0 -148 56 -148 144c0 93 77 166 185 166c127 0 248 -100 367 -100c22 0 32 13 32 25c0 16 -17 32 -45 15c-23 43 10 78 46 78
c25 0 54 -17 54 -49c0 -73 -105 -34 -133 -212l-5 -32h234c55 130 170 228 299 278l2 -6c-70 -26 -90 -127 -99 -184l-14 -88h95l-2 -10h-95l-52 -328c-19 -117 -28 -173 77 -173l-1 -7h-379l1 7c66 0 81 36 98 143zM224 683c81 -37 69 -118 16 -165h60l1 3
c20 132 166 160 245 164v1c-125 0 -234 98 -358 98c-62 0 -106 -25 -106 -78c0 -47 35 -63 66 -63c27 0 55 13 76 40zM705 412c5 33 14 65 26 96h-232l-23 -148h221z" />
    <glyph glyph-name="H.titl" horiz-adv-x="975" 
d="M665 150l30 200h-221l-31 -200c-17 -107 -14 -143 52 -143l-1 -7h-379l1 7c105 0 115 56 133 173l52 341c20 132 166 160 245 164v1c-125 0 -234 98 -358 98c-62 0 -106 -25 -106 -78c0 -47 35 -63 66 -63c27 0 55 13 76 40c117 -53 41 -200 -76 -200
c-74 0 -148 56 -148 144c0 93 77 166 185 166c127 0 248 -100 367 -100c22 0 32 13 32 25c0 16 -17 32 -45 15c-23 43 10 78 46 78c25 0 54 -17 54 -49c0 -73 -105 -34 -133 -212l-30 -190h221l8 52c37 244 300 432 437 432c60 0 88 -34 88 -75c0 -65 -57 -101 -104 -101
c-22 0 -42 11 -52 38c21 9 31 31 31 52c0 27 -17 53 -50 53c-73 0 -107 -138 -118 -205l-68 -426c-19 -117 -28 -173 77 -173l-1 -7h-379l1 7c66 0 81 36 98 143z" />
    <glyph glyph-name="Igrave" unicode="&#xcc;" horiz-adv-x="554" 
d="M506 550l-63 -400c-17 -107 -1 -143 82 -143l-1 -7h-409l1 7c105 0 115 56 133 173l52 341c20 132 166 160 245 164v1c-125 0 -234 98 -358 98c-62 0 -106 -25 -106 -78c0 -47 35 -63 66 -63c27 0 55 13 76 40c117 -53 41 -200 -76 -200c-74 0 -148 56 -148 144
c0 93 77 166 185 166c127 0 248 -100 367 -100c22 0 32 13 32 25c0 16 -17 32 -45 15c-23 43 10 78 46 78c25 0 54 -17 54 -49c0 -73 -105 -34 -133 -212zM470 822l-4 -6l-215 98c0 16 14 30 32 30c29 0 94 -59 187 -122z" />
    <glyph glyph-name="Iacute" unicode="&#xcd;" horiz-adv-x="554" 
d="M506 550l-63 -400c-17 -107 -1 -143 82 -143l-1 -7h-409l1 7c105 0 115 56 133 173l52 341c20 132 166 160 245 164v1c-125 0 -234 98 -358 98c-62 0 -106 -25 -106 -78c0 -47 35 -63 66 -63c27 0 55 13 76 40c117 -53 41 -200 -76 -200c-74 0 -148 56 -148 144
c0 93 77 166 185 166c127 0 248 -100 367 -100c22 0 32 13 32 25c0 16 -17 32 -45 15c-23 43 10 78 46 78c25 0 54 -17 54 -49c0 -73 -105 -34 -133 -212zM424 816l-3 6c114 63 197 122 226 122c14 0 23 -10 23 -24z" />
    <glyph glyph-name="Icircumflex" unicode="&#xce;" horiz-adv-x="554" 
d="M468 927l133 -118c20 -6 38 -22 38 -47c0 -73 -105 -34 -133 -212l-63 -400c-17 -107 -1 -143 82 -143l-1 -7h-409l1 7c105 0 115 56 133 173l52 341c20 132 166 160 245 164v1c-125 0 -234 98 -358 98c-62 0 -106 -25 -106 -78c0 -47 35 -63 66 -63c27 0 55 13 76 40
c117 -53 41 -200 -76 -200c-74 0 -148 56 -148 144c0 93 77 166 185 166c127 0 248 -100 367 -100c22 0 32 13 32 25c0 16 -17 32 -45 15c-22 40 6 74 40 77l-120 59l-160 -67l-4 5z" />
    <glyph glyph-name="Itilde" unicode="&#x128;" horiz-adv-x="554" 
d="M506 550l-63 -400c-17 -107 -1 -143 82 -143l-1 -7h-409l1 7c105 0 115 56 133 173l52 341c20 132 166 160 245 164v1c-125 0 -234 98 -358 98c-62 0 -106 -25 -106 -78c0 -47 35 -63 66 -63c27 0 55 13 76 40c117 -53 41 -200 -76 -200c-74 0 -148 56 -148 144
c0 93 77 166 185 166c127 0 248 -100 367 -100c22 0 32 13 32 25c0 16 -17 32 -45 15c-23 43 10 78 46 78c25 0 54 -17 54 -49c0 -73 -105 -34 -133 -212zM266 834l-8 3c37 60 62 82 101 82c78 0 115 -87 191 -87c32 0 54 16 86 67l8 -3c-38 -62 -64 -74 -94 -74
c-81 0 -118 87 -194 87c-29 0 -52 -13 -90 -75z" />
    <glyph glyph-name="Idieresis" unicode="&#xcf;" horiz-adv-x="554" 
d="M506 550l-63 -400c-17 -107 -1 -143 82 -143l-1 -7h-409l1 7c105 0 115 56 133 173l52 341c20 132 166 160 245 164v1c-125 0 -234 98 -358 98c-62 0 -106 -25 -106 -78c0 -47 35 -63 66 -63c27 0 55 13 76 40c117 -53 41 -200 -76 -200c-74 0 -148 56 -148 144
c0 93 77 166 185 166c127 0 248 -100 367 -100c22 0 32 13 32 25c0 16 -17 32 -45 15c-23 43 10 78 46 78c25 0 54 -17 54 -49c0 -73 -105 -34 -133 -212zM368 921c26 0 44 -21 44 -46c0 -34 -29 -61 -61 -61c-25 0 -44 20 -44 47c0 32 30 60 61 60zM566 921
c26 0 44 -21 44 -46c0 -34 -29 -61 -61 -61c-25 0 -44 20 -44 47c0 32 30 60 61 60z" />
    <glyph glyph-name="Imacron" unicode="&#x12a;" horiz-adv-x="554" 
d="M506 550l-63 -400c-17 -107 -1 -143 82 -143l-1 -7h-409l1 7c105 0 115 56 133 173l52 341c20 132 166 160 245 164v1c-125 0 -234 98 -358 98c-62 0 -106 -25 -106 -78c0 -47 35 -63 66 -63c27 0 55 13 76 40c117 -53 41 -200 -76 -200c-74 0 -148 56 -148 144
c0 93 77 166 185 166c127 0 248 -100 367 -100c22 0 32 13 32 25c0 16 -17 32 -45 15c-23 43 10 78 46 78c25 0 54 -17 54 -49c0 -73 -105 -34 -133 -212zM611 855l-2 -10h-318l2 10h318z" />
    <glyph glyph-name="Ibreve" unicode="&#x12c;" horiz-adv-x="554" 
d="M506 550l-63 -400c-17 -107 -1 -143 82 -143l-1 -7h-409l1 7c105 0 115 56 133 173l52 341c20 132 166 160 245 164v1c-125 0 -234 98 -358 98c-62 0 -106 -25 -106 -78c0 -47 35 -63 66 -63c27 0 55 13 76 40c117 -53 41 -200 -76 -200c-74 0 -148 56 -148 144
c0 93 77 166 185 166c127 0 248 -100 367 -100c22 0 32 13 32 25c0 16 -17 32 -45 15c-23 43 10 78 46 78c25 0 54 -17 54 -49c0 -73 -105 -34 -133 -212zM610 906l8 -2c-15 -41 -84 -92 -169 -92s-136 51 -139 92l8 2c7 -39 56 -64 136 -64s137 25 156 64z" />
    <glyph glyph-name="Idotaccent" unicode="&#x130;" horiz-adv-x="554" 
d="M506 550l-63 -400c-17 -107 -1 -143 82 -143l-1 -7h-409l1 7c105 0 115 56 133 173l52 341c20 132 166 160 245 164v1c-125 0 -234 98 -358 98c-62 0 -106 -25 -106 -78c0 -47 35 -63 66 -63c27 0 55 13 76 40c117 -53 41 -200 -76 -200c-74 0 -148 56 -148 144
c0 93 77 166 185 166c127 0 248 -100 367 -100c22 0 32 13 32 25c0 16 -17 32 -45 15c-23 43 10 78 46 78c25 0 54 -17 54 -49c0 -73 -105 -34 -133 -212zM465 922c26 0 45 -21 45 -46c0 -34 -29 -61 -62 -61c-25 0 -44 20 -44 47c0 32 31 60 61 60z" />
    <glyph glyph-name="Iogonek" unicode="&#x12e;" horiz-adv-x="554" 
d="M479 -182c-50 3 -67 23 -67 49c0 44 52 103 76 133h-373l1 7c105 0 115 56 133 173l52 341c20 132 166 160 245 164v1c-125 0 -234 98 -358 98c-62 0 -106 -25 -106 -78c0 -47 35 -63 66 -63c27 0 55 13 76 40c117 -53 41 -200 -76 -200c-74 0 -148 56 -148 144
c0 93 77 166 185 166c127 0 248 -100 367 -100c22 0 32 13 32 25c0 16 -17 32 -45 15c-23 43 10 78 46 78c25 0 54 -17 54 -49c0 -73 -105 -34 -133 -212l-63 -400c-17 -107 -1 -143 82 -143l-1 -7h-30c-23 -29 -73 -90 -73 -130c0 -22 16 -39 60 -42z" />
    <glyph glyph-name="I.alt" horiz-adv-x="429" 
d="M399 0h-409l1 7c105 0 115 56 133 173l52 340c19 121 27 173 -77 173l1 7h409l-1 -7c-105 0 -113 -52 -132 -173l-53 -340c-18 -117 -28 -173 77 -173z" />
    <glyph glyph-name="Igrave.alt" horiz-adv-x="429" 
d="M399 0h-409l1 7c105 0 115 56 133 173l52 340c19 121 27 173 -77 173l1 7h409l-1 -7c-105 0 -113 -52 -132 -173l-53 -340c-18 -117 -28 -173 77 -173zM336 762l-4 -6l-215 98c0 16 14 30 32 30c29 0 94 -59 187 -122z" />
    <glyph glyph-name="Iacute.alt" horiz-adv-x="429" 
d="M399 0h-409l1 7c105 0 115 56 133 173l52 340c19 121 27 173 -77 173l1 7h409l-1 -7c-105 0 -113 -52 -132 -173l-53 -340c-18 -117 -28 -173 77 -173zM290 756l-3 6c114 63 197 122 226 122c14 0 23 -10 23 -24z" />
    <glyph glyph-name="Icircumflex.alt" horiz-adv-x="429" 
d="M399 0h-409l1 7c105 0 115 56 133 173l52 340c19 121 27 173 -77 173l1 7h409l-1 -7c-105 0 -113 -52 -132 -173l-53 -340c-18 -117 -28 -173 77 -173zM334 867l135 -120l-6 -5l-138 67l-160 -67l-4 5z" />
    <glyph glyph-name="Itilde.alt" horiz-adv-x="429" 
d="M399 0h-409l1 7c105 0 115 56 133 173l52 340c19 121 27 173 -77 173l1 7h409l-1 -7c-105 0 -113 -52 -132 -173l-53 -340c-18 -117 -28 -173 77 -173zM132 774l-8 3c37 60 62 82 101 82c78 0 115 -87 191 -87c32 0 54 16 86 67l8 -3c-38 -62 -64 -74 -94 -74
c-81 0 -118 87 -194 87c-29 0 -52 -13 -90 -75z" />
    <glyph glyph-name="Idieresis.alt" horiz-adv-x="429" 
d="M399 0h-409l1 7c105 0 115 56 133 173l52 340c19 121 27 173 -77 173l1 7h409l-1 -7c-105 0 -113 -52 -132 -173l-53 -340c-18 -117 -28 -173 77 -173zM234 861c26 0 44 -21 44 -46c0 -34 -29 -61 -61 -61c-25 0 -44 20 -44 47c0 32 30 60 61 60zM432 861
c26 0 44 -21 44 -46c0 -34 -29 -61 -61 -61c-25 0 -44 20 -44 47c0 32 30 60 61 60z" />
    <glyph glyph-name="Imacron.alt" horiz-adv-x="429" 
d="M399 0h-409l1 7c105 0 115 56 133 173l52 340c19 121 27 173 -77 173l1 7h409l-1 -7c-105 0 -113 -52 -132 -173l-53 -340c-18 -117 -28 -173 77 -173zM477 795l-2 -10h-318l2 10h318z" />
    <glyph glyph-name="Ibreve.alt" horiz-adv-x="429" 
d="M399 0h-409l1 7c105 0 115 56 133 173l52 340c19 121 27 173 -77 173l1 7h409l-1 -7c-105 0 -113 -52 -132 -173l-53 -340c-18 -117 -28 -173 77 -173zM476 846l8 -2c-15 -41 -84 -92 -169 -92s-136 51 -139 92l8 2c7 -39 56 -64 136 -64s137 25 156 64z" />
    <glyph glyph-name="Idotaccent.alt" horiz-adv-x="429" 
d="M399 0h-409l1 7c105 0 115 56 133 173l52 340c19 121 27 173 -77 173l1 7h409l-1 -7c-105 0 -113 -52 -132 -173l-53 -340c-18 -117 -28 -173 77 -173zM331 862c26 0 45 -21 45 -46c0 -34 -29 -61 -62 -61c-25 0 -44 20 -44 47c0 32 31 60 61 60z" />
    <glyph glyph-name="Iogonek.alt" horiz-adv-x="429" 
d="M384 -182c-50 3 -67 23 -67 49c0 44 52 103 76 133h-403l1 7c105 0 115 56 133 173l52 340c19 121 27 173 -77 173l1 7h409l-1 -7c-105 0 -113 -52 -132 -173l-53 -340c-18 -117 -28 -173 77 -173l-1 -7c-23 -29 -73 -90 -73 -130c0 -22 16 -39 60 -42z" />
    <glyph glyph-name="IJ" unicode="&#x132;" horiz-adv-x="1190" 
d="M1142 550l-54 -344c-40 -255 -310 -296 -444 -296c-69 0 -145 31 -189 90h-340l1 7c105 0 115 56 133 173l52 341c20 132 166 160 245 164v1c-125 0 -234 98 -358 98c-62 0 -106 -25 -106 -78c0 -47 35 -63 66 -63c27 0 55 13 76 40c117 -53 41 -200 -76 -200
c-74 0 -148 56 -148 144c0 93 77 166 185 166c127 0 248 -100 367 -100c22 0 32 13 32 25c0 16 -17 32 -45 15c-23 43 10 78 46 78c25 0 54 -17 54 -49c0 -73 -105 -34 -133 -212l-53 -338c38 55 104 87 171 87c96 0 200 -57 200 -158c0 -67 -51 -123 -130 -123
c-57 0 -106 46 -88 107c48 1 86 41 86 94c0 52 -46 72 -83 72c-71 0 -147 -75 -147 -180c0 -113 85 -191 187 -191c125 0 210 87 236 260l52 341c20 132 166 160 245 164v1c-125 0 -234 98 -358 98c-62 0 -106 -25 -106 -78c0 -47 35 -63 66 -63c27 0 55 13 76 40
c117 -53 41 -200 -76 -200c-74 0 -148 56 -148 144c0 93 77 166 185 166c127 0 248 -100 367 -100c22 0 32 13 32 25c0 16 -17 32 -45 15c-23 43 10 78 46 78c25 0 54 -17 54 -49c0 -73 -105 -34 -133 -212z" />
    <glyph glyph-name="IJ.alt" horiz-adv-x="1042" 
d="M399 0h-409l1 7c105 0 115 56 133 173l52 340c19 121 27 173 -77 173l1 7h409l-1 -7c-105 0 -113 -52 -132 -173l-53 -340c-18 -117 -28 -173 77 -173zM727 123l62 398c21 134 25 172 -107 172l1 7h439l-1 -7c-105 0 -115 -56 -133 -173l-41 -261
c-26 -164 -114 -266 -305 -266c-77 0 -213 22 -213 140c0 89 62 129 118 129c49 0 88 -31 81 -96c-26 -13 -50 -39 -50 -87c0 -45 24 -78 65 -78c61 0 75 67 84 122z" />
    <glyph glyph-name="Jcircumflex" unicode="&#x134;" horiz-adv-x="769" 
d="M683 927l133 -118c20 -6 38 -22 38 -47c0 -73 -105 -34 -133 -212l-54 -344c-40 -255 -310 -296 -444 -296c-102 0 -223 68 -223 199c0 117 102 190 203 190c96 0 200 -57 200 -158c0 -67 -51 -123 -130 -123c-57 0 -106 46 -88 107c48 1 86 41 86 94c0 52 -46 72 -83 72
c-71 0 -147 -75 -147 -180c0 -113 85 -191 187 -191c125 0 210 87 236 260l52 341c20 132 166 160 245 164v1c-125 0 -234 98 -358 98c-62 0 -106 -25 -106 -78c0 -47 35 -63 66 -63c27 0 55 13 76 40c117 -53 41 -200 -76 -200c-74 0 -148 56 -148 144c0 93 77 166 185 166
c127 0 248 -100 367 -100c22 0 32 13 32 25c0 16 -17 32 -45 15c-22 40 6 74 40 77l-120 59l-160 -67l-4 5z" />
    <glyph glyph-name="J.alt" horiz-adv-x="643" 
d="M328 123l62 398c21 134 25 172 -107 172l1 7h439l-1 -7c-105 0 -115 -56 -133 -173l-41 -261c-26 -164 -114 -266 -305 -266c-77 0 -213 22 -213 140c0 89 62 129 118 129c49 0 88 -31 81 -96c-26 -13 -50 -39 -50 -87c0 -45 24 -78 65 -78c61 0 75 67 84 122z" />
    <glyph glyph-name="Jcircumflex.alt" horiz-adv-x="643" 
d="M328 123l62 398c21 134 25 172 -107 172l1 7h439l-1 -7c-105 0 -115 -56 -133 -173l-41 -261c-26 -164 -114 -266 -305 -266c-77 0 -213 22 -213 140c0 89 62 129 118 129c49 0 88 -31 81 -96c-26 -13 -50 -39 -50 -87c0 -45 24 -78 65 -78c61 0 75 67 84 122zM546 867
l135 -120l-6 -5l-138 67l-160 -67l-4 5z" />
    <glyph glyph-name="Kcommaaccent" unicode="&#x136;" horiz-adv-x="1098" 
d="M721 550l-30 -187l102 98c95 94 233 232 115 232l1 7h284l-1 -7c-124 0 -284 -132 -394 -239l-79 -75c178 37 235 18 308 -196c42 -124 80 -228 137 -242l-3 -3c-174 -36 -308 38 -343 217c-21 107 -48 208 -102 221l-27 -26l-22 -144c-40 -255 -310 -296 -444 -296
c-102 0 -223 68 -223 199c0 117 102 190 203 190c96 0 200 -57 200 -158c0 -67 -51 -123 -130 -123c-57 0 -106 46 -88 107c48 1 86 41 86 94c0 52 -46 72 -83 72c-71 0 -147 -75 -147 -180c0 -113 85 -191 187 -191c125 0 210 87 236 260l52 341c20 132 166 160 245 164v1
c-125 0 -234 98 -358 98c-62 0 -106 -25 -106 -78c0 -47 35 -63 66 -63c27 0 55 13 76 40c117 -53 41 -200 -76 -200c-74 0 -148 56 -148 144c0 93 77 166 185 166c127 0 248 -100 367 -100c22 0 32 13 32 25c0 16 -17 32 -45 15c-23 43 10 78 46 78c25 0 54 -17 54 -49
c0 -73 -105 -34 -133 -212zM644 -224l-5 6c39 31 61 68 61 101c0 27 -16 46 -55 35c-4 29 21 44 45 44c25 0 50 -17 50 -53c0 -53 -51 -99 -96 -133z" />
    <glyph glyph-name="K.alt" horiz-adv-x="826" 
d="M473 454l-94 -91c255 117 284 -78 322 -198c44 -136 54 -169 118 -158l-1 -7c-59 -9 -120 -19 -165 -19c-246 0 -149 374 -263 374c-8 0 -17 -2 -26 -7l-25 -168c-18 -119 -28 -173 58 -173l-1 -7h-391l1 7c105 0 115 56 133 173l52 340c19 121 27 173 -77 173l1 7h390
l-1 -7c-85 0 -95 -54 -113 -173l-25 -159l102 100c95 94 233 232 115 232l1 7h284l-1 -7c-124 0 -284 -132 -394 -239z" />
    <glyph glyph-name="Kcommaaccent.alt" horiz-adv-x="826" 
d="M473 454l-94 -91c255 117 284 -78 322 -198c44 -136 54 -169 118 -158l-1 -7c-59 -9 -120 -19 -165 -19c-246 0 -149 374 -263 374c-8 0 -17 -2 -26 -7l-25 -168c-18 -119 -28 -173 58 -173l-1 -7h-391l1 7c105 0 115 56 133 173l52 340c19 121 27 173 -77 173l1 7h390
l-1 -7c-85 0 -95 -54 -113 -173l-25 -159l102 100c95 94 233 232 115 232l1 7h284l-1 -7c-124 0 -284 -132 -394 -239zM367 -224l-5 6c39 31 61 68 61 101c0 27 -16 46 -55 35c-4 29 21 44 45 44c25 0 50 -17 50 -53c0 -53 -51 -99 -96 -133z" />
    <glyph glyph-name="K.swsh" horiz-adv-x="883" 
d="M506 550l-30 -187l102 98c95 94 233 232 115 232l1 7h284l-1 -7c-124 0 -284 -132 -394 -239l-68 -65c150 18 220 -53 293 -213c52 -114 106 -293 195 -390c55 21 107 39 161 39c52 0 105 -18 105 -48c0 -23 -31 -66 -157 -66c-71 0 -132 14 -186 37
c-91 -35 -197 -70 -328 -70c-247 0 -500 128 -681 128c-43 0 -72 -11 -99 -43l-5 3c74 146 197 193 294 193c219 0 371 -231 659 -231c54 0 102 11 148 26c-177 83 -261 267 -304 380c-35 90 -55 245 -100 250l-36 -34l-31 -200c-17 -107 -14 -143 52 -143l-1 -7h-379l1 7
c105 0 115 56 133 173l52 341c20 132 166 160 245 164v1c-125 0 -234 98 -358 98c-62 0 -106 -25 -106 -78c0 -47 35 -63 66 -63c27 0 55 13 76 40c117 -53 41 -200 -76 -200c-74 0 -148 56 -148 144c0 93 77 166 185 166c127 0 248 -100 367 -100c22 0 32 13 32 25
c0 16 -17 32 -45 15c-23 43 10 78 46 78c25 0 54 -17 54 -49c0 -73 -105 -34 -133 -212zM1137 -280c45 0 122 20 122 55c0 27 -48 42 -94 42c-49 0 -100 -16 -156 -37c36 -37 78 -60 128 -60z" />
    <glyph glyph-name="K.titl" horiz-adv-x="883" 
d="M506 550l-30 -187l102 98c95 94 233 232 115 232l1 7h284l-1 -7c-124 0 -284 -132 -394 -239l-79 -75c178 37 235 18 308 -196c42 -124 80 -228 137 -242l-3 -3c-174 -36 -308 38 -343 217c-21 107 -48 208 -102 221l-27 -26l-31 -200c-17 -107 -14 -143 52 -143l-1 -7
h-379l1 7c105 0 115 56 133 173l52 341c20 132 166 160 245 164v1c-125 0 -234 98 -358 98c-62 0 -106 -25 -106 -78c0 -47 35 -63 66 -63c27 0 55 13 76 40c117 -53 41 -200 -76 -200c-74 0 -148 56 -148 144c0 93 77 166 185 166c127 0 248 -100 367 -100
c22 0 32 13 32 25c0 16 -17 32 -45 15c-23 43 10 78 46 78c25 0 54 -17 54 -49c0 -73 -105 -34 -133 -212z" />
    <glyph glyph-name="K.hist" horiz-adv-x="863" 
d="M506 550l-30 -187l102 98c95 94 233 232 115 232l1 7h284l-1 -7c-124 0 -284 -132 -394 -239l-68 -65c150 18 220 -53 293 -213c74 -161 155 -456 314 -456c47 0 74 35 74 69c0 25 -15 50 -49 57c13 63 63 99 112 99c40 0 94 -24 94 -93c0 -110 -140 -141 -243 -141
c-312 0 -442 272 -500 423c-35 90 -55 245 -100 250l-36 -34l-31 -200c-17 -107 -14 -143 52 -143l-1 -7h-379l1 7c105 0 115 56 133 173l52 341c20 132 166 160 245 164v1c-125 0 -234 98 -358 98c-62 0 -106 -25 -106 -78c0 -47 35 -63 66 -63c27 0 55 13 76 40
c117 -53 41 -200 -76 -200c-74 0 -148 56 -148 144c0 93 77 166 185 166c127 0 248 -100 367 -100c22 0 32 13 32 25c0 16 -17 32 -45 15c-23 43 10 78 46 78c25 0 54 -17 54 -49c0 -73 -105 -34 -133 -212z" />
    <glyph glyph-name="Lacute" unicode="&#x139;" horiz-adv-x="670" 
d="M210 370c32 194 210 418 428 418c82 0 122 -50 122 -105c0 -71 -67 -132 -140 -132c-46 0 -87 32 -74 84c40 -1 62 36 62 69c0 27 -24 56 -66 56c-88 0 -112 -129 -123 -196l-53 -336c-35 -217 -242 -232 -343 -394l1 -1c90 109 175 148 262 148c206 0 468 -181 640 -181
c43 0 80 12 110 40l4 -2c-74 -146 -163 -195 -260 -195c-203 0 -444 214 -683 214c-35 0 -58 -5 -90 -52l-7 4c73 126 145 151 172 321zM504 816l-3 6c114 63 197 122 226 122c14 0 23 -10 23 -24z" />
    <glyph glyph-name="Lcaron" unicode="&#x13d;" horiz-adv-x="768" 
d="M210 370c32 194 210 418 428 418c82 0 122 -50 122 -105c0 -71 -67 -132 -140 -132c-46 0 -87 32 -74 84c40 -1 62 36 62 69c0 27 -24 56 -66 56c-88 0 -112 -129 -123 -196l-53 -336c-35 -217 -242 -232 -343 -394l1 -1c90 109 175 148 262 148c206 0 468 -181 640 -181
c43 0 80 12 110 40l4 -2c-74 -146 -163 -195 -260 -195c-203 0 -444 214 -683 214c-35 0 -58 -5 -90 -52l-7 4c73 126 145 151 172 321zM805 444l-4 4c70 60 56 140 -18 172c-7 56 45 102 87 102c40 0 68 -30 68 -76c0 -58 -57 -149 -133 -202z" />
    <glyph glyph-name="Lcommaaccent" unicode="&#x13b;" horiz-adv-x="670" 
d="M210 370c32 194 210 418 428 418c82 0 122 -50 122 -105c0 -71 -67 -132 -140 -132c-46 0 -87 32 -74 84c40 -1 62 36 62 69c0 27 -24 56 -66 56c-88 0 -112 -129 -123 -196l-53 -336c-35 -217 -242 -232 -343 -394l1 -1c90 109 175 148 262 148c206 0 468 -181 640 -181
c43 0 80 12 110 40l4 -2c-74 -146 -163 -195 -260 -195c-203 0 -444 214 -683 214c-35 0 -58 -5 -90 -52l-7 4c73 126 145 151 172 321zM270 -479l-5 6c39 31 61 68 61 101c0 27 -16 46 -55 35c-4 29 21 44 45 44c25 0 50 -17 50 -53c0 -53 -51 -99 -96 -133z" />
    <glyph glyph-name="Ldot" unicode="&#x13f;" horiz-adv-x="670" 
d="M210 370c32 194 210 418 428 418c82 0 122 -50 122 -105c0 -71 -67 -132 -140 -132c-46 0 -87 32 -74 84c40 -1 62 36 62 69c0 27 -24 56 -66 56c-88 0 -112 -129 -123 -196l-53 -336c-35 -217 -242 -232 -343 -394l1 -1c90 109 175 148 262 148c206 0 468 -181 640 -181
c43 0 80 12 110 40l4 -2c-74 -146 -163 -195 -260 -195c-203 0 -444 214 -683 214c-35 0 -58 -5 -90 -52l-7 4c73 126 145 151 172 321zM560 354c26 0 44 -21 44 -46c0 -34 -29 -61 -61 -61c-25 0 -44 20 -44 47c0 32 30 60 61 60z" />
    <glyph glyph-name="Lslash" unicode="&#x141;" horiz-adv-x="670" 
d="M528 413l-141 -50l-21 -135c-35 -217 -242 -232 -343 -394l1 -1c90 109 175 148 262 148c206 0 468 -181 640 -181c43 0 80 12 110 40l4 -2c-74 -146 -163 -195 -260 -195c-203 0 -444 214 -683 214c-35 0 -58 -5 -90 -52l-7 4c73 126 145 151 172 321l26 167l-130 -46
l-3 10l135 47l10 62c32 194 210 418 428 418c82 0 122 -50 122 -105c0 -71 -67 -132 -140 -132c-46 0 -87 32 -74 84c40 -1 62 36 62 69c0 27 -24 56 -66 56c-88 0 -112 -129 -123 -196l-30 -189l137 48z" />
    <glyph glyph-name="L.alt" horiz-adv-x="717" 
d="M539 700l-1 -7c-132 0 -141 -39 -162 -173l-61 -389c-16 -99 -14 -123 58 -123c171 0 287 134 352 306h7l-111 -314h-631l1 7c105 0 115 56 133 173l52 340c19 121 27 173 -77 173l1 7h439z" />
    <glyph glyph-name="Lacute.alt" horiz-adv-x="717" 
d="M539 700l-1 -7c-132 0 -141 -39 -162 -173l-61 -389c-16 -99 -14 -123 58 -123c171 0 287 134 352 306h7l-111 -314h-631l1 7c105 0 115 56 133 173l52 340c19 121 27 173 -77 173l1 7h439zM285 756l-3 6c114 63 197 122 226 122c14 0 23 -10 23 -24z" />
    <glyph glyph-name="Lcaron.alt" horiz-adv-x="717" 
d="M539 700l-1 -7c-132 0 -141 -39 -162 -173l-61 -389c-16 -99 -14 -123 58 -123c171 0 287 134 352 306h7l-111 -314h-631l1 7c105 0 115 56 133 173l52 340c19 121 27 173 -77 173l1 7h439zM634 433l-4 4c70 60 56 140 -18 172c-7 56 45 102 87 102c40 0 68 -30 68 -76
c0 -58 -57 -149 -133 -202z" />
    <glyph glyph-name="Lcommaaccent.alt" horiz-adv-x="717" 
d="M539 700l-1 -7c-132 0 -141 -39 -162 -173l-61 -389c-16 -99 -14 -123 58 -123c171 0 287 134 352 306h7l-111 -314h-631l1 7c105 0 115 56 133 173l52 340c19 121 27 173 -77 173l1 7h439zM313 -224l-5 6c39 31 61 68 61 101c0 27 -16 46 -55 35c-4 29 21 44 45 44
c25 0 50 -17 50 -53c0 -53 -51 -99 -96 -133z" />
    <glyph glyph-name="Ldot.alt" horiz-adv-x="717" 
d="M539 700l-1 -7c-132 0 -141 -39 -162 -173l-61 -389c-16 -99 -14 -123 58 -123c171 0 287 134 352 306h7l-111 -314h-631l1 7c105 0 115 56 133 173l52 340c19 121 27 173 -77 173l1 7h439zM519 408c26 0 44 -21 44 -46c0 -34 -29 -61 -61 -61c-25 0 -44 20 -44 47
c0 32 30 60 61 60z" />
    <glyph glyph-name="Lslash.alt" horiz-adv-x="717" 
d="M539 700l-1 -7c-132 0 -141 -39 -162 -173l-23 -145l136 48l2 -10l-140 -49l-36 -233c-16 -99 -14 -123 58 -123c171 0 287 134 352 306h7l-111 -314h-631l1 7c105 0 115 56 133 173l17 109l-110 -38l-3 10l115 40l33 219c19 121 27 173 -77 173l1 7h439z" />
    <glyph glyph-name="L.swsh" horiz-adv-x="690" 
d="M217 412c32 194 210 418 428 418c82 0 122 -50 122 -105c0 -71 -67 -132 -140 -132c-46 0 -87 32 -74 84c40 -1 62 36 62 69c0 27 -24 56 -66 56c-88 0 -112 -129 -123 -196l-60 -378c-35 -217 -242 -232 -343 -394l1 -1c90 109 175 148 262 148c206 0 614 -181 786 -181
c43 0 80 12 110 40l4 -2c-74 -146 -163 -195 -260 -195c-203 0 -590 214 -829 214c-35 0 -58 -5 -90 -52l-7 4c73 126 145 153 172 321z" />
    <glyph glyph-name="M.alt" horiz-adv-x="1033" 
d="M1003 0h-399l1 7c94 0 102 38 123 173l77 491l-380 -705l-164 689l-57 -358c-21 -131 -44 -290 106 -290l-1 -7h-319l1 7c154 0 183 167 205 309l35 221c18 111 6 156 -109 156l1 7h345l100 -447l241 447h304l-1 -7c-105 0 -113 -52 -132 -173l-53 -340
c-18 -117 -27 -173 77 -173z" />
    <glyph glyph-name="M.calt" horiz-adv-x="1104" 
d="M783 150l40 262c13 83 49 158 99 220c-113 -112 -229 -290 -314 -441l-1 -3l-111 -222l-163 689l-57 -358c-21 -131 -45 -290 105 -290l-1 -7h-319l1 7c154 0 183 167 206 309l64 397c47 -18 91 -27 144 -25c-104 16 -177 96 -288 96c-62 0 -106 -25 -106 -78
c0 -47 35 -63 66 -63c27 0 55 13 76 40c117 -53 41 -200 -76 -200c-74 0 -148 56 -148 144c0 93 77 166 185 166c127 0 215 -100 334 -100c22 0 32 13 32 25c0 16 -17 32 -45 15c-23 43 10 78 46 78c25 0 54 -17 54 -49c0 -50 -30 -68 -65 -74l96 -429
c105 177 243 372 365 452c45 36 96 64 150 85l2 -6c-70 -26 -90 -127 -99 -184l-68 -426c-19 -117 -28 -173 77 -173l-1 -7h-379l1 7c66 0 81 36 98 143z" />
    <glyph glyph-name="M.titl" horiz-adv-x="1104" 
d="M783 150l40 262c12 82 46 154 90 214c-109 -111 -220 -282 -302 -429l-115 -231l-163 689l-57 -358c-21 -131 -45 -290 105 -290l-1 -7h-319l1 7c154 0 183 167 206 309l64 397c47 -18 91 -27 144 -25c-104 16 -177 96 -288 96c-62 0 -106 -25 -106 -78
c0 -47 35 -63 66 -63c27 0 55 13 76 40c117 -53 41 -200 -76 -200c-74 0 -148 56 -148 144c0 93 77 166 185 166c127 0 215 -100 334 -100c22 0 32 13 32 25c0 16 -17 32 -45 15c-23 43 10 78 46 78c25 0 54 -17 54 -49c0 -50 -30 -68 -65 -74l96 -428
c94 159 214 334 327 425c100 103 227 159 296 159c60 0 88 -34 88 -75c0 -65 -57 -101 -104 -101c-22 0 -42 11 -52 38c21 9 31 31 31 52c0 27 -17 53 -50 53c-73 0 -107 -138 -118 -205l-68 -426c-19 -117 -28 -173 77 -173l-1 -7h-379l1 7c66 0 81 36 98 143z" />
    <glyph glyph-name="Nacute" unicode="&#x143;" horiz-adv-x="1227" 
d="M523 225l46 281c11 68 11 166 -22 198c55 -17 110 -18 170 -15c-104 16 -176 95 -287 95c-62 0 -106 -25 -106 -78c0 -47 35 -63 66 -63c27 0 55 13 76 40c117 -53 42 -200 -77 -200c-73 0 -147 56 -147 145c0 91 77 165 184 165c124 0 226 -100 325 -100
c36 0 42 13 42 24c0 18 -17 33 -45 16c-23 43 10 78 47 78c22 0 53 -13 53 -54c0 -42 -32 -62 -67 -69l290 -415l50 315c35 220 121 278 208 278c78 0 99 -56 99 -95c0 -67 -57 -103 -102 -103c-25 0 -44 11 -54 38c21 9 31 31 31 52c0 27 -17 53 -49 53
c-73 0 -108 -133 -119 -205l-100 -640l-441 625l-59 -364c-42 -261 -185 -317 -290 -317c-153 0 -245 86 -245 199c0 117 102 190 203 190c96 0 200 -57 200 -158c0 -67 -51 -123 -130 -123c-57 0 -106 46 -88 107c48 1 86 41 86 94c0 52 -46 72 -83 72
c-71 0 -147 -75 -147 -180c0 -89 53 -191 204 -191c150 0 246 110 278 305zM869 856l-3 6c114 63 197 122 226 122c14 0 23 -10 23 -24z" />
    <glyph glyph-name="Ncaron" unicode="&#x147;" horiz-adv-x="1227" 
d="M523 225l46 281c11 68 11 166 -22 198c55 -17 110 -18 170 -15c-104 16 -176 95 -287 95c-62 0 -106 -25 -106 -78c0 -47 35 -63 66 -63c27 0 55 13 76 40c117 -53 42 -200 -77 -200c-73 0 -147 56 -147 145c0 91 77 165 184 165c124 0 226 -100 325 -100
c36 0 42 13 42 24c0 18 -17 33 -45 16c-23 43 10 78 47 78c22 0 53 -13 53 -54c0 -42 -32 -62 -67 -69l290 -415l50 315c35 220 121 278 208 278c78 0 99 -56 99 -95c0 -67 -57 -103 -102 -103c-25 0 -44 11 -54 38c21 9 31 31 31 52c0 27 -17 53 -49 53
c-73 0 -108 -133 -119 -205l-100 -640l-441 625l-59 -364c-42 -261 -185 -317 -290 -317c-153 0 -245 86 -245 199c0 117 102 190 203 190c96 0 200 -57 200 -158c0 -67 -51 -123 -130 -123c-57 0 -106 46 -88 107c48 1 86 41 86 94c0 52 -46 72 -83 72
c-71 0 -147 -75 -147 -180c0 -89 53 -191 204 -191c150 0 246 110 278 305zM1066 970l-173 -120l-135 120l6 5l138 -67l160 67z" />
    <glyph glyph-name="Ntilde" unicode="&#xd1;" horiz-adv-x="1227" 
d="M523 225l46 281c11 68 11 166 -22 198c55 -17 110 -18 170 -15c-104 16 -176 95 -287 95c-62 0 -106 -25 -106 -78c0 -47 35 -63 66 -63c27 0 55 13 76 40c117 -53 42 -200 -77 -200c-73 0 -147 56 -147 145c0 91 77 165 184 165c124 0 226 -100 325 -100
c36 0 42 13 42 24c0 18 -17 33 -45 16c-23 43 10 78 47 78c22 0 53 -13 53 -54c0 -42 -32 -62 -67 -69l290 -415l50 315c35 220 121 278 208 278c78 0 99 -56 99 -95c0 -67 -57 -103 -102 -103c-25 0 -44 11 -54 38c21 9 31 31 31 52c0 27 -17 53 -49 53
c-73 0 -108 -133 -119 -205l-100 -640l-441 625l-59 -364c-42 -261 -185 -317 -290 -317c-153 0 -245 86 -245 199c0 117 102 190 203 190c96 0 200 -57 200 -158c0 -67 -51 -123 -130 -123c-57 0 -106 46 -88 107c48 1 86 41 86 94c0 52 -46 72 -83 72
c-71 0 -147 -75 -147 -180c0 -89 53 -191 204 -191c150 0 246 110 278 305zM711 874l-8 3c37 60 62 82 101 82c78 0 115 -87 191 -87c32 0 54 16 86 67l8 -3c-38 -62 -64 -74 -94 -74c-81 0 -118 87 -194 87c-29 0 -52 -13 -90 -75z" />
    <glyph glyph-name="Ncommaaccent" unicode="&#x145;" horiz-adv-x="1227" 
d="M523 225l46 281c11 68 11 166 -22 198c55 -17 110 -18 170 -15c-104 16 -176 95 -287 95c-62 0 -106 -25 -106 -78c0 -47 35 -63 66 -63c27 0 55 13 76 40c117 -53 42 -200 -77 -200c-73 0 -147 56 -147 145c0 91 77 165 184 165c124 0 226 -100 325 -100
c36 0 42 13 42 24c0 18 -17 33 -45 16c-23 43 10 78 47 78c22 0 53 -13 53 -54c0 -42 -32 -62 -67 -69l290 -415l50 315c35 220 121 278 208 278c78 0 99 -56 99 -95c0 -67 -57 -103 -102 -103c-25 0 -44 11 -54 38c21 9 31 31 31 52c0 27 -17 53 -49 53
c-73 0 -108 -133 -119 -205l-100 -640l-441 625l-59 -364c-42 -261 -185 -317 -290 -317c-153 0 -245 86 -245 199c0 117 102 190 203 190c96 0 200 -57 200 -158c0 -67 -51 -123 -130 -123c-57 0 -106 46 -88 107c48 1 86 41 86 94c0 52 -46 72 -83 72
c-71 0 -147 -75 -147 -180c0 -89 53 -191 204 -191c150 0 246 110 278 305zM673 -224l-5 6c39 31 61 68 61 101c0 27 -16 46 -55 35c-4 29 21 44 45 44c25 0 50 -17 50 -53c0 -53 -51 -99 -96 -133z" />
    <glyph glyph-name="Eng" unicode="&#x14a;" horiz-adv-x="985" 
d="M893 606l-100 -640c-15 -97 -51 -191 -165 -191c-78 0 -114 52 -114 104c0 54 41 109 116 109c49 0 88 -29 81 -92c-28 -9 -54 -32 -54 -65c0 -19 9 -30 21 -30c60 0 92 91 105 165l2 11l-434 614l-47 -294c-22 -137 -41 -290 106 -290l-1 -7h-319l1 7
c150 0 180 153 205 309l31 190c11 68 11 166 -22 198c55 -17 110 -18 170 -15c-104 16 -176 95 -287 95c-62 0 -106 -25 -106 -78c0 -47 35 -63 66 -63c27 0 55 13 76 40c117 -53 42 -200 -77 -200c-73 0 -147 56 -147 145c0 91 77 165 184 165c124 0 226 -100 325 -100
c36 0 42 13 42 24c0 18 -17 33 -45 16c-23 43 10 78 47 78c22 0 53 -13 53 -54c0 -42 -32 -62 -67 -69l291 -415l50 315c35 220 120 278 207 278c78 0 99 -56 99 -95c0 -67 -57 -103 -102 -103c-25 0 -44 11 -54 38c21 9 31 31 31 52c0 27 -17 53 -49 53
c-73 0 -108 -133 -119 -205z" />
    <glyph glyph-name="N.alt" horiz-adv-x="885" 
d="M758 384l-65 -418l-442 625l-47 -294c-22 -137 -41 -290 106 -290l-1 -7h-319l1 7c150 0 180 153 205 309l31 190c18 111 18 187 -128 187l1 7h332l298 -427l21 130c22 137 41 290 -106 290l1 7h319l-1 -7c-151 0 -182 -153 -206 -309z" />
    <glyph glyph-name="Nacute.alt" horiz-adv-x="885" 
d="M758 384l-65 -418l-442 625l-47 -294c-22 -137 -41 -290 106 -290l-1 -7h-319l1 7c150 0 180 153 205 309l31 190c18 111 18 187 -128 187l1 7h332l298 -427l21 130c22 137 41 290 -106 290l1 7h319l-1 -7c-151 0 -182 -153 -206 -309zM526 756l-3 6
c114 63 197 122 226 122c14 0 23 -10 23 -24z" />
    <glyph glyph-name="Ncaron.alt" horiz-adv-x="885" 
d="M758 384l-65 -418l-442 625l-47 -294c-22 -137 -41 -290 106 -290l-1 -7h-319l1 7c150 0 180 153 205 309l31 190c18 111 18 187 -128 187l1 7h332l298 -427l21 130c22 137 41 290 -106 290l1 7h319l-1 -7c-151 0 -182 -153 -206 -309zM723 870l-173 -120l-135 120l6 5
l138 -67l160 67z" />
    <glyph glyph-name="Ntilde.alt" horiz-adv-x="885" 
d="M758 384l-65 -418l-442 625l-47 -294c-22 -137 -41 -290 106 -290l-1 -7h-319l1 7c150 0 180 153 205 309l31 190c18 111 18 187 -128 187l1 7h332l298 -427l21 130c22 137 41 290 -106 290l1 7h319l-1 -7c-151 0 -182 -153 -206 -309zM368 774l-8 3c37 60 62 82 101 82
c78 0 115 -87 191 -87c32 0 54 16 86 67l8 -3c-38 -62 -64 -74 -94 -74c-81 0 -118 87 -194 87c-29 0 -52 -13 -90 -75z" />
    <glyph glyph-name="Ncommaaccent.alt" horiz-adv-x="885" 
d="M758 384l-65 -418l-442 625l-47 -294c-22 -137 -41 -290 106 -290l-1 -7h-319l1 7c150 0 180 153 205 309l31 190c18 111 18 187 -128 187l1 7h332l298 -427l21 130c22 137 41 290 -106 290l1 7h319l-1 -7c-151 0 -182 -153 -206 -309zM397 -224l-5 6c39 31 61 68 61 101
c0 27 -16 46 -55 35c-4 29 21 44 45 44c25 0 50 -17 50 -53c0 -53 -51 -99 -96 -133z" />
    <glyph glyph-name="Eng.alt" horiz-adv-x="885" 
d="M578 -199c60 0 92 91 105 165l2 11l-433 614l-47 -294c-22 -137 -42 -290 105 -290l-1 -7h-319l1 7c150 0 181 153 206 309l30 190c18 111 19 187 -127 187l1 7h333l296 -427l21 130c22 137 42 290 -105 290l1 7h319l-1 -7c-150 0 -181 -153 -206 -309l-66 -418
c-15 -97 -51 -191 -165 -191c-78 0 -114 52 -114 104c0 54 41 109 116 109c49 0 88 -29 81 -92c-28 -9 -54 -32 -54 -65c0 -19 9 -30 21 -30z" />
    <glyph glyph-name="N.calt" horiz-adv-x="907" 
d="M830 273l69 435c35 220 94 270 179 270c72 0 94 -50 94 -88c0 -60 -49 -86 -91 -86c-26 0 -49 10 -58 35c19 8 31 26 31 46c0 25 -14 42 -42 42c-57 0 -89 -129 -100 -201l-119 -760l-442 625l-47 -294c-22 -137 -41 -290 106 -290l-1 -7h-319l1 7c150 0 180 153 205 309
l31 190c11 68 11 166 -22 198c55 -17 110 -18 170 -15c-104 16 -176 95 -287 95c-62 0 -106 -25 -106 -78c0 -47 35 -63 66 -63c27 0 55 13 76 40c117 -53 42 -200 -77 -200c-73 0 -147 56 -147 145c0 91 77 165 184 165c124 0 226 -100 325 -100c36 0 42 13 42 24
c0 18 -17 33 -45 16c-23 43 10 78 47 78c22 0 53 -13 53 -54c0 -42 -32 -62 -67 -69z" />
    <glyph glyph-name="Nacute.calt" horiz-adv-x="907" 
d="M830 273l69 435c35 220 94 270 179 270c72 0 94 -50 94 -88c0 -60 -49 -86 -91 -86c-26 0 -49 10 -58 35c19 8 31 26 31 46c0 25 -14 42 -42 42c-57 0 -89 -129 -100 -201l-119 -760l-442 625l-47 -294c-22 -137 -41 -290 106 -290l-1 -7h-319l1 7c150 0 180 153 205 309
l31 190c11 68 11 166 -22 198c55 -17 110 -18 170 -15c-104 16 -176 95 -287 95c-62 0 -106 -25 -106 -78c0 -47 35 -63 66 -63c27 0 55 13 76 40c117 -53 42 -200 -77 -200c-73 0 -147 56 -147 145c0 91 77 165 184 165c124 0 226 -100 325 -100c36 0 42 13 42 24
c0 18 -17 33 -45 16c-23 43 10 78 47 78c22 0 53 -13 53 -54c0 -42 -32 -62 -67 -69zM645 756l-3 6c114 63 197 122 226 122c14 0 23 -10 23 -24z" />
    <glyph glyph-name="Ncaron.calt" horiz-adv-x="907" 
d="M830 273l69 435c35 220 94 270 179 270c72 0 94 -50 94 -88c0 -60 -49 -86 -91 -86c-26 0 -49 10 -58 35c19 8 31 26 31 46c0 25 -14 42 -42 42c-57 0 -89 -129 -100 -201l-119 -760l-442 625l-47 -294c-22 -137 -41 -290 106 -290l-1 -7h-319l1 7c150 0 180 153 205 309
l31 190c11 68 11 166 -22 198c55 -17 110 -18 170 -15c-104 16 -176 95 -287 95c-62 0 -106 -25 -106 -78c0 -47 35 -63 66 -63c27 0 55 13 76 40c117 -53 42 -200 -77 -200c-73 0 -147 56 -147 145c0 91 77 165 184 165c124 0 226 -100 325 -100c36 0 42 13 42 24
c0 18 -17 33 -45 16c-23 43 10 78 47 78c22 0 53 -13 53 -54c0 -42 -32 -62 -67 -69zM850 870l-173 -120l-135 120l6 5l138 -67l160 67z" />
    <glyph glyph-name="Ntilde.calt" horiz-adv-x="907" 
d="M830 273l69 435c35 220 94 270 179 270c72 0 94 -50 94 -88c0 -60 -49 -86 -91 -86c-26 0 -49 10 -58 35c19 8 31 26 31 46c0 25 -14 42 -42 42c-57 0 -89 -129 -100 -201l-119 -760l-442 625l-47 -294c-22 -137 -41 -290 106 -290l-1 -7h-319l1 7c150 0 180 153 205 309
l31 190c11 68 11 166 -22 198c55 -17 110 -18 170 -15c-104 16 -176 95 -287 95c-62 0 -106 -25 -106 -78c0 -47 35 -63 66 -63c27 0 55 13 76 40c117 -53 42 -200 -77 -200c-73 0 -147 56 -147 145c0 91 77 165 184 165c124 0 226 -100 325 -100c36 0 42 13 42 24
c0 18 -17 33 -45 16c-23 43 10 78 47 78c22 0 53 -13 53 -54c0 -42 -32 -62 -67 -69zM463 774l-8 3c37 60 62 82 101 82c78 0 115 -87 191 -87c32 0 54 16 86 67l8 -3c-38 -62 -64 -74 -94 -74c-81 0 -118 87 -194 87c-29 0 -52 -13 -90 -75z" />
    <glyph glyph-name="Ncommaaccent.calt" horiz-adv-x="907" 
d="M830 273l69 435c35 220 94 270 179 270c72 0 94 -50 94 -88c0 -60 -49 -86 -91 -86c-26 0 -49 10 -58 35c19 8 31 26 31 46c0 25 -14 42 -42 42c-57 0 -89 -129 -100 -201l-119 -760l-442 625l-47 -294c-22 -137 -41 -290 106 -290l-1 -7h-319l1 7c150 0 180 153 205 309
l31 190c11 68 11 166 -22 198c55 -17 110 -18 170 -15c-104 16 -176 95 -287 95c-62 0 -106 -25 -106 -78c0 -47 35 -63 66 -63c27 0 55 13 76 40c117 -53 42 -200 -77 -200c-73 0 -147 56 -147 145c0 91 77 165 184 165c124 0 226 -100 325 -100c36 0 42 13 42 24
c0 18 -17 33 -45 16c-23 43 10 78 47 78c22 0 53 -13 53 -54c0 -42 -32 -62 -67 -69zM460 -224l-5 6c39 31 61 68 61 101c0 27 -16 46 -55 35c-4 29 21 44 45 44c25 0 50 -17 50 -53c0 -53 -51 -99 -96 -133z" />
    <glyph glyph-name="N.titl" horiz-adv-x="985" 
d="M830 273l50 315c35 220 120 278 207 278c78 0 99 -56 99 -95c0 -67 -57 -103 -102 -103c-25 0 -44 11 -54 38c21 9 31 31 31 52c0 27 -17 53 -49 53c-73 0 -108 -133 -119 -205l-100 -640l-442 625l-47 -294c-22 -137 -41 -290 106 -290l-1 -7h-319l1 7
c150 0 180 153 205 309l31 190c11 68 11 166 -22 198c55 -17 110 -18 170 -15c-104 16 -176 95 -287 95c-62 0 -106 -25 -106 -78c0 -47 35 -63 66 -63c27 0 55 13 76 40c117 -53 42 -200 -77 -200c-73 0 -147 56 -147 145c0 91 77 165 184 165c124 0 226 -100 325 -100
c36 0 42 13 42 24c0 18 -17 33 -45 16c-23 43 10 78 47 78c22 0 53 -13 53 -54c0 -42 -32 -62 -67 -69z" />
    <glyph glyph-name="Ograve" unicode="&#xd2;" horiz-adv-x="868" 
d="M50 239c0 170 68 292 188 377c36 87 133 158 295 158c239 0 355 -155 355 -321c0 -298 -247 -529 -509 -529c-195 0 -329 135 -329 315zM493 726l4 -4c-100 -35 -170 -163 -210 -306c28 -25 63 -37 97 -37c58 0 93 36 93 90c0 44 -30 75 -72 76c-7 61 50 107 107 107
c71 0 111 -45 111 -102c0 -109 -131 -179 -231 -179c-42 0 -79 11 -108 33c-25 -92 -37 -190 -37 -272c0 -113 30 -197 109 -197c165 0 331 367 331 602c0 99 -27 228 -175 228c-86 0 -201 -43 -250 -133c65 41 142 71 231 94zM541 825l-4 -6l-215 98c0 16 14 30 32 30
c29 0 94 -59 187 -122z" />
    <glyph glyph-name="Oacute" unicode="&#xd3;" horiz-adv-x="868" 
d="M50 239c0 170 68 292 188 377c36 87 133 158 295 158c239 0 355 -155 355 -321c0 -298 -247 -529 -509 -529c-195 0 -329 135 -329 315zM493 726l4 -4c-100 -35 -170 -163 -210 -306c28 -25 63 -37 97 -37c58 0 93 36 93 90c0 44 -30 75 -72 76c-7 61 50 107 107 107
c71 0 111 -45 111 -102c0 -109 -131 -179 -231 -179c-42 0 -79 11 -108 33c-25 -92 -37 -190 -37 -272c0 -113 30 -197 109 -197c165 0 331 367 331 602c0 99 -27 228 -175 228c-86 0 -201 -43 -250 -133c65 41 142 71 231 94zM495 819l-3 6c114 63 197 122 226 122
c14 0 23 -10 23 -24z" />
    <glyph glyph-name="Ocircumflex" unicode="&#xd4;" horiz-adv-x="868" 
d="M50 239c0 170 68 292 188 377c36 87 133 158 295 158c239 0 355 -155 355 -321c0 -298 -247 -529 -509 -529c-195 0 -329 135 -329 315zM493 726l4 -4c-100 -35 -170 -163 -210 -306c28 -25 63 -37 97 -37c58 0 93 36 93 90c0 44 -30 75 -72 76c-7 61 50 107 107 107
c71 0 111 -45 111 -102c0 -109 -131 -179 -231 -179c-42 0 -79 11 -108 33c-25 -92 -37 -190 -37 -272c0 -113 30 -197 109 -197c165 0 331 367 331 602c0 99 -27 228 -175 228c-86 0 -201 -43 -250 -133c65 41 142 71 231 94zM539 930l135 -120l-6 -5l-138 67l-160 -67
l-4 5z" />
    <glyph glyph-name="Otilde" unicode="&#xd5;" horiz-adv-x="868" 
d="M50 239c0 170 68 292 188 377c36 87 133 158 295 158c239 0 355 -155 355 -321c0 -298 -247 -529 -509 -529c-195 0 -329 135 -329 315zM493 726l4 -4c-100 -35 -170 -163 -210 -306c28 -25 63 -37 97 -37c58 0 93 36 93 90c0 44 -30 75 -72 76c-7 61 50 107 107 107
c71 0 111 -45 111 -102c0 -109 -131 -179 -231 -179c-42 0 -79 11 -108 33c-25 -92 -37 -190 -37 -272c0 -113 30 -197 109 -197c165 0 331 367 331 602c0 99 -27 228 -175 228c-86 0 -201 -43 -250 -133c65 41 142 71 231 94zM337 837l-8 3c37 60 62 82 101 82
c78 0 115 -87 191 -87c32 0 54 16 86 67l8 -3c-38 -62 -64 -74 -94 -74c-81 0 -118 87 -194 87c-29 0 -52 -13 -90 -75z" />
    <glyph glyph-name="Odieresis" unicode="&#xd6;" horiz-adv-x="868" 
d="M50 239c0 170 68 292 188 377c36 87 133 158 295 158c239 0 355 -155 355 -321c0 -298 -247 -529 -509 -529c-195 0 -329 135 -329 315zM493 726l4 -4c-100 -35 -170 -163 -210 -306c28 -25 63 -37 97 -37c58 0 93 36 93 90c0 44 -30 75 -72 76c-7 61 50 107 107 107
c71 0 111 -45 111 -102c0 -109 -131 -179 -231 -179c-42 0 -79 11 -108 33c-25 -92 -37 -190 -37 -272c0 -113 30 -197 109 -197c165 0 331 367 331 602c0 99 -27 228 -175 228c-86 0 -201 -43 -250 -133c65 41 142 71 231 94zM439 924c26 0 44 -21 44 -46
c0 -34 -29 -61 -61 -61c-25 0 -44 20 -44 47c0 32 30 60 61 60zM637 924c26 0 44 -21 44 -46c0 -34 -29 -61 -61 -61c-25 0 -44 20 -44 47c0 32 30 60 61 60z" />
    <glyph glyph-name="Omacron" unicode="&#x14c;" horiz-adv-x="868" 
d="M50 239c0 170 68 292 188 377c36 87 133 158 295 158c239 0 355 -155 355 -321c0 -298 -247 -529 -509 -529c-195 0 -329 135 -329 315zM493 726l4 -4c-100 -35 -170 -163 -210 -306c28 -25 63 -37 97 -37c58 0 93 36 93 90c0 44 -30 75 -72 76c-7 61 50 107 107 107
c71 0 111 -45 111 -102c0 -109 -131 -179 -231 -179c-42 0 -79 11 -108 33c-25 -92 -37 -190 -37 -272c0 -113 30 -197 109 -197c165 0 331 367 331 602c0 99 -27 228 -175 228c-86 0 -201 -43 -250 -133c65 41 142 71 231 94zM682 858l-2 -10h-318l2 10h318z" />
    <glyph glyph-name="Obreve" unicode="&#x14e;" horiz-adv-x="868" 
d="M50 239c0 170 68 292 188 377c36 87 133 158 295 158c239 0 355 -155 355 -321c0 -298 -247 -529 -509 -529c-195 0 -329 135 -329 315zM493 726l4 -4c-100 -35 -170 -163 -210 -306c28 -25 63 -37 97 -37c58 0 93 36 93 90c0 44 -30 75 -72 76c-7 61 50 107 107 107
c71 0 111 -45 111 -102c0 -109 -131 -179 -231 -179c-42 0 -79 11 -108 33c-25 -92 -37 -190 -37 -272c0 -113 30 -197 109 -197c165 0 331 367 331 602c0 99 -27 228 -175 228c-86 0 -201 -43 -250 -133c65 41 142 71 231 94zM681 909l8 -2c-15 -41 -84 -92 -169 -92
s-136 51 -139 92l8 2c7 -39 56 -64 136 -64s137 25 156 64z" />
    <glyph glyph-name="Ohungarumlaut" unicode="&#x150;" horiz-adv-x="868" 
d="M50 239c0 170 68 292 188 377c36 87 133 158 295 158c239 0 355 -155 355 -321c0 -298 -247 -529 -509 -529c-195 0 -329 135 -329 315zM493 726l4 -4c-100 -35 -170 -163 -210 -306c28 -25 63 -37 97 -37c58 0 93 36 93 90c0 44 -30 75 -72 76c-7 61 50 107 107 107
c71 0 111 -45 111 -102c0 -109 -131 -179 -231 -179c-42 0 -79 11 -108 33c-25 -92 -37 -190 -37 -272c0 -113 30 -197 109 -197c165 0 331 367 331 602c0 99 -27 228 -175 228c-86 0 -201 -43 -250 -133c65 41 142 71 231 94zM459 812l-4 6c114 97 121 133 146 136
c15 2 26 -8 26 -21zM586 812l-4 6c114 97 121 133 146 136c15 2 26 -8 26 -21z" />
    <glyph glyph-name="O.alt" horiz-adv-x="797" 
d="M492 707c184 0 319 -117 319 -297c0 -221 -192 -417 -432 -417c-170 0 -318 107 -318 295c0 229 192 419 431 419zM380 1c170 0 223 353 223 523c0 92 -23 175 -112 175c-181 0 -222 -394 -222 -525c0 -91 22 -173 111 -173z" />
    <glyph glyph-name="Ograve.alt" horiz-adv-x="797" 
d="M492 707c184 0 319 -117 319 -297c0 -221 -192 -417 -432 -417c-170 0 -318 107 -318 295c0 229 192 419 431 419zM380 1c170 0 223 353 223 523c0 92 -23 175 -112 175c-181 0 -222 -394 -222 -525c0 -91 22 -173 111 -173zM522 762l-4 -6l-215 98c0 16 14 30 32 30
c29 0 94 -59 187 -122z" />
    <glyph glyph-name="Oacute.alt" horiz-adv-x="797" 
d="M492 707c184 0 319 -117 319 -297c0 -221 -192 -417 -432 -417c-170 0 -318 107 -318 295c0 229 192 419 431 419zM380 1c170 0 223 353 223 523c0 92 -23 175 -112 175c-181 0 -222 -394 -222 -525c0 -91 22 -173 111 -173zM476 756l-3 6c114 63 197 122 226 122
c14 0 23 -10 23 -24z" />
    <glyph glyph-name="Ocircumflex.alt" horiz-adv-x="797" 
d="M492 707c184 0 319 -117 319 -297c0 -221 -192 -417 -432 -417c-170 0 -318 107 -318 295c0 229 192 419 431 419zM380 1c170 0 223 353 223 523c0 92 -23 175 -112 175c-181 0 -222 -394 -222 -525c0 -91 22 -173 111 -173zM520 867l135 -120l-6 -5l-138 67l-160 -67
l-4 5z" />
    <glyph glyph-name="Otilde.alt" horiz-adv-x="797" 
d="M492 707c184 0 319 -117 319 -297c0 -221 -192 -417 -432 -417c-170 0 -318 107 -318 295c0 229 192 419 431 419zM380 1c170 0 223 353 223 523c0 92 -23 175 -112 175c-181 0 -222 -394 -222 -525c0 -91 22 -173 111 -173zM318 774l-8 3c37 60 62 82 101 82
c78 0 115 -87 191 -87c32 0 54 16 86 67l8 -3c-38 -62 -64 -74 -94 -74c-81 0 -118 87 -194 87c-29 0 -52 -13 -90 -75z" />
    <glyph glyph-name="Odieresis.alt" horiz-adv-x="797" 
d="M492 707c184 0 319 -117 319 -297c0 -221 -192 -417 -432 -417c-170 0 -318 107 -318 295c0 229 192 419 431 419zM380 1c170 0 223 353 223 523c0 92 -23 175 -112 175c-181 0 -222 -394 -222 -525c0 -91 22 -173 111 -173zM420 861c26 0 44 -21 44 -46
c0 -34 -29 -61 -61 -61c-25 0 -44 20 -44 47c0 32 30 60 61 60zM618 861c26 0 44 -21 44 -46c0 -34 -29 -61 -61 -61c-25 0 -44 20 -44 47c0 32 30 60 61 60z" />
    <glyph glyph-name="Omacron.alt" horiz-adv-x="797" 
d="M492 707c184 0 319 -117 319 -297c0 -221 -192 -417 -432 -417c-170 0 -318 107 -318 295c0 229 192 419 431 419zM380 1c170 0 223 353 223 523c0 92 -23 175 -112 175c-181 0 -222 -394 -222 -525c0 -91 22 -173 111 -173zM663 795l-2 -10h-318l2 10h318z" />
    <glyph glyph-name="Obreve.alt" horiz-adv-x="797" 
d="M492 707c184 0 319 -117 319 -297c0 -221 -192 -417 -432 -417c-170 0 -318 107 -318 295c0 229 192 419 431 419zM380 1c170 0 223 353 223 523c0 92 -23 175 -112 175c-181 0 -222 -394 -222 -525c0 -91 22 -173 111 -173zM662 846l8 -2c-15 -41 -84 -92 -169 -92
s-136 51 -139 92l8 2c7 -39 56 -64 136 -64s137 25 156 64z" />
    <glyph glyph-name="Ohungarumlaut.alt" horiz-adv-x="797" 
d="M492 707c184 0 319 -117 319 -297c0 -221 -192 -417 -432 -417c-170 0 -318 107 -318 295c0 229 192 419 431 419zM380 1c170 0 223 353 223 523c0 92 -23 175 -112 175c-181 0 -222 -394 -222 -525c0 -91 22 -173 111 -173zM440 749l-4 6c114 97 121 133 146 136
c15 2 26 -8 26 -21zM567 749l-4 6c114 97 121 133 146 136c15 2 26 -8 26 -21z" />
    <glyph glyph-name="Oslash" unicode="&#xd8;" horiz-adv-x="868" 
d="M102 -85l59 82c-70 56 -111 142 -111 242c0 170 68 292 188 377c36 87 133 158 295 158c64 0 120 -12 166 -31l55 76l7 -5l-54 -75c121 -55 181 -168 181 -286c0 -298 -247 -529 -509 -529c-84 0 -156 25 -212 67l-58 -81zM623 550c0 -90 -90 -154 -177 -173l-198 -275
c5 -98 36 -167 108 -167c165 0 331 367 331 602c0 45 -6 96 -26 138l-52 -72c9 -16 14 -34 14 -53zM493 726l4 -4c-100 -35 -170 -163 -210 -306c28 -25 63 -37 97 -37c58 0 93 36 93 90c0 44 -30 75 -72 76c-7 61 50 107 107 107c42 0 73 -16 92 -41l53 73
c-25 47 -69 81 -145 81c-86 0 -201 -43 -250 -133c65 41 142 71 231 94zM392 371c-42 0 -79 11 -108 33c-25 -92 -37 -190 -37 -272v-16l186 258c-14 -2 -28 -3 -41 -3z" />
    <glyph glyph-name="Oslashacute" unicode="&#x1fe;" horiz-adv-x="868" 
d="M102 -85l59 82c-70 56 -111 142 -111 242c0 170 68 292 188 377c36 87 133 158 295 158c64 0 120 -12 166 -31l55 76l7 -5l-54 -75c121 -55 181 -168 181 -286c0 -298 -247 -529 -509 -529c-84 0 -156 25 -212 67l-58 -81zM623 550c0 -90 -90 -154 -177 -173l-198 -275
c5 -98 36 -167 108 -167c165 0 331 367 331 602c0 45 -6 96 -26 138l-52 -72c9 -16 14 -34 14 -53zM493 726l4 -4c-100 -35 -170 -163 -210 -306c28 -25 63 -37 97 -37c58 0 93 36 93 90c0 44 -30 75 -72 76c-7 61 50 107 107 107c42 0 73 -16 92 -41l53 73
c-25 47 -69 81 -145 81c-86 0 -201 -43 -250 -133c65 41 142 71 231 94zM392 371c-42 0 -79 11 -108 33c-25 -92 -37 -190 -37 -272v-16l186 258c-14 -2 -28 -3 -41 -3zM512 818l-3 6c114 63 197 122 226 122c14 0 23 -10 23 -24z" />
    <glyph glyph-name="Oslash.alt" horiz-adv-x="797" 
d="M492 707c62 0 119 -13 167 -38l47 65l7 -5l-47 -65c89 -49 145 -139 145 -254c0 -221 -192 -417 -432 -417c-60 0 -118 13 -167 39l-47 -66l-7 5l47 65c-86 47 -144 134 -144 252c0 229 192 419 431 419zM380 1c170 0 223 353 223 523c0 16 -1 33 -3 48l-327 -456
c9 -65 37 -115 107 -115zM269 174c0 -16 0 -31 2 -46l328 457c-10 65 -40 114 -108 114c-181 0 -222 -394 -222 -525z" />
    <glyph glyph-name="Oslashacute.alt" horiz-adv-x="797" 
d="M492 707c62 0 119 -13 167 -38l47 65l7 -5l-47 -65c89 -49 145 -139 145 -254c0 -221 -192 -417 -432 -417c-60 0 -118 13 -167 39l-47 -66l-7 5l47 65c-86 47 -144 134 -144 252c0 229 192 419 431 419zM380 1c170 0 223 353 223 523c0 16 -1 33 -3 48l-327 -456
c9 -65 37 -115 107 -115zM269 174c0 -16 0 -31 2 -46l328 457c-10 65 -40 114 -108 114c-181 0 -222 -394 -222 -525zM475 756l-3 6c114 63 197 122 226 122c14 0 23 -10 23 -24z" />
    <glyph glyph-name="OE" unicode="&#x152;" horiz-adv-x="1100" 
d="M870 710c-86 0 -136 -108 -136 -183c0 -72 46 -140 113 -140h27l-2 -8h-16c-141 0 -236 -161 -236 -300c0 -105 34 -198 163 -198c173 0 278 147 278 260c0 66 -41 124 -129 124c-50 0 -88 -35 -88 -90c0 -44 30 -75 72 -76c7 -61 -50 -107 -107 -107
c-71 0 -111 45 -111 102c0 109 130 179 234 179c115 0 168 -67 168 -145c0 -116 -117 -259 -350 -259c-147 0 -239 57 -284 132c-28 -5 -58 -8 -87 -8c-170 0 -318 107 -318 295c0 229 192 419 431 419c59 0 113 -12 159 -34c68 35 159 46 217 46c124 0 229 -51 229 -151
c0 -79 -65 -129 -123 -129c-50 0 -105 41 -90 101c36 8 69 32 69 83c0 52 -34 87 -83 87zM380 1c27 0 51 9 73 25c-14 30 -20 63 -20 96c0 132 116 255 367 257l1 2c-154 3 -242 70 -242 162c0 33 12 60 30 82c-15 44 -45 74 -98 74c-181 0 -222 -394 -222 -525
c0 -91 22 -173 111 -173z" />
    <glyph glyph-name="OE.alt" horiz-adv-x="1152" 
d="M1167 700l-13 -241h-9c6 151 -48 232 -215 232h-97l-51 -330c107 0 197 50 220 157h7l-67 -323h-7c19 97 -47 159 -154 159l-40 -253c-11 -71 0 -92 44 -92c194 0 311 112 369 289h10l-93 -298h-543l3 22c-45 -19 -97 -29 -152 -29c-170 0 -318 107 -318 295
c0 229 192 419 431 419c54 0 100 -10 139 -29l4 22h532zM380 1c170 0 223 353 223 523c0 92 -23 175 -112 175c-181 0 -222 -394 -222 -525c0 -91 22 -173 111 -173z" />
    <glyph glyph-name="P.alt" horiz-adv-x="723" 
d="M403 693l-81 -513c-18 -121 -25 -173 90 -173l-1 -7h-421l1 7c103 0 112 56 131 173l53 340c19 121 28 173 -76 173l1 7h357c193 0 296 -48 296 -165c0 -194 -217 -243 -384 -243h-18l1 8h15c140 0 177 150 177 271c0 84 -34 122 -113 122h-28z" />
    <glyph glyph-name="P.titl" horiz-adv-x="848" 
d="M485 270l1 8c143 -12 181 168 181 292c0 69 -25 120 -75 120c-40 0 -70 -32 -87 -140l-58 -370c-19 -121 -25 -173 90 -173l-1 -7h-421l1 7c103 0 112 56 131 173l53 340c21 132 167 161 246 165v1c-125 0 -234 98 -358 98c-62 0 -106 -25 -106 -78c0 -47 35 -63 66 -63
c27 0 55 13 76 40c117 -53 41 -200 -76 -200c-74 0 -148 56 -148 144c0 93 77 166 185 166c127 0 248 -100 367 -100c22 0 32 13 32 25c0 16 -17 32 -45 15c-23 43 10 78 46 78c27 0 55 -16 55 -54s-40 -56 -59 -62c17 3 35 6 53 6c145 0 241 -54 241 -177
c0 -201 -234 -279 -390 -254z" />
    <glyph glyph-name="Q.alt" horiz-adv-x="797" 
d="M492 707c184 0 319 -117 319 -297c0 -220 -190 -414 -427 -417l-109 -150c83 91 173 127 225 127c79 0 200 -68 271 -68c29 0 45 14 66 41l4 -2c-30 -56 -102 -177 -211 -177c-110 0 -193 82 -308 82c-26 0 -48 -9 -69 -34l-13 -18l-7 4l142 195
c-169 2 -314 108 -314 295c0 229 192 419 431 419zM380 1c170 0 223 353 223 523c0 92 -23 175 -112 175c-181 0 -222 -394 -222 -525c0 -91 22 -173 111 -173z" />
    <glyph glyph-name="Q.swsh" horiz-adv-x="850" 
d="M247 -58c-141 0 -200 45 -200 76c0 28 46 43 84 43c66 0 176 -20 320 -49c153 101 219 310 218 488c-1 143 -43 266 -173 266c-183 0 -264 -241 -264 -421c0 -118 35 -165 96 -165c60 0 88 42 88 104c0 50 -34 86 -83 87c-8 70 47 131 123 131c82 0 128 -60 128 -125
c0 -126 -140 -206 -248 -206c-81 0 -255 64 -255 268c0 206 179 336 402 336c185 0 387 -90 387 -301c0 -176 -140 -378 -355 -474c186 -39 423 -90 699 -138c282 -49 463 -70 631 -70s283 21 382 83l4 -2c-101 -195 -185 -279 -461 -279c-480 0 -962 253 -1313 383
c-65 -22 -136 -35 -210 -35zM243 -48c66 0 123 15 173 40c-104 36 -196 60 -270 60c-41 0 -58 -18 -58 -35c0 -29 52 -65 155 -65z" />
    <glyph glyph-name="Racute" unicode="&#x154;" horiz-adv-x="1102" 
d="M464 180l52 340c20 132 167 161 246 165v1c-125 0 -234 98 -358 98c-62 0 -106 -25 -106 -78c0 -47 35 -63 66 -63c27 0 55 13 76 40c117 -53 41 -200 -76 -200c-74 0 -148 56 -148 144c0 93 77 166 185 166c127 0 248 -100 367 -100c22 0 32 13 32 25
c0 16 -17 32 -45 15c-23 43 10 78 46 78c27 0 55 -16 55 -54s-40 -56 -59 -62c17 3 35 6 53 6c145 0 246 -40 246 -154c0 -159 -235 -204 -395 -238c166 28 286 37 347 -160c39 -125 67 -194 124 -208l-3 -3c-29 -6 -56 -9 -82 -9c-133 0 -224 42 -253 192
c-21 107 -69 181 -132 185l-1 3l-1 2c155 60 183 147 183 271c0 69 -25 108 -75 108c-40 0 -70 -32 -87 -140l-54 -344c-40 -255 -310 -296 -444 -296c-102 0 -223 68 -223 199c0 117 102 190 203 190c96 0 200 -57 200 -158c0 -67 -51 -123 -130 -123
c-57 0 -106 46 -88 107c48 1 86 41 86 94c0 52 -46 72 -83 72c-71 0 -147 -75 -147 -180c0 -113 85 -191 187 -191c125 0 210 87 236 260zM821 847l-3 6c114 63 197 122 226 122c14 0 23 -10 23 -24z" />
    <glyph glyph-name="Rcaron" unicode="&#x158;" horiz-adv-x="1102" 
d="M464 180l52 340c20 132 167 161 246 165v1c-125 0 -234 98 -358 98c-62 0 -106 -25 -106 -78c0 -47 35 -63 66 -63c27 0 55 13 76 40c117 -53 41 -200 -76 -200c-74 0 -148 56 -148 144c0 93 77 166 185 166c127 0 248 -100 367 -100c22 0 32 13 32 25
c0 16 -17 32 -45 15c-23 43 10 78 46 78c27 0 55 -16 55 -54s-40 -56 -59 -62c17 3 35 6 53 6c145 0 246 -40 246 -154c0 -159 -235 -204 -395 -238c166 28 286 37 347 -160c39 -125 67 -194 124 -208l-3 -3c-29 -6 -56 -9 -82 -9c-133 0 -224 42 -253 192
c-21 107 -69 181 -132 185l-1 3l-1 2c155 60 183 147 183 271c0 69 -25 108 -75 108c-40 0 -70 -32 -87 -140l-54 -344c-40 -255 -310 -296 -444 -296c-102 0 -223 68 -223 199c0 117 102 190 203 190c96 0 200 -57 200 -158c0 -67 -51 -123 -130 -123
c-57 0 -106 46 -88 107c48 1 86 41 86 94c0 52 -46 72 -83 72c-71 0 -147 -75 -147 -180c0 -113 85 -191 187 -191c125 0 210 87 236 260zM1018 961l-173 -120l-135 120l6 5l138 -67l160 67z" />
    <glyph glyph-name="Rcommaaccent" unicode="&#x156;" horiz-adv-x="1102" 
d="M464 180l52 340c20 132 167 161 246 165v1c-125 0 -234 98 -358 98c-62 0 -106 -25 -106 -78c0 -47 35 -63 66 -63c27 0 55 13 76 40c117 -53 41 -200 -76 -200c-74 0 -148 56 -148 144c0 93 77 166 185 166c127 0 248 -100 367 -100c22 0 32 13 32 25
c0 16 -17 32 -45 15c-23 43 10 78 46 78c27 0 55 -16 55 -54s-40 -56 -59 -62c17 3 35 6 53 6c145 0 246 -40 246 -154c0 -159 -235 -204 -395 -238c166 28 286 37 347 -160c39 -125 67 -194 124 -208l-3 -3c-29 -6 -56 -9 -82 -9c-133 0 -224 42 -253 192
c-21 107 -69 181 -132 185l-1 3l-1 2c155 60 183 147 183 271c0 69 -25 108 -75 108c-40 0 -70 -32 -87 -140l-54 -344c-40 -255 -310 -296 -444 -296c-102 0 -223 68 -223 199c0 117 102 190 203 190c96 0 200 -57 200 -158c0 -67 -51 -123 -130 -123
c-57 0 -106 46 -88 107c48 1 86 41 86 94c0 52 -46 72 -83 72c-71 0 -147 -75 -147 -180c0 -113 85 -191 187 -191c125 0 210 87 236 260zM642 -224l-5 6c39 31 61 68 61 101c0 27 -16 46 -55 35c-4 29 21 44 45 44c25 0 50 -17 50 -53c0 -53 -51 -99 -96 -133z" />
    <glyph glyph-name="R.alt" horiz-adv-x="830" 
d="M418 691l-81 -511c-19 -119 -26 -173 60 -173l-1 -7h-390l1 7c104 0 113 56 131 173l54 340c19 121 27 173 -78 173l1 7h295c154 0 365 -3 365 -142c0 -156 -186 -195 -318 -202v-2c200 0 225 -67 264 -189c43 -137 33 -166 100 -158l-1 -7c-59 -9 -110 -18 -154 -18
c-245 0 -111 369 -282 369h-9l1 8h18c123 0 168 103 168 217c0 69 -30 115 -115 115h-29z" />
    <glyph glyph-name="Racute.alt" horiz-adv-x="830" 
d="M418 691l-81 -511c-19 -119 -26 -173 60 -173l-1 -7h-390l1 7c104 0 113 56 131 173l54 340c19 121 27 173 -78 173l1 7h295c154 0 365 -3 365 -142c0 -156 -186 -195 -318 -202v-2c200 0 225 -67 264 -189c43 -137 33 -166 100 -158l-1 -7c-59 -9 -110 -18 -154 -18
c-245 0 -111 369 -282 369h-9l1 8h18c123 0 168 103 168 217c0 69 -30 115 -115 115h-29zM435 756l-3 6c114 63 197 122 226 122c14 0 23 -10 23 -24z" />
    <glyph glyph-name="Rcaron.alt" horiz-adv-x="830" 
d="M418 691l-81 -511c-19 -119 -26 -173 60 -173l-1 -7h-390l1 7c104 0 113 56 131 173l54 340c19 121 27 173 -78 173l1 7h295c154 0 365 -3 365 -142c0 -156 -186 -195 -318 -202v-2c200 0 225 -67 264 -189c43 -137 33 -166 100 -158l-1 -7c-59 -9 -110 -18 -154 -18
c-245 0 -111 369 -282 369h-9l1 8h18c123 0 168 103 168 217c0 69 -30 115 -115 115h-29zM632 870l-173 -120l-135 120l6 5l138 -67l160 67z" />
    <glyph glyph-name="Rcommaaccent.alt" horiz-adv-x="830" 
d="M418 691l-81 -511c-19 -119 -26 -173 60 -173l-1 -7h-390l1 7c104 0 113 56 131 173l54 340c19 121 27 173 -78 173l1 7h295c154 0 365 -3 365 -142c0 -156 -186 -195 -318 -202v-2c200 0 225 -67 264 -189c43 -137 33 -166 100 -158l-1 -7c-59 -9 -110 -18 -154 -18
c-245 0 -111 369 -282 369h-9l1 8h18c123 0 168 103 168 217c0 69 -30 115 -115 115h-29zM369 -224l-5 6c39 31 61 68 61 101c0 27 -16 46 -55 35c-4 29 21 44 45 44c25 0 50 -17 50 -53c0 -53 -51 -99 -96 -133z" />
    <glyph glyph-name="R.swsh" horiz-adv-x="888" 
d="M485 309l-1 2c155 60 183 147 183 271c0 69 -25 108 -75 108c-40 0 -70 -32 -87 -140l-58 -370c-19 -121 -25 -173 90 -173l-1 -7h-421l1 7c103 0 112 56 131 173l53 340c21 132 167 161 246 165v1c-125 0 -234 98 -358 98c-62 0 -106 -25 -106 -78c0 -47 35 -63 66 -63
c27 0 55 13 76 40c117 -53 41 -200 -76 -200c-74 0 -148 56 -148 144c0 93 77 166 185 166c127 0 248 -100 367 -100c22 0 32 13 32 25c0 16 -17 32 -45 15c-23 43 10 78 46 78c27 0 55 -16 55 -54s-40 -56 -59 -62c17 3 35 6 53 6c145 0 246 -40 246 -154
c0 -159 -235 -204 -395 -238zM486 306l-1 3c156 22 267 7 341 -156c51 -112 98 -275 178 -366c54 21 105 38 158 38c52 0 105 -18 105 -48c0 -23 -30 -66 -159 -66c-72 0 -133 14 -186 36c-91 -34 -196 -69 -326 -69c-247 0 -500 128 -681 128c-43 0 -72 -11 -99 -43l-5 3
c74 146 197 193 294 193c219 0 371 -231 659 -231c53 0 100 11 145 25c-167 77 -245 245 -288 358c-35 92 -88 195 -135 195zM1134 -280c46 0 123 20 123 55c0 27 -48 42 -94 42c-48 0 -98 -15 -154 -36c35 -37 75 -61 125 -61z" />
    <glyph glyph-name="R.titl" horiz-adv-x="886" 
d="M485 309l-1 2c155 60 183 147 183 271c0 69 -25 108 -75 108c-40 0 -70 -32 -87 -140l-58 -370c-19 -121 -25 -173 90 -173l-1 -7h-421l1 7c103 0 112 56 131 173l53 340c21 132 167 161 246 165v1c-125 0 -234 98 -358 98c-62 0 -106 -25 -106 -78c0 -47 35 -63 66 -63
c27 0 55 13 76 40c117 -53 41 -200 -76 -200c-74 0 -148 56 -148 144c0 93 77 166 185 166c127 0 248 -100 367 -100c22 0 32 13 32 25c0 16 -17 32 -45 15c-23 43 10 78 46 78c27 0 55 -16 55 -54s-40 -56 -59 -62c17 3 35 6 53 6c145 0 246 -40 246 -154
c0 -159 -235 -204 -395 -238zM486 306l-1 3c166 28 286 37 347 -160c39 -125 67 -194 124 -208l-3 -3c-29 -6 -56 -9 -82 -9c-133 0 -224 42 -253 192c-21 107 -69 181 -132 185z" />
    <glyph glyph-name="R.hist" horiz-adv-x="888" 
d="M485 309l-1 2c155 60 183 147 183 271c0 69 -25 108 -75 108c-40 0 -70 -32 -87 -140l-58 -370c-19 -121 -25 -173 90 -173l-1 -7h-421l1 7c103 0 112 56 131 173l53 340c21 132 167 161 246 165v1c-125 0 -234 98 -358 98c-62 0 -106 -25 -106 -78c0 -47 35 -63 66 -63
c27 0 55 13 76 40c117 -53 41 -200 -76 -200c-74 0 -148 56 -148 144c0 93 77 166 185 166c127 0 248 -100 367 -100c22 0 32 13 32 25c0 16 -17 32 -45 15c-23 43 10 78 46 78c27 0 55 -16 55 -54s-40 -56 -59 -62c17 3 35 6 53 6c145 0 246 -40 246 -154
c0 -159 -235 -204 -395 -238zM486 306l-1 3c156 22 267 7 341 -156c74 -161 137 -433 296 -433c47 0 74 35 74 69c0 25 -15 50 -49 57c13 63 63 99 112 99c40 0 94 -24 94 -93c0 -110 -140 -141 -243 -141c-312 0 -431 249 -489 400c-35 92 -88 195 -135 195z" />
    <glyph glyph-name="Sacute" unicode="&#x15a;" horiz-adv-x="715" 
d="M168 490c0 149 170 229 321 229c119 0 226 -50 226 -153c0 -76 -65 -127 -123 -127c-50 0 -99 36 -84 96c40 8 61 41 61 78c0 67 -47 97 -99 97c-63 0 -133 -43 -133 -112c0 -153 373 -141 373 -395c0 -182 -191 -334 -418 -334c-196 0 -292 114 -292 231
c0 112 87 199 203 199c96 0 200 -57 200 -158c0 -67 -51 -123 -130 -123c-57 0 -106 46 -88 107c48 1 86 41 86 94c0 52 -46 72 -83 72c-83 0 -147 -89 -147 -188c0 -115 85 -224 261 -224c166 0 264 98 264 196c0 185 -398 201 -398 415zM458 763l-3 6
c114 63 197 122 226 122c14 0 23 -10 23 -24z" />
    <glyph glyph-name="Scircumflex" unicode="&#x15c;" horiz-adv-x="715" 
d="M168 490c0 149 170 229 321 229c119 0 226 -50 226 -153c0 -76 -65 -127 -123 -127c-50 0 -99 36 -84 96c40 8 61 41 61 78c0 67 -47 97 -99 97c-63 0 -133 -43 -133 -112c0 -153 373 -141 373 -395c0 -182 -191 -334 -418 -334c-196 0 -292 114 -292 231
c0 112 87 199 203 199c96 0 200 -57 200 -158c0 -67 -51 -123 -130 -123c-57 0 -106 46 -88 107c48 1 86 41 86 94c0 52 -46 72 -83 72c-83 0 -147 -89 -147 -188c0 -115 85 -224 261 -224c166 0 264 98 264 196c0 185 -398 201 -398 415zM502 874l135 -120l-6 -5l-138 67
l-160 -67l-4 5z" />
    <glyph glyph-name="Scaron" unicode="&#x160;" horiz-adv-x="715" 
d="M168 490c0 149 170 229 321 229c119 0 226 -50 226 -153c0 -76 -65 -127 -123 -127c-50 0 -99 36 -84 96c40 8 61 41 61 78c0 67 -47 97 -99 97c-63 0 -133 -43 -133 -112c0 -153 373 -141 373 -395c0 -182 -191 -334 -418 -334c-196 0 -292 114 -292 231
c0 112 87 199 203 199c96 0 200 -57 200 -158c0 -67 -51 -123 -130 -123c-57 0 -106 46 -88 107c48 1 86 41 86 94c0 52 -46 72 -83 72c-83 0 -147 -89 -147 -188c0 -115 85 -224 261 -224c166 0 264 98 264 196c0 185 -398 201 -398 415zM655 877l-173 -120l-135 120l6 5
l138 -67l160 67z" />
    <glyph glyph-name="Scedilla" unicode="&#x15e;" horiz-adv-x="715" 
d="M223 -293l9 6c12 -14 32 -23 58 -23c52 0 78 28 78 57c0 28 -27 57 -82 60c12 23 23 45 30 63c-8 -1 -16 -1 -24 -1c-196 0 -292 114 -292 231c0 112 87 199 203 199c96 0 200 -57 200 -158c0 -67 -51 -123 -130 -123c-57 0 -106 46 -88 107c48 1 86 41 86 94
c0 52 -46 72 -83 72c-83 0 -147 -89 -147 -188c0 -115 85 -224 261 -224c166 0 264 98 264 196c0 185 -398 201 -398 415c0 149 170 229 321 229c119 0 226 -50 226 -153c0 -76 -65 -127 -123 -127c-50 0 -99 36 -84 96c40 8 61 41 61 78c0 67 -47 97 -99 97
c-63 0 -133 -43 -133 -112c0 -153 373 -141 373 -395c0 -173 -172 -319 -384 -333c-7 -18 -16 -39 -26 -55c52 -6 78 -35 78 -66c0 -35 -31 -69 -89 -69c-29 0 -55 12 -66 27z" />
    <glyph glyph-name="Scommaaccent" unicode="&#x218;" horiz-adv-x="715" 
d="M168 490c0 149 170 229 321 229c119 0 226 -50 226 -153c0 -76 -65 -127 -123 -127c-50 0 -99 36 -84 96c40 8 61 41 61 78c0 67 -47 97 -99 97c-63 0 -133 -43 -133 -112c0 -153 373 -141 373 -395c0 -182 -191 -334 -418 -334c-196 0 -292 114 -292 231
c0 112 87 199 203 199c96 0 200 -57 200 -158c0 -67 -51 -123 -130 -123c-57 0 -106 46 -88 107c48 1 86 41 86 94c0 52 -46 72 -83 72c-83 0 -147 -89 -147 -188c0 -115 85 -224 261 -224c166 0 264 98 264 196c0 185 -398 201 -398 415zM240 -350l-5 6c39 31 61 68 61 101
c0 27 -16 46 -55 35c-4 29 21 44 45 44c25 0 50 -17 50 -53c0 -53 -51 -99 -96 -133z" />
    <glyph glyph-name="S.alt" horiz-adv-x="611" 
d="M289 2c78 0 177 41 177 120c0 144 -371 141 -371 351c0 146 157 234 318 234c126 0 230 -31 230 -117c0 -72 -62 -114 -117 -114c-48 0 -87 29 -80 92c27 12 56 41 56 74c0 28 -24 56 -87 56c-86 0 -153 -45 -153 -112c0 -143 367 -128 367 -340
c0 -158 -172 -253 -354 -253c-170 0 -236 79 -236 151c0 61 48 118 121 118c49 0 87 -31 80 -96c-26 -13 -48 -39 -48 -84c0 -39 23 -80 97 -80z" />
    <glyph glyph-name="Sacute.alt" horiz-adv-x="611" 
d="M289 2c78 0 177 41 177 120c0 144 -371 141 -371 351c0 146 157 234 318 234c126 0 230 -31 230 -117c0 -72 -62 -114 -117 -114c-48 0 -87 29 -80 92c27 12 56 41 56 74c0 28 -24 56 -87 56c-86 0 -153 -45 -153 -112c0 -143 367 -128 367 -340
c0 -158 -172 -253 -354 -253c-170 0 -236 79 -236 151c0 61 48 118 121 118c49 0 87 -31 80 -96c-26 -13 -48 -39 -48 -84c0 -39 23 -80 97 -80zM384 756l-3 6c114 63 197 122 226 122c14 0 23 -10 23 -24z" />
    <glyph glyph-name="Scircumflex.alt" horiz-adv-x="611" 
d="M289 2c78 0 177 41 177 120c0 144 -371 141 -371 351c0 146 157 234 318 234c126 0 230 -31 230 -117c0 -72 -62 -114 -117 -114c-48 0 -87 29 -80 92c27 12 56 41 56 74c0 28 -24 56 -87 56c-86 0 -153 -45 -153 -112c0 -143 367 -128 367 -340
c0 -158 -172 -253 -354 -253c-170 0 -236 79 -236 151c0 61 48 118 121 118c49 0 87 -31 80 -96c-26 -13 -48 -39 -48 -84c0 -39 23 -80 97 -80zM428 867l135 -120l-6 -5l-138 67l-160 -67l-4 5z" />
    <glyph glyph-name="Scaron.alt" horiz-adv-x="611" 
d="M289 2c78 0 177 41 177 120c0 144 -371 141 -371 351c0 146 157 234 318 234c126 0 230 -31 230 -117c0 -72 -62 -114 -117 -114c-48 0 -87 29 -80 92c27 12 56 41 56 74c0 28 -24 56 -87 56c-86 0 -153 -45 -153 -112c0 -143 367 -128 367 -340
c0 -158 -172 -253 -354 -253c-170 0 -236 79 -236 151c0 61 48 118 121 118c49 0 87 -31 80 -96c-26 -13 -48 -39 -48 -84c0 -39 23 -80 97 -80zM581 870l-173 -120l-135 120l6 5l138 -67l160 67z" />
    <glyph glyph-name="Scedilla.alt" horiz-adv-x="611" 
d="M202 -173l9 6c12 -14 32 -23 58 -23c52 0 78 28 78 57c0 28 -27 57 -82 60c13 25 25 48 31 67c-7 -1 -14 -1 -21 -1c-170 0 -236 79 -236 151c0 61 48 118 121 118c49 0 87 -31 80 -96c-26 -13 -48 -39 -48 -84c0 -39 23 -80 97 -80c78 0 177 41 177 120
c0 144 -371 141 -371 351c0 146 157 234 318 234c126 0 230 -31 230 -117c0 -72 -62 -114 -117 -114c-48 0 -87 29 -80 92c27 12 56 41 56 74c0 28 -24 56 -87 56c-86 0 -153 -45 -153 -112c0 -143 367 -128 367 -340c0 -149 -153 -242 -323 -252c-6 -18 -17 -41 -27 -59
c52 -6 78 -35 78 -66c0 -35 -31 -69 -89 -69c-29 0 -55 12 -66 27z" />
    <glyph glyph-name="Scommaaccent.alt" horiz-adv-x="611" 
d="M289 2c78 0 177 41 177 120c0 144 -371 141 -371 351c0 146 157 234 318 234c126 0 230 -31 230 -117c0 -72 -62 -114 -117 -114c-48 0 -87 29 -80 92c27 12 56 41 56 74c0 28 -24 56 -87 56c-86 0 -153 -45 -153 -112c0 -143 367 -128 367 -340
c0 -158 -172 -253 -354 -253c-170 0 -236 79 -236 151c0 61 48 118 121 118c49 0 87 -31 80 -96c-26 -13 -48 -39 -48 -84c0 -39 23 -80 97 -80zM260 -224l-5 6c39 31 61 68 61 101c0 27 -16 46 -55 35c-4 29 21 44 45 44c25 0 50 -17 50 -53c0 -53 -51 -99 -96 -133z" />
    <glyph glyph-name="Tcaron" unicode="&#x164;" horiz-adv-x="637" 
d="M0 625c5 182 189 231 352 231c168 0 427 -68 563 -68c46 0 82 7 118 40l4 -2c-78 -153 -167 -195 -264 -195c-39 0 -80 7 -122 17c-33 -12 -54 -61 -66 -140l-57 -358c-17 -107 -1 -143 82 -143l-1 -7h-409l1 7c105 0 115 56 133 173l46 299c19 126 175 165 261 172
c-164 44 -345 145 -480 145c-67 0 -109 -25 -109 -78s40 -79 84 -79c32 0 66 14 88 42c41 -19 58 -49 58 -80c0 -76 -65 -117 -133 -117c-70 0 -143 44 -149 141zM718 1000l-173 -120l-135 120l6 5l138 -67l160 67z" />
    <glyph glyph-name="Tcommaaccent" unicode="&#x162;" horiz-adv-x="637" 
d="M0 625c5 182 189 231 352 231c168 0 427 -68 563 -68c46 0 82 7 118 40l4 -2c-78 -153 -167 -195 -264 -195c-39 0 -80 7 -122 17c-33 -12 -54 -61 -66 -140l-57 -358c-17 -107 -1 -143 82 -143l-1 -7h-409l1 7c105 0 115 56 133 173l46 299c19 126 175 165 261 172
c-164 44 -345 145 -480 145c-67 0 -109 -25 -109 -78s40 -79 84 -79c32 0 66 14 88 42c41 -19 58 -49 58 -80c0 -76 -65 -117 -133 -117c-70 0 -143 44 -149 141zM337 -224l-5 6c39 31 61 68 61 101c0 27 -16 46 -55 35c-4 29 21 44 45 44c25 0 50 -17 50 -53
c0 -53 -51 -99 -96 -133z" />
    <glyph glyph-name="Tbar" unicode="&#x166;" horiz-adv-x="637" 
d="M687 300h-135l-24 -150c-17 -107 -14 -143 52 -143l-1 -7h-379l1 7c105 0 115 56 133 173l18 120h-136l1 10h137l26 169c19 126 175 165 261 172c-164 44 -345 145 -480 145c-67 0 -109 -25 -109 -78s40 -79 84 -79c32 0 66 14 88 42c41 -19 58 -49 58 -80
c0 -76 -65 -117 -133 -117c-70 0 -143 44 -149 141c5 182 189 231 352 231c168 0 427 -68 563 -68c46 0 82 7 118 40l4 -2c-78 -153 -167 -195 -264 -195c-39 0 -80 7 -122 17c-33 -12 -54 -61 -66 -140l-32 -198h135z" />
    <glyph glyph-name="T.alt" horiz-adv-x="755" 
d="M141 700h669l-13 -236h-9c8 151 -47 227 -214 227l-80 -511c-19 -117 -27 -173 77 -173l-1 -7h-409l1 7c105 0 114 56 132 173l81 511c-167 0 -245 -76 -286 -227h-9z" />
    <glyph glyph-name="Tcaron.alt" horiz-adv-x="755" 
d="M141 700h669l-13 -236h-9c8 151 -47 227 -214 227l-80 -511c-19 -117 -27 -173 77 -173l-1 -7h-409l1 7c105 0 114 56 132 173l81 511c-167 0 -245 -76 -286 -227h-9zM655 870l-173 -120l-135 120l6 5l138 -67l160 67z" />
    <glyph glyph-name="Tcommaaccent.alt" horiz-adv-x="755" 
d="M141 700h669l-13 -236h-9c8 151 -47 227 -214 227l-80 -511c-19 -117 -27 -173 77 -173l-1 -7h-409l1 7c105 0 114 56 132 173l81 511c-167 0 -245 -76 -286 -227h-9zM332 -224l-5 6c39 31 61 68 61 101c0 27 -16 46 -55 35c-4 29 21 44 45 44c25 0 50 -17 50 -53
c0 -53 -51 -99 -96 -133z" />
    <glyph glyph-name="Tbar.alt" horiz-adv-x="755" 
d="M141 700h669l-13 -236h-9c8 151 -47 227 -214 227l-60 -381h134l-1 -10h-134l-19 -120c-19 -117 -27 -173 77 -173l-1 -7h-409l1 7c105 0 114 56 132 173l19 120h-137l1 10h137l61 381c-167 0 -245 -76 -286 -227h-9z" />
    <glyph glyph-name="Ugrave" unicode="&#xd9;" horiz-adv-x="968" 
d="M258 249l43 272c21 132 166 160 245 164v1c-125 0 -234 98 -358 98c-62 0 -106 -25 -106 -78c0 -47 35 -63 66 -63c27 0 55 13 76 40c117 -53 41 -200 -76 -200c-74 0 -148 56 -148 144c0 93 77 166 185 166c127 0 248 -100 367 -100c22 0 32 13 32 25
c0 16 -17 32 -45 15c-23 43 10 78 46 78c25 0 54 -17 54 -49c0 -73 -105 -34 -133 -212l-42 -268c-20 -126 -42 -312 96 -312c125 0 221 107 247 268l27 165c22 137 41 290 -106 290l1 7h319l-1 -7c-150 0 -181 -153 -206 -309l-23 -146c-27 -171 -124 -282 -298 -282
c-192 0 -295 82 -262 293zM712 797l-4 -6l-215 98c0 16 14 30 32 30c29 0 94 -59 187 -122z" />
    <glyph glyph-name="Uacute" unicode="&#xda;" horiz-adv-x="968" 
d="M258 249l43 272c21 132 166 160 245 164v1c-125 0 -234 98 -358 98c-62 0 -106 -25 -106 -78c0 -47 35 -63 66 -63c27 0 55 13 76 40c117 -53 41 -200 -76 -200c-74 0 -148 56 -148 144c0 93 77 166 185 166c127 0 248 -100 367 -100c22 0 32 13 32 25
c0 16 -17 32 -45 15c-23 43 10 78 46 78c25 0 54 -17 54 -49c0 -73 -105 -34 -133 -212l-42 -268c-20 -126 -42 -312 96 -312c125 0 221 107 247 268l27 165c22 137 41 290 -106 290l1 7h319l-1 -7c-150 0 -181 -153 -206 -309l-23 -146c-27 -171 -124 -282 -298 -282
c-192 0 -295 82 -262 293zM666 791l-3 6c114 63 197 122 226 122c14 0 23 -10 23 -24z" />
    <glyph glyph-name="Ucircumflex" unicode="&#xdb;" horiz-adv-x="968" 
d="M710 902l135 -120l-6 -5l-138 67l-92 -39c16 -7 30 -22 30 -43c0 -73 -105 -34 -133 -212l-42 -268c-20 -126 -42 -312 96 -312c125 0 221 107 247 268l27 165c22 137 41 290 -106 290l1 7h319l-1 -7c-150 0 -181 -153 -206 -309l-23 -146c-27 -171 -124 -282 -298 -282
c-192 0 -295 82 -262 293l43 272c21 132 166 160 245 164v1c-125 0 -234 98 -358 98c-62 0 -106 -25 -106 -78c0 -47 35 -63 66 -63c27 0 55 13 76 40c117 -53 41 -200 -76 -200c-74 0 -148 56 -148 144c0 93 77 166 185 166c127 0 248 -100 367 -100c22 0 32 13 32 25
c0 16 -17 32 -45 15c-22 40 6 73 39 77z" />
    <glyph glyph-name="Utilde" unicode="&#x168;" horiz-adv-x="968" 
d="M258 249l43 272c21 132 166 160 245 164v1c-125 0 -234 98 -358 98c-62 0 -106 -25 -106 -78c0 -47 35 -63 66 -63c27 0 55 13 76 40c117 -53 41 -200 -76 -200c-74 0 -148 56 -148 144c0 93 77 166 185 166c127 0 248 -100 367 -100c22 0 32 13 32 25
c0 16 -17 32 -45 15c-23 43 10 78 46 78c25 0 54 -17 54 -49c0 -73 -105 -34 -133 -212l-42 -268c-20 -126 -42 -312 96 -312c125 0 221 107 247 268l27 165c22 137 41 290 -106 290l1 7h319l-1 -7c-150 0 -181 -153 -206 -309l-23 -146c-27 -171 -124 -282 -298 -282
c-192 0 -295 82 -262 293zM508 809l-8 3c37 60 62 82 101 82c78 0 115 -87 191 -87c32 0 54 16 86 67l8 -3c-38 -62 -64 -74 -94 -74c-81 0 -118 87 -194 87c-29 0 -52 -13 -90 -75z" />
    <glyph glyph-name="Udieresis" unicode="&#xdc;" horiz-adv-x="968" 
d="M610 896c26 0 44 -21 44 -46c0 -23 -13 -43 -31 -53c9 -8 16 -20 16 -35c0 -73 -105 -34 -133 -212l-42 -268c-20 -126 -42 -312 96 -312c125 0 221 107 247 268l27 165c22 137 41 290 -106 290l1 7h319l-1 -7c-150 0 -181 -153 -206 -309l-23 -146
c-27 -171 -124 -282 -298 -282c-192 0 -295 82 -262 293l43 272c21 132 166 160 245 164v1c-125 0 -234 98 -358 98c-62 0 -106 -25 -106 -78c0 -47 35 -63 66 -63c27 0 55 13 76 40c117 -53 41 -200 -76 -200c-74 0 -148 56 -148 144c0 93 77 166 185 166
c127 0 248 -100 367 -100c22 0 32 13 32 25c0 16 -17 32 -45 15c-18 32 -3 60 20 72c-6 8 -10 19 -10 31c0 32 30 60 61 60zM808 896c26 0 44 -21 44 -46c0 -34 -29 -61 -61 -61c-25 0 -44 20 -44 47c0 32 30 60 61 60z" />
    <glyph glyph-name="Umacron" unicode="&#x16a;" horiz-adv-x="968" 
d="M258 249l43 272c21 132 166 160 245 164v1c-125 0 -234 98 -358 98c-62 0 -106 -25 -106 -78c0 -47 35 -63 66 -63c27 0 55 13 76 40c117 -53 41 -200 -76 -200c-74 0 -148 56 -148 144c0 93 77 166 185 166c127 0 248 -100 367 -100c22 0 32 13 32 25
c0 16 -17 32 -45 15c-23 43 10 78 46 78c25 0 54 -17 54 -49c0 -73 -105 -34 -133 -212l-42 -268c-20 -126 -42 -312 96 -312c125 0 221 107 247 268l27 165c22 137 41 290 -106 290l1 7h319l-1 -7c-150 0 -181 -153 -206 -309l-23 -146c-27 -171 -124 -282 -298 -282
c-192 0 -295 82 -262 293zM853 830l-2 -10h-318l2 10h318z" />
    <glyph glyph-name="Ubreve" unicode="&#x16c;" horiz-adv-x="968" 
d="M258 249l43 272c21 132 166 160 245 164v1c-125 0 -234 98 -358 98c-62 0 -106 -25 -106 -78c0 -47 35 -63 66 -63c27 0 55 13 76 40c117 -53 41 -200 -76 -200c-74 0 -148 56 -148 144c0 93 77 166 185 166c127 0 248 -100 367 -100c22 0 32 13 32 25
c0 16 -17 32 -45 15c-23 43 10 78 46 78c8 0 16 -2 24 -6l6 -2c14 -8 24 -22 24 -41c0 -73 -105 -34 -133 -212l-42 -268c-20 -126 -42 -312 96 -312c125 0 221 107 247 268l27 165c22 137 41 290 -106 290l1 7h319l-1 -7c-150 0 -181 -153 -206 -309l-23 -146
c-27 -171 -124 -282 -298 -282c-192 0 -295 82 -262 293zM852 881l8 -2c-15 -41 -84 -92 -169 -92c-30 0 -55 6 -76 16l-6 2c-35 19 -55 48 -57 74l8 2c7 -39 56 -64 136 -64s137 25 156 64z" />
    <glyph glyph-name="Uring" unicode="&#x16e;" horiz-adv-x="968" 
d="M258 249l43 272c21 132 166 160 245 164v1c-125 0 -234 98 -358 98c-62 0 -106 -25 -106 -78c0 -47 35 -63 66 -63c27 0 55 13 76 40c117 -53 41 -200 -76 -200c-74 0 -148 56 -148 144c0 93 77 166 185 166c127 0 248 -100 367 -100c22 0 32 13 32 25
c0 16 -17 32 -45 15c-23 43 10 78 46 78c25 0 54 -17 54 -49c0 -73 -105 -34 -133 -212l-42 -268c-20 -126 -42 -312 96 -312c125 0 221 107 247 268l27 165c22 137 41 290 -106 290l1 7h319l-1 -7c-150 0 -181 -153 -206 -309l-23 -146c-27 -171 -124 -282 -298 -282
c-192 0 -295 82 -262 293zM721 971c51 0 88 -37 88 -84c0 -60 -57 -109 -118 -109c-52 0 -88 37 -88 85c0 59 56 108 118 108zM721 961c-57 0 -108 -44 -108 -98c0 -42 32 -75 78 -75c56 0 108 45 108 99c0 41 -33 74 -78 74z" />
    <glyph glyph-name="Uhungarumlaut" unicode="&#x170;" horiz-adv-x="968" 
d="M258 249l43 272c21 132 166 160 245 164v1c-125 0 -234 98 -358 98c-62 0 -106 -25 -106 -78c0 -47 35 -63 66 -63c27 0 55 13 76 40c117 -53 41 -200 -76 -200c-74 0 -148 56 -148 144c0 93 77 166 185 166c127 0 248 -100 367 -100c22 0 32 13 32 25
c0 16 -17 32 -45 15c-23 43 10 78 46 78c15 0 33 -7 43 -19c112 95 119 131 144 134c15 2 26 -8 26 -21l-166 -119c4 -7 7 -15 7 -24c0 -73 -105 -34 -133 -212l-42 -268c-20 -126 -42 -312 96 -312c125 0 221 107 247 268l27 165c22 137 41 290 -106 290l1 7h319l-1 -7
c-150 0 -181 -153 -206 -309l-23 -146c-27 -171 -124 -282 -298 -282c-192 0 -295 82 -262 293zM757 784l-4 6c114 97 121 133 146 136c15 2 26 -8 26 -21z" />
    <glyph glyph-name="Uogonek" unicode="&#x172;" horiz-adv-x="968" 
d="M621 -206c-50 3 -67 23 -67 49c0 43 50 100 74 131c-32 -12 -68 -18 -108 -18c-192 0 -295 82 -262 293l43 272c21 132 166 160 245 164v1c-125 0 -234 98 -358 98c-62 0 -106 -25 -106 -78c0 -47 35 -63 66 -63c27 0 55 13 76 40c117 -53 41 -200 -76 -200
c-74 0 -148 56 -148 144c0 93 77 166 185 166c127 0 248 -100 367 -100c22 0 32 13 32 25c0 16 -17 32 -45 15c-23 43 10 78 46 78c25 0 54 -17 54 -49c0 -73 -105 -34 -133 -212l-42 -268c-20 -126 -42 -312 96 -312c125 0 221 107 247 268l27 165c22 137 41 290 -106 290
l1 7h319l-1 -7c-150 0 -181 -153 -206 -309l-23 -146c-21 -129 -80 -223 -182 -262c-23 -29 -73 -90 -73 -130c0 -22 16 -39 60 -42z" />
    <glyph glyph-name="U.alt" horiz-adv-x="854" 
d="M727 384l-23 -146c-27 -171 -117 -245 -291 -245c-192 0 -302 45 -269 256l43 271c19 121 27 173 -77 173l1 7h388v-7c-75 0 -92 -45 -112 -173l-37 -238c-20 -126 -35 -275 103 -275c125 0 214 70 240 231l27 165c22 137 41 290 -106 290l1 7h319l-1 -7
c-150 0 -181 -153 -206 -309z" />
    <glyph glyph-name="Ugrave.alt" horiz-adv-x="854" 
d="M727 384l-23 -146c-27 -171 -117 -245 -291 -245c-192 0 -302 45 -269 256l43 271c19 121 27 173 -77 173l1 7h388v-7c-75 0 -92 -45 -112 -173l-37 -238c-20 -126 -35 -275 103 -275c125 0 214 70 240 231l27 165c22 137 41 290 -106 290l1 7h319l-1 -7
c-150 0 -181 -153 -206 -309zM581 762l-4 -6l-215 98c0 16 14 30 32 30c29 0 94 -59 187 -122z" />
    <glyph glyph-name="Uacute.alt" horiz-adv-x="854" 
d="M727 384l-23 -146c-27 -171 -117 -245 -291 -245c-192 0 -302 45 -269 256l43 271c19 121 27 173 -77 173l1 7h388v-7c-75 0 -92 -45 -112 -173l-37 -238c-20 -126 -35 -275 103 -275c125 0 214 70 240 231l27 165c22 137 41 290 -106 290l1 7h319l-1 -7
c-150 0 -181 -153 -206 -309zM535 756l-3 6c114 63 197 122 226 122c14 0 23 -10 23 -24z" />
    <glyph glyph-name="Ucircumflex.alt" horiz-adv-x="854" 
d="M727 384l-23 -146c-27 -171 -117 -245 -291 -245c-192 0 -302 45 -269 256l43 271c19 121 27 173 -77 173l1 7h388v-7c-75 0 -92 -45 -112 -173l-37 -238c-20 -126 -35 -275 103 -275c125 0 214 70 240 231l27 165c22 137 41 290 -106 290l1 7h319l-1 -7
c-150 0 -181 -153 -206 -309zM579 867l135 -120l-6 -5l-138 67l-160 -67l-4 5z" />
    <glyph glyph-name="Utilde.alt" horiz-adv-x="854" 
d="M727 384l-23 -146c-27 -171 -117 -245 -291 -245c-192 0 -302 45 -269 256l43 271c19 121 27 173 -77 173l1 7h388v-7c-75 0 -92 -45 -112 -173l-37 -238c-20 -126 -35 -275 103 -275c125 0 214 70 240 231l27 165c22 137 41 290 -106 290l1 7h319l-1 -7
c-150 0 -181 -153 -206 -309zM377 774l-8 3c37 60 62 82 101 82c78 0 115 -87 191 -87c32 0 54 16 86 67l8 -3c-38 -62 -64 -74 -94 -74c-81 0 -118 87 -194 87c-29 0 -52 -13 -90 -75z" />
    <glyph glyph-name="Udieresis.alt" horiz-adv-x="854" 
d="M727 384l-23 -146c-27 -171 -117 -245 -291 -245c-192 0 -302 45 -269 256l43 271c19 121 27 173 -77 173l1 7h388v-7c-75 0 -92 -45 -112 -173l-37 -238c-20 -126 -35 -275 103 -275c125 0 214 70 240 231l27 165c22 137 41 290 -106 290l1 7h319l-1 -7
c-150 0 -181 -153 -206 -309zM479 861c26 0 44 -21 44 -46c0 -34 -29 -61 -61 -61c-25 0 -44 20 -44 47c0 32 30 60 61 60zM677 861c26 0 44 -21 44 -46c0 -34 -29 -61 -61 -61c-25 0 -44 20 -44 47c0 32 30 60 61 60z" />
    <glyph glyph-name="Umacron.alt" horiz-adv-x="854" 
d="M727 384l-23 -146c-27 -171 -117 -245 -291 -245c-192 0 -302 45 -269 256l43 271c19 121 27 173 -77 173l1 7h388v-7c-75 0 -92 -45 -112 -173l-37 -238c-20 -126 -35 -275 103 -275c125 0 214 70 240 231l27 165c22 137 41 290 -106 290l1 7h319l-1 -7
c-150 0 -181 -153 -206 -309zM722 795l-2 -10h-318l2 10h318z" />
    <glyph glyph-name="Ubreve.alt" horiz-adv-x="854" 
d="M727 384l-23 -146c-27 -171 -117 -245 -291 -245c-192 0 -302 45 -269 256l43 271c19 121 27 173 -77 173l1 7h388v-7c-75 0 -92 -45 -112 -173l-37 -238c-20 -126 -35 -275 103 -275c125 0 214 70 240 231l27 165c22 137 41 290 -106 290l1 7h319l-1 -7
c-150 0 -181 -153 -206 -309zM721 846l8 -2c-15 -41 -84 -92 -169 -92s-136 51 -139 92l8 2c7 -39 56 -64 136 -64s137 25 156 64z" />
    <glyph glyph-name="Uring.alt" horiz-adv-x="854" 
d="M727 384l-23 -146c-27 -171 -117 -245 -291 -245c-192 0 -302 45 -269 256l43 271c19 121 27 173 -77 173l1 7h388v-7c-75 0 -92 -45 -112 -173l-37 -238c-20 -126 -35 -275 103 -275c125 0 214 70 240 231l27 165c22 137 41 290 -106 290l1 7h319l-1 -7
c-150 0 -181 -153 -206 -309zM590 936c51 0 88 -37 88 -84c0 -60 -57 -109 -118 -109c-52 0 -88 37 -88 85c0 59 56 108 118 108zM590 926c-57 0 -108 -44 -108 -98c0 -42 32 -75 78 -75c56 0 108 45 108 99c0 41 -33 74 -78 74z" />
    <glyph glyph-name="Uhungarumlaut.alt" horiz-adv-x="854" 
d="M727 384l-23 -146c-27 -171 -117 -245 -291 -245c-192 0 -302 45 -269 256l43 271c19 121 27 173 -77 173l1 7h388v-7c-75 0 -92 -45 -112 -173l-37 -238c-20 -126 -35 -275 103 -275c125 0 214 70 240 231l27 165c22 137 41 290 -106 290l1 7h319l-1 -7
c-150 0 -181 -153 -206 -309zM499 749l-4 6c114 97 121 133 146 136c15 2 26 -8 26 -21zM626 749l-4 6c114 97 121 133 146 136c15 2 26 -8 26 -21z" />
    <glyph glyph-name="Uogonek.alt" horiz-adv-x="854" 
d="M514 -173c-50 3 -67 23 -67 49c0 42 48 98 73 129c-31 -8 -67 -12 -107 -12c-192 0 -302 45 -269 256l43 271c19 121 27 173 -77 173l1 7h388v-7c-75 0 -92 -45 -112 -173l-37 -238c-20 -126 -35 -275 103 -275c125 0 214 70 240 231l27 165c22 137 41 290 -106 290l1 7
h319l-1 -7c-150 0 -181 -153 -206 -309l-23 -146c-21 -129 -77 -203 -177 -232c-24 -29 -71 -88 -71 -127c0 -22 16 -39 60 -42z" />
    <glyph glyph-name="V.alt" horiz-adv-x="893" 
d="M547 201l119 200c56 95 166 292 3 292l1 7h293l-1 -7c-116 0 -214 -174 -285 -293l-260 -434l-172 556c-37 118 -66 171 -135 171l1 7h414l-1 -7c-91 0 -94 -77 -70 -162z" />
    <glyph glyph-name="Wgrave" unicode="&#x1e80;" horiz-adv-x="1172" 
d="M861 493c0 -54 -16 -113 -44 -172c26 -84 61 -158 61 -214c0 -49 -41 -90 -98 -138l1 -1c232 156 387 377 387 524c0 48 -26 82 -71 82c-34 0 -66 -19 -80 -51c-59 4 -87 38 -87 90c0 75 59 124 124 124c70 0 143 -56 143 -177c0 -243 -230 -491 -433 -610l-3 6
c8 12 12 27 12 42c0 44 -26 100 -56 164c-68 -84 -154 -160 -245 -212l-3 6c8 12 12 27 12 42c0 107 -202 266 -202 459c0 151 125 218 267 228v1c-125 0 -234 98 -358 98c-62 0 -106 -25 -106 -78c0 -47 35 -63 66 -63c27 0 55 13 76 40c117 -53 42 -200 -77 -200
c-73 0 -147 56 -147 145c0 91 77 165 184 165c124 0 259 -100 358 -100c36 0 42 13 42 24c0 18 -17 33 -45 16c-23 43 10 78 46 78c25 0 54 -16 54 -51s-30 -44 -60 -67c-67 -53 -90 -126 -90 -203c0 -151 85 -320 85 -398c0 -49 -29 -75 -86 -123l1 -1
c90 61 166 132 223 204c-40 85 -84 182 -84 281c0 122 69 180 130 180c53 0 103 -46 103 -140zM792 471c0 -46 8 -91 21 -134c24 55 37 108 37 153c0 31 -6 70 -28 70c-26 0 -30 -59 -30 -89zM807 753l-4 -6l-215 98c0 16 14 30 32 30c29 0 94 -59 187 -122z" />
    <glyph glyph-name="Wacute" unicode="&#x1e82;" horiz-adv-x="1172" 
d="M861 493c0 -54 -16 -113 -44 -172c26 -84 61 -158 61 -214c0 -49 -41 -90 -98 -138l1 -1c232 156 387 377 387 524c0 48 -26 82 -71 82c-34 0 -66 -19 -80 -51c-59 4 -87 38 -87 90c0 75 59 124 124 124c70 0 143 -56 143 -177c0 -243 -230 -491 -433 -610l-3 6
c8 12 12 27 12 42c0 44 -26 100 -56 164c-68 -84 -154 -160 -245 -212l-3 6c8 12 12 27 12 42c0 107 -202 266 -202 459c0 151 125 218 267 228v1c-125 0 -234 98 -358 98c-62 0 -106 -25 -106 -78c0 -47 35 -63 66 -63c27 0 55 13 76 40c117 -53 42 -200 -77 -200
c-73 0 -147 56 -147 145c0 91 77 165 184 165c124 0 259 -100 358 -100c36 0 42 13 42 24c0 18 -17 33 -45 16c-23 43 10 78 46 78c25 0 54 -16 54 -51s-30 -44 -60 -67c-67 -53 -90 -126 -90 -203c0 -151 85 -320 85 -398c0 -49 -29 -75 -86 -123l1 -1
c90 61 166 132 223 204c-40 85 -84 182 -84 281c0 122 69 180 130 180c53 0 103 -46 103 -140zM792 471c0 -46 8 -91 21 -134c24 55 37 108 37 153c0 31 -6 70 -28 70c-26 0 -30 -59 -30 -89zM748 705l-3 6c114 63 197 122 226 122c14 0 23 -10 23 -24z" />
    <glyph glyph-name="Wcircumflex" unicode="&#x174;" horiz-adv-x="1172" 
d="M861 493c0 -54 -16 -113 -44 -172c26 -84 61 -158 61 -214c0 -49 -41 -90 -98 -138l1 -1c232 156 387 377 387 524c0 48 -26 82 -71 82c-34 0 -66 -19 -80 -51c-59 4 -87 38 -87 90c0 75 59 124 124 124c70 0 143 -56 143 -177c0 -243 -230 -491 -433 -610l-3 6
c8 12 12 27 12 42c0 44 -26 100 -56 164c-68 -84 -154 -160 -245 -212l-3 6c8 12 12 27 12 42c0 107 -202 266 -202 459c0 151 125 218 267 228v1c-125 0 -234 98 -358 98c-62 0 -106 -25 -106 -78c0 -47 35 -63 66 -63c27 0 55 13 76 40c117 -53 42 -200 -77 -200
c-73 0 -147 56 -147 145c0 91 77 165 184 165c124 0 259 -100 358 -100c36 0 42 13 42 24c0 18 -17 33 -45 16c-23 43 10 78 46 78c25 0 54 -16 54 -51s-30 -44 -60 -67c-67 -53 -90 -126 -90 -203c0 -151 85 -320 85 -398c0 -49 -29 -75 -86 -123l1 -1
c90 61 166 132 223 204c-40 85 -84 182 -84 281c0 122 69 180 130 180c53 0 103 -46 103 -140zM784 807l135 -120l-6 -5l-138 67l-160 -67l-4 5zM792 471c0 -46 8 -91 21 -134c24 55 37 108 37 153c0 31 -6 70 -28 70c-26 0 -30 -59 -30 -89z" />
    <glyph glyph-name="Wdieresis" unicode="&#x1e84;" horiz-adv-x="1172" 
d="M861 493c0 -54 -16 -113 -44 -172c26 -84 61 -158 61 -214c0 -49 -41 -90 -98 -138l1 -1c232 156 387 377 387 524c0 48 -26 82 -71 82c-34 0 -66 -19 -80 -51c-59 4 -87 38 -87 90c0 75 59 124 124 124c70 0 143 -56 143 -177c0 -243 -230 -491 -433 -610l-3 6
c8 12 12 27 12 42c0 44 -26 100 -56 164c-68 -84 -154 -160 -245 -212l-3 6c8 12 12 27 12 42c0 107 -202 266 -202 459c0 151 125 218 267 228v1c-125 0 -234 98 -358 98c-62 0 -106 -25 -106 -78c0 -47 35 -63 66 -63c27 0 55 13 76 40c117 -53 42 -200 -77 -200
c-73 0 -147 56 -147 145c0 91 77 165 184 165c124 0 259 -100 358 -100c36 0 42 13 42 24c0 18 -17 33 -45 16c-23 43 10 78 46 78c25 0 54 -16 54 -51s-30 -44 -60 -67c-67 -53 -90 -126 -90 -203c0 -151 85 -320 85 -398c0 -49 -29 -75 -86 -123l1 -1
c90 61 166 132 223 204c-40 85 -84 182 -84 281c0 122 69 180 130 180c53 0 103 -46 103 -140zM792 471c0 -46 8 -91 21 -134c24 55 37 108 37 153c0 31 -6 70 -28 70c-26 0 -30 -59 -30 -89zM705 852c26 0 44 -21 44 -46c0 -34 -29 -61 -61 -61c-25 0 -44 20 -44 47
c0 32 30 60 61 60zM903 852c26 0 44 -21 44 -46c0 -34 -29 -61 -61 -61c-25 0 -44 20 -44 47c0 32 30 60 61 60z" />
    <glyph glyph-name="W.alt" horiz-adv-x="1248" 
d="M536 219l138 216l-38 147c-22 87 -36 111 -81 111l1 7h368l-1 -7c-77 0 -76 -69 -57 -144l81 -318l101 169c71 119 145 293 -5 293l1 7h274l-1 -7c-84 0 -152 -116 -259 -293l-262 -434l-120 453l-288 -453l-156 556c-27 96 -49 171 -122 171l1 7h374l-1 -7
c-46 0 -63 -40 -48 -96z" />
    <glyph glyph-name="Wgrave.alt" horiz-adv-x="1248" 
d="M536 219l138 216l-38 147c-22 87 -36 111 -81 111l1 7h368l-1 -7c-77 0 -76 -69 -57 -144l81 -318l101 169c71 119 145 293 -5 293l1 7h274l-1 -7c-84 0 -152 -116 -259 -293l-262 -434l-120 453l-288 -453l-156 556c-27 96 -49 171 -122 171l1 7h374l-1 -7
c-46 0 -63 -40 -48 -96zM761 762l-4 -6l-215 98c0 16 14 30 32 30c29 0 94 -59 187 -122z" />
    <glyph glyph-name="Wacute.alt" horiz-adv-x="1248" 
d="M536 219l138 216l-38 147c-22 87 -36 111 -81 111l1 7h368l-1 -7c-77 0 -76 -69 -57 -144l81 -318l101 169c71 119 145 293 -5 293l1 7h274l-1 -7c-84 0 -152 -116 -259 -293l-262 -434l-120 453l-288 -453l-156 556c-27 96 -49 171 -122 171l1 7h374l-1 -7
c-46 0 -63 -40 -48 -96zM715 756l-3 6c114 63 197 122 226 122c14 0 23 -10 23 -24z" />
    <glyph glyph-name="Wcircumflex.alt" horiz-adv-x="1248" 
d="M536 219l138 216l-38 147c-22 87 -36 111 -81 111l1 7h368l-1 -7c-77 0 -76 -69 -57 -144l81 -318l101 169c71 119 145 293 -5 293l1 7h274l-1 -7c-84 0 -152 -116 -259 -293l-262 -434l-120 453l-288 -453l-156 556c-27 96 -49 171 -122 171l1 7h374l-1 -7
c-46 0 -63 -40 -48 -96zM759 867l135 -120l-6 -5l-138 67l-160 -67l-4 5z" />
    <glyph glyph-name="Wdieresis.alt" horiz-adv-x="1248" 
d="M536 219l138 216l-38 147c-22 87 -36 111 -81 111l1 7h368l-1 -7c-77 0 -76 -69 -57 -144l81 -318l101 169c71 119 145 293 -5 293l1 7h274l-1 -7c-84 0 -152 -116 -259 -293l-262 -434l-120 453l-288 -453l-156 556c-27 96 -49 171 -122 171l1 7h374l-1 -7
c-46 0 -63 -40 -48 -96zM659 861c26 0 44 -21 44 -46c0 -34 -29 -61 -61 -61c-25 0 -44 20 -44 47c0 32 30 60 61 60zM857 861c26 0 44 -21 44 -46c0 -34 -29 -61 -61 -61c-25 0 -44 20 -44 47c0 32 30 60 61 60z" />
    <glyph glyph-name="X.alt" horiz-adv-x="862" 
d="M563 433l159 -297c49 -92 81 -129 136 -129l-1 -7h-406l1 7c100 0 50 103 7 181l-62 113c-104 -110 -188 -294 -45 -294l-1 -7h-337l1 7c139 0 269 184 377 302l-133 247c-59 110 -83 137 -145 137l1 7h429l-1 -7c-71 0 -79 -59 -52 -115l66 -138c86 94 205 253 85 253
l1 7h284l-1 -7c-123 0 -265 -150 -363 -260z" />
    <glyph glyph-name="Ygrave" unicode="&#x1ef2;" horiz-adv-x="544" 
d="M849 827c-86 0 -162 -72 -234 -201l-174 -313l-21 -133c-19 -117 -28 -173 77 -173l-1 -7h-410l1 7c105 0 114 56 133 173l15 101c-24 185 -98 388 -185 388c-13 0 -31 -10 -47 -23l-3 5c44 37 115 76 184 76c189 0 253 -243 218 -456l202 360c49 86 135 213 246 213
c95 0 144 -59 144 -136c0 -86 -60 -166 -153 -166c-73 0 -118 48 -118 103c0 32 16 80 73 95c12 -27 32 -42 62 -42c42 0 66 31 66 68c0 34 -19 61 -75 61zM480 765l-4 -6l-215 98c0 16 14 30 32 30c29 0 94 -59 187 -122z" />
    <glyph glyph-name="Yacute" unicode="&#xdd;" horiz-adv-x="544" 
d="M849 827c-86 0 -162 -72 -234 -201l-174 -313l-21 -133c-19 -117 -28 -173 77 -173l-1 -7h-410l1 7c105 0 114 56 133 173l15 101c-24 185 -98 388 -185 388c-13 0 -31 -10 -47 -23l-3 5c44 37 115 76 184 76c189 0 253 -243 218 -456l202 360c49 86 135 213 246 213
c95 0 144 -59 144 -136c0 -86 -60 -166 -153 -166c-73 0 -118 48 -118 103c0 32 16 80 73 95c12 -27 32 -42 62 -42c42 0 66 31 66 68c0 34 -19 61 -75 61zM434 759l-3 6c114 63 197 122 226 122c14 0 23 -10 23 -24z" />
    <glyph glyph-name="Ycircumflex" unicode="&#x176;" horiz-adv-x="544" 
d="M849 827c-86 0 -162 -72 -234 -201l-174 -313l-21 -133c-19 -117 -28 -173 77 -173l-1 -7h-410l1 7c105 0 114 56 133 173l15 101c-24 185 -98 388 -185 388c-13 0 -31 -10 -47 -23l-3 5c44 37 115 76 184 76c189 0 253 -243 218 -456l202 360c49 86 135 213 246 213
c95 0 144 -59 144 -136c0 -86 -60 -166 -153 -166c-73 0 -118 48 -118 103c0 32 16 80 73 95c12 -27 32 -42 62 -42c42 0 66 31 66 68c0 34 -19 61 -75 61zM478 870l135 -120l-6 -5l-138 67l-160 -67l-4 5z" />
    <glyph glyph-name="Ydieresis" unicode="&#x178;" horiz-adv-x="544" 
d="M849 827c-86 0 -162 -72 -234 -201l-174 -313l-21 -133c-19 -117 -28 -173 77 -173l-1 -7h-410l1 7c105 0 114 56 133 173l15 101c-24 185 -98 388 -185 388c-13 0 -31 -10 -47 -23l-3 5c44 37 115 76 184 76c189 0 253 -243 218 -456l202 360c49 86 135 213 246 213
c95 0 144 -59 144 -136c0 -86 -60 -166 -153 -166c-73 0 -118 48 -118 103c0 32 16 80 73 95c12 -27 32 -42 62 -42c42 0 66 31 66 68c0 34 -19 61 -75 61zM378 864c26 0 44 -21 44 -46c0 -34 -29 -61 -61 -61c-25 0 -44 20 -44 47c0 32 30 60 61 60zM576 864
c26 0 44 -21 44 -46c0 -34 -29 -61 -61 -61c-25 0 -44 20 -44 47c0 32 30 60 61 60z" />
    <glyph glyph-name="Y.alt" horiz-adv-x="867" 
d="M562 315l-21 -135c-18 -117 -28 -173 77 -173l-1 -7h-410l1 7c105 0 113 56 132 173l17 104l-123 287c-37 85 -57 122 -124 122l1 7h414l-1 -7c-108 0 -72 -100 -51 -153l85 -216l64 97c83 126 179 272 40 272l1 7h284l-1 -7c-108 0 -221 -128 -317 -275z" />
    <glyph glyph-name="Ygrave.alt" horiz-adv-x="867" 
d="M562 315l-21 -135c-18 -117 -28 -173 77 -173l-1 -7h-410l1 7c105 0 113 56 132 173l17 104l-123 287c-37 85 -57 122 -124 122l1 7h414l-1 -7c-108 0 -72 -100 -51 -153l85 -216l64 97c83 126 179 272 40 272l1 7h284l-1 -7c-108 0 -221 -128 -317 -275zM603 762l-4 -6
l-215 98c0 16 14 30 32 30c29 0 94 -59 187 -122z" />
    <glyph glyph-name="Yacute.alt" horiz-adv-x="867" 
d="M562 315l-21 -135c-18 -117 -28 -173 77 -173l-1 -7h-410l1 7c105 0 113 56 132 173l17 104l-123 287c-37 85 -57 122 -124 122l1 7h414l-1 -7c-108 0 -72 -100 -51 -153l85 -216l64 97c83 126 179 272 40 272l1 7h284l-1 -7c-108 0 -221 -128 -317 -275zM557 756l-3 6
c114 63 197 122 226 122c14 0 23 -10 23 -24z" />
    <glyph glyph-name="Ycircumflex.alt" horiz-adv-x="867" 
d="M562 315l-21 -135c-18 -117 -28 -173 77 -173l-1 -7h-410l1 7c105 0 113 56 132 173l17 104l-123 287c-37 85 -57 122 -124 122l1 7h414l-1 -7c-108 0 -72 -100 -51 -153l85 -216l64 97c83 126 179 272 40 272l1 7h284l-1 -7c-108 0 -221 -128 -317 -275zM601 867
l135 -120l-6 -5l-138 67l-160 -67l-4 5z" />
    <glyph glyph-name="Ydieresis.alt" horiz-adv-x="867" 
d="M562 315l-21 -135c-18 -117 -28 -173 77 -173l-1 -7h-410l1 7c105 0 113 56 132 173l17 104l-123 287c-37 85 -57 122 -124 122l1 7h414l-1 -7c-108 0 -72 -100 -51 -153l85 -216l64 97c83 126 179 272 40 272l1 7h284l-1 -7c-108 0 -221 -128 -317 -275zM501 861
c26 0 44 -21 44 -46c0 -34 -29 -61 -61 -61c-25 0 -44 20 -44 47c0 32 30 60 61 60zM699 861c26 0 44 -21 44 -46c0 -34 -29 -61 -61 -61c-25 0 -44 20 -44 47c0 32 30 60 61 60z" />
    <glyph glyph-name="Y.calt" horiz-adv-x="565" 
d="M402 271c112 117 245 325 245 445c0 42 -29 60 -58 60c-28 0 -58 -18 -62 -47c-47 3 -69 40 -69 78c0 62 50 100 101 100c55 0 112 -43 112 -142c0 -132 -109 -332 -234 -472l-17 -113c-18 -117 -28 -173 77 -173l-1 -7h-410l1 7c105 0 114 56 133 173l15 101
c-24 185 -98 388 -185 388c-13 0 -31 -10 -47 -23l-3 5c44 37 115 76 184 76c189 0 253 -243 218 -456z" />
    <glyph glyph-name="Ygrave.calt" horiz-adv-x="565" 
d="M402 271c112 117 245 325 245 445c0 42 -29 60 -58 60c-28 0 -58 -18 -62 -47c-47 3 -69 40 -69 78c0 62 50 100 101 100c55 0 112 -43 112 -142c0 -132 -109 -332 -234 -472l-17 -113c-18 -117 -28 -173 77 -173l-1 -7h-410l1 7c105 0 114 56 133 173l15 101
c-24 185 -98 388 -185 388c-13 0 -31 -10 -47 -23l-3 5c44 37 115 76 184 76c189 0 253 -243 218 -456zM422 762l-4 -6l-215 98c0 16 14 30 32 30c29 0 94 -59 187 -122z" />
    <glyph glyph-name="Yacute.calt" horiz-adv-x="565" 
d="M376 756l-3 6c31 17 59 33 85 49c2 59 51 96 101 96c55 0 112 -43 112 -142c0 -132 -109 -332 -234 -472l-17 -113c-18 -117 -28 -173 77 -173l-1 -7h-410l1 7c105 0 114 56 133 173l15 101c-24 185 -98 388 -185 388c-13 0 -31 -10 -47 -23l-3 5c44 37 115 76 184 76
c189 0 253 -243 218 -456c112 117 245 325 245 445c0 42 -29 60 -58 60c-28 0 -58 -18 -62 -47c-41 2 -62 30 -68 62z" />
    <glyph glyph-name="Ycircumflex.calt" horiz-adv-x="565" 
d="M433 867l30 -27c14 42 55 67 96 67c55 0 112 -43 112 -142c0 -132 -109 -332 -234 -472l-17 -113c-18 -117 -28 -173 77 -173l-1 -7h-410l1 7c105 0 114 56 133 173l15 101c-24 185 -98 388 -185 388c-13 0 -31 -10 -47 -23l-3 5c44 37 115 76 184 76
c189 0 253 -243 218 -456c112 117 245 325 245 445c0 42 -29 60 -58 60c-14 0 -29 -5 -40 -13l19 -16l-6 -5l-24 11c-6 -7 -10 -15 -11 -24c-41 2 -63 30 -68 63l-35 17l-160 -67l-4 5z" />
    <glyph glyph-name="Ydieresis.calt" horiz-adv-x="565" 
d="M402 271c112 117 245 325 245 445c0 42 -29 60 -58 60c-28 0 -58 -18 -62 -47c-47 3 -69 40 -69 78c0 62 50 100 101 100c55 0 112 -43 112 -142c0 -132 -109 -332 -234 -472l-17 -113c-18 -117 -28 -173 77 -173l-1 -7h-410l1 7c105 0 114 56 133 173l15 101
c-24 185 -98 388 -185 388c-13 0 -31 -10 -47 -23l-3 5c44 37 115 76 184 76c189 0 253 -243 218 -456zM330 861c26 0 44 -21 44 -46c0 -34 -29 -61 -61 -61c-25 0 -44 20 -44 47c0 32 30 60 61 60z" />
    <glyph glyph-name="Zacute" unicode="&#x179;" horiz-adv-x="675" 
d="M550 284l2 3c73 -34 124 -122 124 -193c0 -79 -60 -176 -167 -176c-136 0 -276 181 -396 181c-23 0 -53 -9 -53 -40c0 -24 35 -42 66 -16c36 -62 -10 -109 -60 -109c-30 0 -66 17 -66 73c0 43 23 70 60 88c85 236 500 259 592 453c-151 -66 -483 -10 -483 -147
c0 -23 8 -40 39 -59l-2 -3c-73 34 -124 122 -124 193c0 79 60 176 167 176c136 0 245 -159 365 -159c23 0 52 11 52 42c0 24 -35 45 -66 19c-36 62 10 109 60 109c30 0 66 -17 66 -73c0 -44 -23 -72 -60 -91c-75 -206 -497 -225 -594 -454c158 63 517 -13 517 124
c0 23 -8 40 -39 59zM404 756l-3 6c114 63 197 122 226 122c14 0 23 -10 23 -24z" />
    <glyph glyph-name="Zcaron" unicode="&#x17d;" horiz-adv-x="675" 
d="M550 284l2 3c73 -34 124 -122 124 -193c0 -79 -60 -176 -167 -176c-136 0 -276 181 -396 181c-23 0 -53 -9 -53 -40c0 -24 35 -42 66 -16c36 -62 -10 -109 -60 -109c-30 0 -66 17 -66 73c0 43 23 70 60 88c85 236 500 259 592 453c-151 -66 -483 -10 -483 -147
c0 -23 8 -40 39 -59l-2 -3c-73 34 -124 122 -124 193c0 79 60 176 167 176c136 0 245 -159 365 -159c23 0 52 11 52 42c0 24 -35 45 -66 19c-36 62 10 109 60 109c30 0 66 -17 66 -73c0 -44 -23 -72 -60 -91c-75 -206 -497 -225 -594 -454c158 63 517 -13 517 124
c0 23 -8 40 -39 59zM601 870l-173 -120l-135 120l6 5l138 -67l160 67z" />
    <glyph glyph-name="Zdotaccent" unicode="&#x17b;" horiz-adv-x="675" 
d="M550 284l2 3c73 -34 124 -122 124 -193c0 -79 -60 -176 -167 -176c-136 0 -276 181 -396 181c-23 0 -53 -9 -53 -40c0 -24 35 -42 66 -16c36 -62 -10 -109 -60 -109c-30 0 -66 17 -66 73c0 43 23 70 60 88c85 236 500 259 592 453c-151 -66 -483 -10 -483 -147
c0 -23 8 -40 39 -59l-2 -3c-73 34 -124 122 -124 193c0 79 60 176 167 176c136 0 245 -159 365 -159c23 0 52 11 52 42c0 24 -35 45 -66 19c-36 62 10 109 60 109c30 0 66 -17 66 -73c0 -44 -23 -72 -60 -91c-75 -206 -497 -225 -594 -454c158 63 517 -13 517 124
c0 23 -8 40 -39 59zM445 862c26 0 45 -21 45 -46c0 -34 -29 -61 -62 -61c-25 0 -44 20 -44 47c0 32 31 60 61 60z" />
    <glyph glyph-name="Z.alt" horiz-adv-x="684" 
d="M513 691h-111c-167 0 -250 -96 -289 -247h-10l66 256h583l-515 -691h72c194 0 318 127 376 304h10l-99 -313h-596z" />
    <glyph glyph-name="Zacute.alt" horiz-adv-x="684" 
d="M513 691h-111c-167 0 -250 -96 -289 -247h-10l66 256h583l-515 -691h72c194 0 318 127 376 304h10l-99 -313h-596zM426 756l-3 6c114 63 197 122 226 122c14 0 23 -10 23 -24z" />
    <glyph glyph-name="Zcaron.alt" horiz-adv-x="684" 
d="M513 691h-111c-167 0 -250 -96 -289 -247h-10l66 256h583l-515 -691h72c194 0 318 127 376 304h10l-99 -313h-596zM623 870l-173 -120l-135 120l6 5l138 -67l160 67z" />
    <glyph glyph-name="Zdotaccent.alt" horiz-adv-x="684" 
d="M513 691h-111c-167 0 -250 -96 -289 -247h-10l66 256h583l-515 -691h72c194 0 318 127 376 304h10l-99 -313h-596zM467 862c26 0 45 -21 45 -46c0 -34 -29 -61 -62 -61c-25 0 -44 20 -44 47c0 32 31 60 61 60z" />
    <glyph glyph-name="Z.swsh" horiz-adv-x="617" 
d="M222 362l-2 -3c-73 34 -124 122 -124 193c0 79 60 176 167 176c136 0 245 -159 365 -159c23 0 52 11 52 42c0 24 -35 45 -66 19c-36 62 10 109 60 109c30 0 66 -17 66 -73c0 -41 -21 -69 -54 -88c-38 -119 -300 -432 -544 -552c227 -62 520 -211 901 -211
c80 0 131 7 170 39l4 -2c-78 -143 -176 -235 -335 -235c-292 0 -556 290 -776 392c-48 -19 -94 -30 -137 -30c-53 0 -109 16 -109 38c0 20 47 37 113 37c48 0 99 -9 154 -24c234 111 502 417 546 541c-147 -71 -490 -11 -490 -150c0 -23 8 -40 39 -59zM-26 -10
c37 0 77 10 118 25c-42 19 -83 30 -122 30c-37 0 -79 -10 -79 -26c0 -15 37 -29 83 -29z" />
    <glyph glyph-name="Thorn" unicode="&#xde;" horiz-adv-x="694" 
d="M327 146l1 8h8c101 0 149 60 171 197c21 136 -7 196 -106 196h-21l-64 -401c-15 -94 -11 -139 83 -139l-1 -7h-408l1 7c104 0 113 56 132 173l53 340c20 121 28 173 -77 173l1 7h409l-1 -7c-94 0 -111 -43 -127 -139h46c212 0 316 -58 293 -203
c-27 -171 -241 -205 -381 -205h-12z" />
    <glyph glyph-name="Thorn.alt" horiz-adv-x="694" 
d="M398 0h-408l1 7c104 0 113 56 132 173l53 340c20 121 28 173 -77 173l1 7h409l-1 -7c-94 0 -111 -43 -127 -139h46c212 0 316 -58 293 -203c-27 -171 -241 -205 -381 -205h-23c-14 -94 -11 -139 83 -139zM401 547h-21l-63 -393h19c101 0 149 60 171 197
c21 136 -7 196 -106 196z" />
    <glyph glyph-name="a" unicode="a" 
d="M378 524c-83 0 -157 -234 -157 -398c0 -41 9 -79 35 -79c61 0 127 156 153 303l11 61c15 81 7 113 -42 113zM616 528l-53 -310c-15 -86 -24 -198 20 -215l-3 -3c-23 -5 -47 -7 -71 -7c-85 0 -160 36 -130 161l37 154l-4 1c-63 -249 -140 -316 -230 -316
c-105 0 -142 93 -142 185c0 159 143 354 326 354c99 0 178 -86 250 -4z" />
    <glyph glyph-name="b" unicode="b" horiz-adv-x="590" 
d="M262 320l-8 3c54 170 123 217 203 217c95 0 148 -60 148 -168c0 -162 -102 -379 -311 -379c-150 0 -260 95 -239 231l79 498c3 20 -13 35 -41 26l-3 3c35 17 105 39 153 39c57 0 79 -21 68 -89l-96 -587c-3 -19 -19 -105 25 -105c87 0 185 272 186 427c0 42 -6 72 -27 72
c-40 0 -99 -70 -137 -188z" />
    <glyph glyph-name="c" unicode="c" horiz-adv-x="553" 
d="M40 205c0 174 146 327 336 327c71 0 192 -24 192 -124c0 -57 -46 -112 -114 -112c-45 0 -86 28 -79 88c41 11 61 44 61 75c0 34 -23 65 -68 65c-99 0 -140 -160 -140 -245c0 -120 64 -176 143 -176c59 0 114 24 155 71l6 -3c-71 -119 -186 -178 -287 -178
c-111 0 -205 71 -205 212z" />
    <glyph glyph-name="d" unicode="d" horiz-adv-x="614" 
d="M651 701l-78 -483c-14 -86 -24 -198 20 -215l-3 -3c-23 -5 -47 -7 -71 -7c-85 0 -160 36 -130 161l30 154l-4 1c-55 -246 -132 -316 -227 -316s-148 60 -148 168c0 162 113 371 322 371c28 0 46 -2 68 -9l-2 -3c-124 -6 -205 -263 -209 -423c-1 -42 9 -72 30 -72
c56 0 128 125 155 286l70 411c3 20 -13 35 -41 26l-3 3c35 17 105 39 153 39c57 0 79 -21 68 -89z" />
    <glyph glyph-name="e" unicode="e" horiz-adv-x="553" 
d="M237 318c135 -7 188 70 188 141c0 39 -24 65 -58 65c-77 0 -132 -121 -138 -222c-6 -106 32 -199 143 -199c46 0 107 16 154 71l6 -3c-63 -104 -169 -178 -285 -178c-121 0 -207 80 -207 214c0 171 146 325 336 325c78 0 192 -19 192 -112c0 -74 -86 -171 -332 -106z" />
    <glyph glyph-name="f" unicode="f" horiz-adv-x="309" 
d="M76 525h52c23 139 44 257 197 257c89 0 144 -45 144 -109c0 -62 -43 -111 -120 -111c-57 0 -110 53 -83 112c34 -7 63 15 63 49c0 25 -9 47 -39 47c-44 0 -91 -47 -91 -101c0 -85 102 -104 93 -144h84l-2 -10h-68l-79 -502c-19 -120 -84 -257 -210 -257
c-86 0 -135 45 -135 108c0 74 58 105 113 105c52 0 102 -34 95 -102c-37 2 -58 -16 -58 -46c0 -22 13 -38 37 -38c45 0 60 41 60 86c0 85 -88 105 -74 194l72 452h-53z" />
    <glyph glyph-name="g" unicode="g" 
d="M378 524c-83 0 -157 -234 -157 -398c0 -41 9 -79 35 -79c61 0 127 156 153 303l11 61c15 81 7 113 -42 113zM616 528l-82 -521c-22 -137 -125 -232 -315 -232c-83 0 -198 18 -198 109c0 56 45 97 102 97c41 0 86 -29 80 -83c-37 -4 -56 -30 -56 -56c0 -29 22 -58 77 -58
c78 0 102 58 120 151l72 373l-4 1c-63 -249 -140 -316 -230 -316c-105 0 -142 93 -142 185c0 159 143 354 326 354c99 0 178 -86 250 -4z" />
    <glyph glyph-name="h" unicode="h" horiz-adv-x="596" 
d="M42 149l94 573c3 20 -13 35 -41 26l-3 3c35 17 105 39 153 39c57 0 79 -21 66 -89l-93 -484l4 -1c67 256 167 316 257 316c125 0 117 -103 105 -172l-24 -142c-15 -86 -24 -198 20 -215l-3 -3c-108 -21 -231 -8 -205 154l40 248c7 47 7 76 -17 76
c-56 0 -125 -115 -162 -264c-17 -69 -45 -194 -11 -211l-3 -3c-136 -20 -206 -12 -177 149z" />
    <glyph glyph-name="i" unicode="i" horiz-adv-x="280" 
d="M49 149l52 315c3 20 -13 35 -41 26l-3 3c35 17 105 39 153 39c57 0 77 -21 66 -89l-38 -230c-12 -70 -35 -193 2 -210l-3 -3c-25 -5 -50 -8 -73 -8c-76 0 -136 34 -115 157zM147 571l-2 3c21 33 31 109 1 147c24 44 70 72 111 72c38 0 83 -23 83 -79
c0 -78 -90 -147 -193 -143z" />
    <glyph glyph-name="j" unicode="j" horiz-adv-x="280" 
d="M36 63l65 401c3 20 -13 35 -41 26l-3 3c35 17 105 39 153 39c57 0 77 -21 66 -89l-68 -430c-19 -120 -84 -257 -210 -257c-86 0 -135 45 -135 108c0 74 58 105 113 105c52 0 102 -34 95 -102c-37 2 -58 -16 -58 -46c0 -22 13 -38 37 -38c45 0 60 41 60 86
c0 85 -88 105 -74 194zM147 571l-2 3c21 33 31 109 1 147c24 44 70 72 111 72c38 0 83 -23 83 -79c0 -78 -90 -147 -193 -143z" />
    <glyph glyph-name="k" unicode="k" horiz-adv-x="583" 
d="M261 262l-1 2c68 26 159 84 159 176c0 26 -7 38 -25 38c-53 0 -123 -111 -161 -264c-17 -69 -45 -194 -11 -211l-3 -3c-32 -5 -60 -8 -84 -8c-78 0 -113 34 -93 157l94 573c3 20 -13 35 -41 26l-3 3c35 17 105 39 153 39c57 0 79 -21 66 -89l-93 -484l4 -1
c69 263 171 316 258 316c80 0 119 -45 119 -95c0 -121 -229 -148 -331 -172c165 20 218 -17 239 -82c40 -126 73 -163 116 -180l-3 -3c-37 -7 -78 -14 -117 -14c-82 0 -159 29 -188 144c-20 79 -25 130 -54 132z" />
    <glyph glyph-name="l" unicode="l" horiz-adv-x="269" 
d="M39 149l92 573c3 20 -13 35 -41 26l-3 3c35 17 105 39 153 39c57 0 77 -21 66 -89l-78 -488c-12 -70 -36 -198 -2 -215l-3 -3c-72 -11 -211 -7 -184 154z" />
    <glyph glyph-name="m" unicode="m" horiz-adv-x="911" 
d="M395 478c-56 0 -115 -115 -152 -264c-17 -69 -45 -194 -11 -211l-3 -3c-32 -5 -60 -8 -84 -8c-79 0 -115 34 -93 157l56 315c3 20 -13 35 -41 26l-3 3c35 17 105 39 153 39c57 0 80 -21 66 -89l-55 -226l4 -1c67 256 157 316 247 316c125 0 115 -106 99 -172l-35 -143
l4 -1c67 256 157 316 247 316c125 0 117 -103 105 -172l-24 -142c-15 -86 -24 -198 20 -215l-3 -3c-24 -5 -49 -8 -73 -8c-83 0 -152 36 -132 162l40 248c7 47 7 76 -17 76c-56 0 -115 -115 -152 -264c-17 -69 -45 -194 -11 -211l-3 -3c-32 -5 -60 -8 -84 -8
c-79 0 -114 35 -88 162l40 248c7 47 7 76 -17 76z" />
    <glyph glyph-name="n" unicode="n" 
d="M52 149l56 315c3 20 -13 35 -41 26l-3 3c35 17 105 39 153 39c57 0 80 -21 66 -89l-55 -226l4 -1c67 256 167 316 257 316c125 0 117 -103 105 -172l-24 -142c-15 -86 -24 -198 20 -215l-3 -3c-24 -5 -49 -8 -73 -8c-83 0 -152 36 -132 162l40 248c7 47 7 76 -17 76
c-56 0 -125 -115 -162 -264c-17 -69 -45 -194 -11 -211l-3 -3c-32 -5 -60 -8 -84 -8c-79 0 -115 34 -93 157z" />
    <glyph glyph-name="o" unicode="o" horiz-adv-x="605" 
d="M367 532c143 0 243 -93 243 -225c0 -166 -150 -314 -328 -314c-143 0 -242 94 -242 226c0 171 147 313 327 313zM283 1c111 14 143 301 143 419c0 59 -13 104 -60 104c-110 0 -143 -316 -143 -420c0 -59 14 -103 60 -103z" />
    <glyph glyph-name="p" unicode="p" horiz-adv-x="604" 
d="M217 532c57 0 81 -21 66 -89l-50 -227l4 -1c56 260 139 325 234 325s148 -60 148 -168c0 -162 -121 -374 -330 -374c-28 0 -46 2 -68 9l2 3c124 6 216 266 217 426c0 42 -9 72 -30 72c-56 0 -126 -117 -162 -295l-45 -220c-15 -73 -31 -198 3 -215l-3 -3
c-72 -11 -211 -7 -184 154l89 535c3 20 -13 35 -41 26l-3 3c35 17 105 39 153 39z" />
    <glyph glyph-name="q" unicode="q" 
d="M378 524c-83 0 -157 -234 -157 -398c0 -41 9 -79 35 -79c61 0 127 156 153 303l11 61c15 81 7 113 -42 113zM616 528l-87 -531c-14 -86 -24 -198 20 -215l-3 -3c-24 -5 -48 -8 -72 -8c-83 0 -152 37 -129 162l71 375l-4 1c-63 -249 -140 -316 -230 -316
c-105 0 -142 93 -142 185c0 159 143 354 326 354c99 0 178 -86 250 -4z" />
    <glyph glyph-name="r" unicode="r" horiz-adv-x="544" 
d="M241 213c-17 -69 -45 -193 -11 -210l-3 -3c-18 -5 -39 -8 -60 -8c-69 0 -139 34 -117 157l56 315c3 20 -13 35 -41 26l-3 3c35 17 105 39 153 39c57 0 80 -21 66 -89l-55 -227l4 -1c67 256 134 325 236 325c89 0 128 -56 128 -116c0 -67 -50 -134 -139 -134
c-45 0 -88 28 -82 88c37 0 74 35 74 82c0 31 -16 48 -39 48c-62 0 -124 -122 -167 -295z" />
    <glyph glyph-name="s" unicode="s" horiz-adv-x="535" 
d="M220 -7c-91 0 -205 19 -205 105c0 50 38 96 93 96c39 0 78 -24 72 -73c-29 -10 -47 -37 -47 -66c0 -32 21 -53 93 -53c46 0 153 10 153 76c0 99 -312 94 -312 262c0 138 154 192 279 192c83 0 189 -19 189 -95c0 -45 -34 -86 -83 -86c-34 0 -66 23 -61 67
c22 8 41 29 41 54c0 34 -39 51 -98 51c-45 0 -113 -19 -113 -77c0 -100 307 -80 307 -248c0 -145 -173 -205 -308 -205z" />
    <glyph glyph-name="t" unicode="t" horiz-adv-x="290" 
d="M322 715l-32 -190h70l-2 -10h-69l-50 -302c-14 -86 -24 -198 20 -215l-3 -3c-14 -2 -31 -4 -49 -4c-77 0 -175 28 -153 158l57 366h-45l2 10c144 0 222 48 245 190h9z" />
    <glyph glyph-name="u" unicode="u" horiz-adv-x="604" 
d="M592 375l-29 -157c-16 -86 -24 -198 20 -215l-3 -3c-23 -5 -47 -7 -71 -7c-85 0 -160 36 -130 161l37 154l-4 1c-67 -256 -133 -316 -239 -316c-138 0 -134 103 -123 172l49 299c3 20 -13 35 -41 26l-3 3c35 17 105 39 153 39c57 0 77 -21 66 -89l-52 -320
c-8 -47 1 -76 32 -76c61 0 110 115 147 264c17 69 45 198 11 215l3 3c136 10 207 7 177 -154z" />
    <glyph glyph-name="v" unicode="v" horiz-adv-x="517" 
d="M276 443l-46 -290c-13 -85 -13 -123 30 -123c90 0 261 168 261 296c0 43 -22 72 -61 72c-30 0 -58 -16 -70 -44c-51 3 -76 34 -76 76c0 68 52 110 108 110c61 0 123 -48 123 -156c0 -208 -199 -391 -379 -391c-91 0 -133 48 -117 147l52 324c3 20 -13 35 -41 26l-3 3
c35 17 105 39 153 39c57 0 77 -21 66 -89z" />
    <glyph glyph-name="w" unicode="w" horiz-adv-x="838" 
d="M588 375l-37 -222c-14 -85 -13 -123 30 -123c90 0 261 168 261 296c0 43 -22 72 -61 72c-30 0 -58 -16 -70 -44c-51 3 -76 34 -76 76c0 68 52 110 108 110c61 0 123 -48 123 -156c0 -208 -196 -391 -376 -391c-91 0 -140 49 -117 147l39 168l-4 1
c-67 -256 -129 -316 -235 -316c-138 0 -134 103 -123 172l49 299c3 20 -13 35 -41 26l-3 3c35 17 105 39 153 39c57 0 77 -21 66 -89l-52 -320c-8 -47 1 -76 32 -76c61 0 102 115 143 264c19 69 45 198 11 215l3 3c136 10 204 8 177 -154z" />
    <glyph glyph-name="x" unicode="x" horiz-adv-x="598" 
d="M369 418l32 -84c5 89 30 198 139 198c48 0 113 -21 113 -94c0 -60 -43 -92 -86 -92c-44 0 -79 34 -75 78c35 2 58 23 58 55c0 25 -15 35 -36 35c-72 0 -107 -111 -101 -211l33 -85c59 -152 94 -206 149 -215l-3 -3c-116 -22 -267 -28 -332 159l-12 34
c-3 -87 -12 -200 -133 -200c-62 0 -125 34 -125 109c0 62 48 95 94 95c47 0 87 -35 83 -86c-39 -2 -64 -25 -64 -60c0 -28 17 -39 41 -39c79 0 99 119 90 221l-57 164c-13 38 -45 112 -100 87l-3 3c45 28 98 45 152 45c80 0 115 -41 143 -114z" />
    <glyph glyph-name="y" unicode="y" horiz-adv-x="596" 
d="M592 375l-58 -368c-22 -137 -125 -232 -315 -232c-83 0 -198 18 -198 109c0 56 45 97 102 97c41 0 86 -29 80 -83c-37 -4 -56 -30 -56 -56c0 -29 22 -58 77 -58c78 0 102 58 120 151l72 373l-4 1c-67 -256 -133 -316 -239 -316c-138 0 -134 103 -123 172l49 299
c3 20 -13 35 -41 26l-3 3c35 17 105 39 153 39c57 0 77 -21 66 -89l-52 -320c-8 -47 1 -76 32 -76c61 0 110 115 147 264c17 69 45 198 11 215l3 3c136 10 202 8 177 -154z" />
    <glyph glyph-name="z" unicode="z" horiz-adv-x="558" 
d="M440 253l2 3c59 -20 99 -74 99 -130c0 -59 -43 -133 -137 -133c-115 0 -239 110 -307 110c-18 0 -38 -8 -38 -30c0 -17 19 -32 44 -16c28 -39 -8 -75 -44 -75c-22 0 -49 13 -49 50c0 33 19 55 50 71c73 166 405 172 469 314c-118 -52 -373 -17 -373 -115
c0 -13 9 -23 21 -30l-2 -3c-59 20 -99 74 -99 130c0 59 43 133 137 133c115 0 220 -110 288 -110c18 0 38 8 38 30c0 17 -19 32 -44 16c-28 39 8 75 44 75c22 0 49 -13 49 -50c0 -34 -19 -56 -48 -71c-51 -153 -383 -157 -468 -313c124 51 389 16 389 114c0 13 -9 23 -21 30
z" />
    <glyph glyph-name="agrave" unicode="&#xe0;" 
d="M378 524c-83 0 -157 -234 -157 -398c0 -41 9 -79 35 -79c61 0 127 156 153 303l11 61c15 81 7 113 -42 113zM616 528l-53 -310c-15 -86 -24 -198 20 -215l-3 -3c-23 -5 -47 -7 -71 -7c-85 0 -160 36 -130 161l37 154l-4 1c-63 -249 -140 -316 -230 -316
c-105 0 -142 93 -142 185c0 159 143 354 326 354c99 0 178 -86 250 -4zM411 577l-4 -6l-207 151c0 16 14 30 32 30c29 0 95 -83 179 -175z" />
    <glyph glyph-name="aacute" unicode="&#xe1;" 
d="M378 524c-83 0 -157 -234 -157 -398c0 -41 9 -79 35 -79c61 0 127 156 153 303l11 61c15 81 7 113 -42 113zM616 528l-53 -310c-15 -86 -24 -198 20 -215l-3 -3c-23 -5 -47 -7 -71 -7c-85 0 -160 36 -130 161l37 154l-4 1c-63 -249 -140 -316 -230 -316
c-105 0 -142 93 -142 185c0 159 143 354 326 354c99 0 178 -86 250 -4zM354 571l-3 6c115 92 206 175 235 175c14 0 23 -10 23 -24z" />
    <glyph glyph-name="acircumflex" unicode="&#xe2;" 
d="M378 524c-83 0 -157 -234 -157 -398c0 -41 9 -79 35 -79c61 0 127 156 153 303l11 61c15 81 7 113 -42 113zM616 528l-53 -310c-15 -86 -24 -198 20 -215l-3 -3c-23 -5 -47 -7 -71 -7c-85 0 -160 36 -130 161l37 154l-4 1c-63 -249 -140 -316 -230 -316
c-105 0 -142 93 -142 185c0 159 143 354 326 354c99 0 178 -86 250 -4zM414 745l127 -169l-6 -5l-132 107l-166 -107l-4 5z" />
    <glyph glyph-name="atilde" unicode="&#xe3;" 
d="M378 524c-83 0 -157 -234 -157 -398c0 -41 9 -79 35 -79c61 0 127 156 153 303l11 61c15 81 7 113 -42 113zM616 528l-53 -310c-15 -86 -24 -198 20 -215l-3 -3c-23 -5 -47 -7 -71 -7c-85 0 -160 36 -130 161l37 154l-4 1c-63 -249 -140 -316 -230 -316
c-105 0 -142 93 -142 185c0 159 143 354 326 354c99 0 178 -86 250 -4zM209 589l-8 3c37 60 62 82 101 82c78 0 115 -87 191 -87c32 0 54 16 86 67l8 -3c-38 -62 -64 -74 -94 -74c-81 0 -118 87 -194 87c-29 0 -52 -13 -90 -75z" />
    <glyph glyph-name="adieresis" unicode="&#xe4;" 
d="M378 524c-83 0 -157 -234 -157 -398c0 -41 9 -79 35 -79c61 0 127 156 153 303l11 61c15 81 7 113 -42 113zM616 528l-53 -310c-15 -86 -24 -198 20 -215l-3 -3c-23 -5 -47 -7 -71 -7c-85 0 -160 36 -130 161l37 154l-4 1c-63 -249 -140 -316 -230 -316
c-105 0 -142 93 -142 185c0 159 143 354 326 354c99 0 178 -86 250 -4zM304 683c26 0 44 -21 44 -46c0 -34 -29 -61 -61 -61c-25 0 -44 20 -44 47c0 32 30 60 61 60zM502 683c26 0 44 -21 44 -46c0 -34 -29 -61 -61 -61c-25 0 -44 20 -44 47c0 32 30 60 61 60z" />
    <glyph glyph-name="amacron" unicode="&#x101;" 
d="M378 524c-83 0 -157 -234 -157 -398c0 -41 9 -79 35 -79c61 0 127 156 153 303l11 61c15 81 7 113 -42 113zM616 528l-53 -310c-15 -86 -24 -198 20 -215l-3 -3c-23 -5 -47 -7 -71 -7c-85 0 -160 36 -130 161l37 154l-4 1c-63 -249 -140 -316 -230 -316
c-105 0 -142 93 -142 185c0 159 143 354 326 354c99 0 178 -86 250 -4zM560 620l-2 -10h-318l2 10h318z" />
    <glyph glyph-name="abreve" unicode="&#x103;" 
d="M378 524c-83 0 -157 -234 -157 -398c0 -41 9 -79 35 -79c61 0 127 156 153 303l11 61c15 81 7 113 -42 113zM616 528l-53 -310c-15 -86 -24 -198 20 -215l-3 -3c-23 -5 -47 -7 -71 -7c-85 0 -160 36 -130 161l37 154l-4 1c-63 -249 -140 -316 -230 -316
c-105 0 -142 93 -142 185c0 159 143 354 326 354c99 0 178 -86 250 -4zM552 697l8 -2c-19 -64 -89 -128 -174 -128s-135 64 -134 128l8 2c4 -60 51 -100 131 -100s139 40 161 100z" />
    <glyph glyph-name="aring" unicode="&#xe5;" 
d="M378 524c-83 0 -157 -234 -157 -398c0 -41 9 -79 35 -79c61 0 127 156 153 303l11 61c15 81 7 113 -42 113zM616 528l-53 -310c-15 -86 -24 -198 20 -215l-3 -3c-23 -5 -47 -7 -71 -7c-85 0 -160 36 -130 161l37 154l-4 1c-63 -249 -140 -316 -230 -316
c-105 0 -142 93 -142 185c0 159 143 354 326 354c99 0 178 -86 250 -4zM416 757c51 0 88 -37 88 -84c0 -60 -57 -109 -119 -109c-51 0 -88 37 -88 85c0 59 57 108 119 108zM416 747c-57 0 -109 -44 -109 -98c0 -42 33 -75 78 -75c57 0 109 45 109 99c0 41 -33 74 -78 74z
" />
    <glyph glyph-name="aogonek" unicode="&#x105;" 
d="M565 -182c-50 3 -67 23 -67 49c0 44 51 101 75 132c-21 -4 -43 -6 -64 -6c-85 0 -160 36 -130 161l37 154l-4 1c-63 -249 -140 -316 -230 -316c-105 0 -142 93 -142 185c0 159 143 354 326 354c99 0 178 -86 250 -4l-53 -310c-15 -86 -24 -198 20 -215l-3 -3
c-23 -29 -73 -90 -73 -130c0 -22 16 -39 60 -42zM378 524c-83 0 -157 -234 -157 -398c0 -41 9 -79 35 -79c61 0 127 156 153 303l11 61c15 81 7 113 -42 113z" />
    <glyph glyph-name="a.swsh" 
d="M378 524c-83 0 -157 -234 -157 -398c0 -41 9 -79 35 -79c61 0 127 156 153 303l11 61c15 81 7 113 -42 113zM355 20l61 288l-4 1c-63 -249 -140 -316 -230 -316c-105 0 -142 93 -142 185c0 159 143 354 326 354c99 0 178 -86 250 -4c-65 -408 -103 -647 -103 -703
c0 -70 31 -106 71 -106c29 0 60 26 60 74c0 22 -15 49 -39 56c3 63 56 95 105 95c45 0 88 -30 88 -85c0 -105 -113 -148 -215 -148c-119 0 -269 116 -228 309z" />
    <glyph glyph-name="a.titl" 
d="M616 528l-53 -310c-15 -86 -24 -198 20 -215l-3 -3c-108 -21 -239 -5 -201 154l37 154l-4 1c-63 -249 -140 -316 -230 -316c-105 0 -142 93 -142 185c0 8 0 16 1 24c-82 -219 -182 -282 -303 -282c-133 0 -222 76 -222 188c0 119 102 191 203 191c96 0 200 -57 200 -158
c0 -67 -51 -123 -130 -123c-57 0 -106 46 -88 107c48 1 86 41 86 94c0 52 -46 72 -83 72c-71 0 -147 -75 -147 -180c0 -70 35 -181 185 -181c127 0 228 78 310 330c37 137 162 272 314 272c99 0 178 -86 250 -4zM378 524c-83 0 -157 -234 -157 -398c0 -41 9 -79 35 -79
c61 0 127 156 153 303l11 61c15 81 7 113 -42 113z" />
    <glyph glyph-name="a.hist" 
d="M378 524c-83 0 -157 -234 -157 -398c0 -41 9 -79 35 -79c61 0 127 156 153 303l11 61c15 81 7 113 -42 113zM616 528l-63 -375c-17 -104 -38 -255 111 -255c152 0 303 135 303 286c0 102 -68 133 -123 133c-50 0 -94 -35 -94 -90c0 -44 30 -75 72 -76
c7 -61 -50 -107 -107 -107c-71 0 -111 45 -111 102c0 109 136 179 240 179c90 0 162 -41 162 -141c0 -148 -163 -295 -334 -295c-203 0 -331 108 -293 265l37 154l-4 1c-63 -249 -140 -316 -230 -316c-105 0 -142 93 -142 185c0 159 143 354 326 354c99 0 178 -86 250 -4z
" />
    <glyph glyph-name="ae" unicode="&#xe6;" horiz-adv-x="906" 
d="M366 532c68 0 119 -53 166 -65c53 40 121 65 197 65c78 0 192 -19 192 -112c0 -72 -105 -163 -338 -107c-1 -4 -1 -7 -1 -11c-6 -106 32 -199 143 -199c46 0 107 16 154 71l6 -3c-63 -104 -169 -178 -285 -178c-121 0 -198 80 -198 214c0 34 6 68 16 100l-6 2
c-63 -249 -140 -316 -230 -316c-105 0 -142 93 -142 185c0 159 143 354 326 354zM378 524c-83 0 -157 -234 -157 -398c0 -41 9 -79 35 -79c61 0 127 156 153 303l11 61c15 81 7 113 -42 113zM720 524c-72 0 -125 -106 -137 -203c133 -9 195 70 195 138c0 39 -24 65 -58 65z
" />
    <glyph glyph-name="aeacute" unicode="&#x1fd;" horiz-adv-x="906" 
d="M366 532c68 0 119 -53 166 -65c53 40 121 65 197 65c78 0 192 -19 192 -112c0 -72 -105 -163 -338 -107c-1 -4 -1 -7 -1 -11c-6 -106 32 -199 143 -199c46 0 107 16 154 71l6 -3c-63 -104 -169 -178 -285 -178c-121 0 -198 80 -198 214c0 34 6 68 16 100l-6 2
c-63 -249 -140 -316 -230 -316c-105 0 -142 93 -142 185c0 159 143 354 326 354zM378 524c-83 0 -157 -234 -157 -398c0 -41 9 -79 35 -79c61 0 127 156 153 303l11 61c15 81 7 113 -42 113zM720 524c-72 0 -125 -106 -137 -203c133 -9 195 70 195 138c0 39 -24 65 -58 65z
M417 571l-3 6c115 92 206 175 235 175c14 0 23 -10 23 -24z" />
    <glyph glyph-name="b.swsh" horiz-adv-x="627" 
d="M468 803c-80 0 -121 -130 -132 -197l-80 -492c-3 -19 -18 -105 25 -105c88 0 186 281 186 435c0 38 -7 64 -27 64c-40 0 -101 -70 -139 -188l-6 3c54 170 123 217 203 217c95 0 148 -60 148 -168c0 -162 -102 -379 -311 -379c-150 0 -261 95 -239 231l31 188
c40 244 300 435 437 435c60 0 88 -37 88 -78c0 -48 -39 -100 -109 -100c-21 0 -39 11 -47 37c20 11 30 30 30 48c0 25 -20 49 -58 49z" />
    <glyph glyph-name="b.titl" horiz-adv-x="590" 
d="M372 785l2 -9c-45 -19 -66 -90 -73 -134l-86 -528c-3 -19 -19 -105 25 -105c87 0 185 272 186 427c0 42 -6 72 -27 72c-40 0 -99 -70 -137 -188l-8 3c54 170 123 217 203 217c95 0 148 -60 148 -168c0 -162 -102 -379 -311 -379c-150 0 -261 95 -239 231l53 330
c18 116 124 191 255 223c-189 -6 -318 -177 -495 -177c-84 0 -162 35 -162 129c0 57 40 111 111 111c52 0 116 -44 92 -117c-41 17 -82 -6 -82 -49c0 -35 27 -62 63 -62c142 0 293 172 482 173z" />
    <glyph glyph-name="b.001" horiz-adv-x="590" 
d="M372 785l2 -9c-45 -19 -66 -90 -73 -134l-86 -528c-3 -19 -19 -105 25 -105c87 0 185 272 186 427c0 42 -6 72 -27 72c-40 0 -99 -70 -137 -188l-8 3c54 170 123 217 203 217c95 0 148 -60 148 -168c0 -162 -102 -379 -311 -379c-150 0 -261 95 -239 231l53 330
c18 112 116 186 241 220c-234 -35 -428 68 -535 68c-54 0 -92 -22 -92 -70c0 -40 31 -55 57 -55c24 0 49 11 67 36c103 -46 47 -176 -63 -176c-66 0 -134 51 -134 127c0 80 69 147 162 147c99 0 261 -77 442 -77c38 0 77 3 119 11z" />
    <glyph glyph-name="cacute" unicode="&#x107;" horiz-adv-x="553" 
d="M40 205c0 174 146 327 336 327c71 0 192 -24 192 -124c0 -57 -46 -112 -114 -112c-45 0 -86 28 -79 88c41 11 61 44 61 75c0 34 -23 65 -68 65c-99 0 -140 -160 -140 -245c0 -120 64 -176 143 -176c59 0 114 24 155 71l6 -3c-71 -119 -186 -178 -287 -178
c-111 0 -205 71 -205 212zM328 571l-3 6c115 92 206 175 235 175c14 0 23 -10 23 -24z" />
    <glyph glyph-name="ccircumflex" unicode="&#x109;" horiz-adv-x="553" 
d="M40 205c0 174 146 327 336 327c71 0 192 -24 192 -124c0 -57 -46 -112 -114 -112c-45 0 -86 28 -79 88c41 11 61 44 61 75c0 34 -23 65 -68 65c-99 0 -140 -160 -140 -245c0 -120 64 -176 143 -176c59 0 114 24 155 71l6 -3c-71 -119 -186 -178 -287 -178
c-111 0 -205 71 -205 212zM388 745l127 -169l-6 -5l-132 107l-166 -107l-4 5z" />
    <glyph glyph-name="ccaron" unicode="&#x10d;" horiz-adv-x="553" 
d="M40 205c0 174 146 327 336 327c71 0 192 -24 192 -124c0 -57 -46 -112 -114 -112c-45 0 -86 28 -79 88c41 11 61 44 61 75c0 34 -23 65 -68 65c-99 0 -140 -160 -140 -245c0 -120 64 -176 143 -176c59 0 114 24 155 71l6 -3c-71 -119 -186 -178 -287 -178
c-111 0 -205 71 -205 212zM539 728l-181 -169l-127 169l6 5l132 -107l166 107z" />
    <glyph glyph-name="cdotaccent" unicode="&#x10b;" horiz-adv-x="553" 
d="M40 205c0 174 146 327 336 327c71 0 192 -24 192 -124c0 -57 -46 -112 -114 -112c-45 0 -86 28 -79 88c41 11 61 44 61 75c0 34 -23 65 -68 65c-99 0 -140 -160 -140 -245c0 -120 64 -176 143 -176c59 0 114 24 155 71l6 -3c-71 -119 -186 -178 -287 -178
c-111 0 -205 71 -205 212zM378 683c26 0 44 -21 44 -46c0 -34 -29 -61 -61 -61c-25 0 -44 20 -44 47c0 32 30 60 61 60z" />
    <glyph glyph-name="ccedilla" unicode="&#xe7;" horiz-adv-x="553" 
d="M147 -172l9 6c12 -14 32 -23 58 -23c52 0 78 28 78 57c0 28 -27 57 -82 60c13 24 24 47 31 65c-110 2 -201 72 -201 212c0 174 146 327 336 327c71 0 192 -24 192 -124c0 -57 -46 -112 -114 -112c-45 0 -86 28 -79 88c41 11 61 44 61 75c0 34 -23 65 -68 65
c-99 0 -140 -160 -140 -245c0 -120 64 -176 143 -176c59 0 114 24 155 71l6 -3c-70 -117 -182 -176 -282 -178c-6 -18 -16 -40 -26 -57c52 -6 78 -35 78 -66c0 -35 -31 -69 -89 -69c-29 0 -55 12 -66 27z" />
    <glyph glyph-name="c.swsh" horiz-adv-x="553" 
d="M375 524c-99 0 -164 -176 -164 -336c0 -134 46 -258 155 -258c48 0 105 25 165 84l5 -3c-83 -105 -188 -155 -281 -155c-159 0 -227 115 -227 250c0 192 138 426 348 426c71 0 192 -24 192 -124c0 -57 -46 -112 -114 -112c-45 0 -86 28 -79 88c41 11 61 44 61 75
c0 35 -20 65 -61 65z" />
    <glyph glyph-name="c.titl" horiz-adv-x="553" 
d="M40 205v18c-83 -236 -185 -303 -310 -303c-133 0 -222 76 -222 188c0 119 102 191 203 191c96 0 200 -57 200 -158c0 -67 -51 -123 -130 -123c-57 0 -106 46 -88 107c48 1 86 41 86 94c0 52 -46 72 -83 72c-71 0 -147 -75 -147 -180c0 -70 35 -181 185 -181
c128 0 230 80 312 339c31 146 163 263 330 263c71 0 192 -24 192 -124c0 -57 -46 -112 -114 -112c-45 0 -86 28 -79 88c41 11 61 44 61 75c0 34 -23 65 -68 65c-99 0 -140 -160 -140 -245c0 -120 64 -176 143 -176c59 0 114 24 155 71l6 -3c-71 -119 -186 -178 -287 -178
c-111 0 -205 71 -205 212z" />
    <glyph glyph-name="dcaron" unicode="&#x10f;" horiz-adv-x="650" 
d="M651 701l-78 -483c-14 -86 -24 -198 20 -215l-3 -3c-23 -5 -47 -7 -71 -7c-85 0 -160 36 -130 161l30 154l-4 1c-55 -246 -132 -316 -227 -316s-148 60 -148 168c0 162 113 371 322 371c28 0 46 -2 68 -9l-2 -3c-124 -6 -205 -263 -209 -423c-1 -42 9 -72 30 -72
c56 0 128 125 155 286l70 411c3 20 -13 35 -41 26l-3 3c35 17 105 39 153 39c57 0 79 -21 68 -89zM698 512l-4 4c70 60 56 140 -18 172c-7 56 45 102 87 102c40 0 68 -30 68 -76c0 -58 -57 -149 -133 -202z" />
    <glyph glyph-name="dcroat" unicode="&#x111;" horiz-adv-x="614" 
d="M717 613h-80l-64 -395c-14 -86 -24 -198 20 -215l-3 -3c-108 -21 -239 -5 -201 154l30 154l-4 1c-55 -246 -132 -316 -227 -316s-148 60 -148 168c0 162 113 371 322 371c28 0 46 -2 68 -9l-2 -3c-124 -6 -205 -263 -209 -423c-1 -42 9 -72 30 -72c56 0 128 125 155 286
l51 302h-157l2 10h157l17 99c3 20 -13 35 -41 26l-3 3c35 17 105 39 153 39c57 0 79 -21 68 -89l-13 -78h81z" />
    <glyph glyph-name="eth" unicode="&#xf0;" horiz-adv-x="612" 
d="M368 531c33 0 63 -12 86 -30c6 67 3 118 -7 157l-115 -62l-3 9l115 62c-18 61 -56 92 -104 110l3 8c63 -17 116 -47 158 -87l128 70l2 -9l-123 -67c75 -76 113 -184 113 -300c0 -188 -112 -400 -338 -400c-144 0 -243 94 -243 227c0 165 151 312 328 312zM284 0
c111 0 143 312 143 419c0 59 -13 104 -60 104c-111 0 -144 -315 -144 -419c0 -59 14 -104 61 -104z" />
    <glyph glyph-name="d.swsh" horiz-adv-x="614" 
d="M624 534l-51 -316c-14 -86 -24 -198 20 -215l-3 -3c-23 -5 -47 -7 -71 -7c-85 0 -160 36 -130 161l30 154l-4 1c-55 -246 -132 -316 -227 -316s-148 60 -148 168c0 162 113 371 322 371c28 0 46 -2 68 -9l-2 -3c-124 -6 -205 -263 -209 -423c-1 -42 9 -72 30 -72
c56 0 123 126 155 286c56 280 60 356 60 405c0 8 -1 17 -1 24c-38 -12 -75 -21 -112 -21c-53 0 -105 18 -105 49c0 34 66 65 139 65c56 0 113 -19 157 -55c102 40 221 88 375 88c247 0 500 -128 681 -128c43 0 72 11 99 43l5 -3c-74 -146 -197 -193 -294 -193
c-219 0 -371 231 -659 231c-75 0 -139 -21 -200 -44c57 -50 92 -130 75 -238zM350 727c35 0 72 8 112 21c-7 50 -32 76 -84 76c-45 0 -122 -20 -122 -55c0 -27 48 -42 94 -42z" />
    <glyph glyph-name="d.titl" horiz-adv-x="614" 
d="M711 785l2 -9c-45 -19 -66 -90 -73 -134l-67 -424c-14 -86 -24 -198 20 -215l-3 -3c-23 -5 -47 -7 -71 -7c-85 0 -160 36 -130 161l30 154l-4 1c-55 -246 -132 -316 -227 -316s-148 60 -148 168c0 162 113 371 322 371c28 0 46 -2 68 -9l-2 -3
c-124 -6 -205 -263 -209 -423c-1 -42 9 -72 30 -72c56 0 127 125 155 286l42 243c20 116 125 191 256 223c-189 -6 -318 -177 -495 -177c-84 0 -162 35 -162 129c0 57 40 111 111 111c52 0 116 -44 92 -117c-41 17 -82 -6 -82 -49c0 -35 27 -62 63 -62
c142 0 293 172 482 173z" />
    <glyph glyph-name="d.hist" horiz-adv-x="614" 
d="M651 701l-88 -548c-17 -104 -38 -255 111 -255c152 0 303 135 303 286c0 102 -68 133 -123 133c-50 0 -94 -35 -94 -90c0 -44 30 -75 72 -76c7 -61 -50 -107 -107 -107c-71 0 -111 45 -111 102c0 109 136 179 240 179c90 0 162 -41 162 -141c0 -148 -163 -295 -334 -295
c-203 0 -324 106 -293 265l30 154l-4 1c-55 -246 -132 -316 -227 -316s-148 60 -148 168c0 162 113 371 322 371c28 0 46 -2 68 -9l-2 -3c-124 -6 -205 -263 -209 -423c-1 -42 9 -72 30 -72c56 0 128 125 155 286l70 411c3 20 -13 35 -41 26l-3 3c35 17 105 39 153 39
c57 0 79 -21 68 -89z" />
    <glyph glyph-name="d.end" horiz-adv-x="614" 
d="M651 701c-71 -407 -131 -820 -131 -876c0 -70 31 -106 71 -106c29 0 60 26 60 74c0 22 -15 49 -39 56c3 63 56 95 105 95c45 0 88 -30 88 -85c0 -105 -113 -148 -215 -148c-119 0 -266 115 -228 309l57 288l-4 1c-55 -246 -132 -316 -227 -316s-148 60 -148 168
c0 162 113 371 322 371c28 0 46 -2 68 -9l-2 -3c-124 -6 -205 -263 -209 -423c-1 -42 9 -72 30 -72c56 0 128 125 155 286l70 411c3 20 -13 35 -41 26l-3 3c35 17 105 39 153 39c57 0 79 -26 68 -89z" />
    <glyph glyph-name="d.001" horiz-adv-x="614" 
d="M710 785l2 -9c-45 -19 -66 -90 -73 -134l-66 -424c-13 -86 -24 -198 20 -215l-3 -3c-23 -5 -47 -7 -71 -7c-85 0 -160 36 -130 161l30 154l-4 1c-55 -246 -132 -316 -227 -316s-148 60 -148 168c0 162 113 371 322 371c28 0 46 -2 68 -9l-2 -3
c-124 -6 -205 -263 -209 -423c-1 -42 9 -72 30 -72c56 0 127 125 155 286l42 243c20 112 117 186 241 220c-234 -35 -429 68 -535 68c-54 0 -92 -22 -92 -70c0 -40 31 -55 57 -55c24 0 49 11 67 36c103 -46 47 -176 -63 -176c-66 0 -134 51 -134 127c0 80 69 147 162 147
c99 0 261 -77 442 -77c38 0 77 3 119 11z" />
    <glyph glyph-name="egrave" unicode="&#xe8;" horiz-adv-x="553" 
d="M237 318c135 -7 188 70 188 141c0 39 -24 65 -58 65c-77 0 -132 -121 -138 -222c-6 -106 32 -199 143 -199c46 0 107 16 154 71l6 -3c-63 -104 -169 -178 -285 -178c-121 0 -207 80 -207 214c0 171 146 325 336 325c78 0 192 -19 192 -112c0 -74 -86 -171 -332 -106z
M385 577l-4 -6l-207 151c0 16 14 30 32 30c29 0 95 -83 179 -175z" />
    <glyph glyph-name="eacute" unicode="&#xe9;" horiz-adv-x="553" 
d="M237 318c135 -7 188 70 188 141c0 39 -24 65 -58 65c-77 0 -132 -121 -138 -222c-6 -106 32 -199 143 -199c46 0 107 16 154 71l6 -3c-63 -104 -169 -178 -285 -178c-121 0 -207 80 -207 214c0 171 146 325 336 325c78 0 192 -19 192 -112c0 -74 -86 -171 -332 -106z
M328 571l-3 6c115 92 206 175 235 175c14 0 23 -10 23 -24z" />
    <glyph glyph-name="ecircumflex" unicode="&#xea;" horiz-adv-x="553" 
d="M237 318c135 -7 188 70 188 141c0 39 -24 65 -58 65c-77 0 -132 -121 -138 -222c-6 -106 32 -199 143 -199c46 0 107 16 154 71l6 -3c-63 -104 -169 -178 -285 -178c-121 0 -207 80 -207 214c0 171 146 325 336 325c78 0 192 -19 192 -112c0 -74 -86 -171 -332 -106z
M388 745l127 -169l-6 -5l-132 107l-166 -107l-4 5z" />
    <glyph glyph-name="ecaron" unicode="&#x11b;" horiz-adv-x="553" 
d="M237 318c135 -7 188 70 188 141c0 39 -24 65 -58 65c-77 0 -132 -121 -138 -222c-6 -106 32 -199 143 -199c46 0 107 16 154 71l6 -3c-63 -104 -169 -178 -285 -178c-121 0 -207 80 -207 214c0 171 146 325 336 325c78 0 192 -19 192 -112c0 -74 -86 -171 -332 -106z
M539 728l-181 -169l-127 169l6 5l132 -107l166 107z" />
    <glyph glyph-name="edieresis" unicode="&#xeb;" horiz-adv-x="553" 
d="M237 318c135 -7 188 70 188 141c0 39 -24 65 -58 65c-77 0 -132 -121 -138 -222c-6 -106 32 -199 143 -199c46 0 107 16 154 71l6 -3c-63 -104 -169 -178 -285 -178c-121 0 -207 80 -207 214c0 171 146 325 336 325c78 0 192 -19 192 -112c0 -74 -86 -171 -332 -106z
M476 683c26 0 44 -21 44 -46c0 -34 -29 -61 -61 -61c-25 0 -44 20 -44 47c0 32 30 60 61 60zM278 683c26 0 44 -21 44 -46c0 -34 -29 -61 -61 -61c-25 0 -44 20 -44 47c0 32 30 60 61 60z" />
    <glyph glyph-name="emacron" unicode="&#x113;" horiz-adv-x="553" 
d="M237 318c135 -7 188 70 188 141c0 39 -24 65 -58 65c-77 0 -132 -121 -138 -222c-6 -106 32 -199 143 -199c46 0 107 16 154 71l6 -3c-63 -104 -169 -178 -285 -178c-121 0 -207 80 -207 214c0 171 146 325 336 325c78 0 192 -19 192 -112c0 -74 -86 -171 -332 -106z
M534 620l-2 -10h-318l2 10h318z" />
    <glyph glyph-name="ebreve" unicode="&#x115;" horiz-adv-x="553" 
d="M237 318c135 -7 188 70 188 141c0 39 -24 65 -58 65c-77 0 -132 -121 -138 -222c-6 -106 32 -199 143 -199c46 0 107 16 154 71l6 -3c-63 -104 -169 -178 -285 -178c-121 0 -207 80 -207 214c0 171 146 325 336 325c78 0 192 -19 192 -112c0 -74 -86 -171 -332 -106z
M526 697l8 -2c-19 -64 -89 -128 -174 -128s-135 64 -134 128l8 2c4 -60 51 -100 131 -100s139 40 161 100z" />
    <glyph glyph-name="edotaccent" unicode="&#x117;" horiz-adv-x="553" 
d="M237 318c135 -7 188 70 188 141c0 39 -24 65 -58 65c-77 0 -132 -121 -138 -222c-6 -106 32 -199 143 -199c46 0 107 16 154 71l6 -3c-63 -104 -169 -178 -285 -178c-121 0 -207 80 -207 214c0 171 146 325 336 325c78 0 192 -19 192 -112c0 -74 -86 -171 -332 -106z
M378 683c26 0 44 -21 44 -46c0 -34 -29 -61 -61 -61c-25 0 -44 20 -44 47c0 32 30 60 61 60z" />
    <glyph glyph-name="eogonek" unicode="&#x119;" horiz-adv-x="553" 
d="M324 -172c-50 3 -67 23 -67 49c0 42 48 97 73 128c-27 -8 -55 -12 -83 -12c-121 0 -207 80 -207 214c0 171 146 325 336 325c78 0 192 -19 192 -112c0 -74 -86 -171 -332 -106l1 4c135 -7 188 70 188 141c0 39 -24 65 -58 65c-77 0 -132 -121 -138 -222
c-6 -106 32 -199 143 -199c46 0 107 16 154 71l6 -3c-46 -77 -116 -137 -195 -163c-24 -30 -71 -89 -71 -128c0 -22 16 -39 60 -42z" />
    <glyph glyph-name="e.swsh" horiz-adv-x="553" 
d="M568 420c0 -73 -107 -164 -343 -106c-9 -41 -13 -85 -13 -127c0 -134 44 -257 154 -257c48 0 105 25 165 84l5 -3c-83 -105 -188 -155 -281 -155c-158 0 -227 115 -227 251c0 192 138 425 356 425c67 0 184 -19 184 -112zM370 524c-68 0 -120 -91 -144 -203
c136 -11 199 69 199 138c0 32 -15 65 -55 65z" />
    <glyph glyph-name="e.titl" horiz-adv-x="553" 
d="M568 420c0 -72 -105 -163 -338 -107c-1 -4 -1 -7 -1 -11c-6 -106 32 -199 143 -199c46 0 107 16 154 71l6 -3c-63 -104 -169 -178 -285 -178c-121 0 -207 80 -207 214v16c-83 -236 -185 -303 -310 -303c-133 0 -222 76 -222 188c0 119 102 191 203 191
c96 0 200 -57 200 -158c0 -67 -51 -123 -130 -123c-57 0 -106 46 -88 107c48 1 86 41 86 94c0 52 -46 72 -83 72c-71 0 -147 -75 -147 -180c0 -70 35 -181 185 -181c128 0 230 80 312 338c29 145 163 264 330 264c78 0 192 -19 192 -112zM367 524c-72 0 -125 -106 -137 -203
c133 -9 195 70 195 138c0 39 -24 65 -58 65z" />
    <glyph glyph-name="f.alt" horiz-adv-x="309" 
d="M55 63l72 452h-53l2 10h52c23 140 47 272 200 272c89 0 144 -45 144 -109c0 -62 -43 -111 -120 -111c-57 0 -110 53 -83 112c34 -7 63 15 63 49c0 25 -9 47 -39 47c-44 0 -91 -47 -91 -101c0 -85 99 -117 90 -159h84l-2 -10h-68l-76 -482c-23 -144 -44 -266 -194 -266
c-86 0 -130 39 -130 95c0 55 39 99 107 99c50 0 97 -47 73 -99c-30 6 -56 -13 -56 -44c0 -22 11 -39 39 -39c43 0 89 46 89 100c0 89 -115 111 -103 184z" />
    <glyph glyph-name="gcircumflex" unicode="&#x11d;" 
d="M378 524c-83 0 -157 -234 -157 -398c0 -41 9 -79 35 -79c61 0 127 156 153 303l11 61c15 81 7 113 -42 113zM616 528l-82 -521c-22 -137 -125 -232 -315 -232c-83 0 -198 18 -198 109c0 56 45 97 102 97c41 0 86 -29 80 -83c-37 -4 -56 -30 -56 -56c0 -29 22 -58 77 -58
c78 0 102 58 120 151l72 373l-4 1c-63 -249 -140 -316 -230 -316c-105 0 -142 93 -142 185c0 159 143 354 326 354c99 0 178 -86 250 -4zM406 745l127 -169l-6 -5l-132 107l-166 -107l-4 5z" />
    <glyph glyph-name="gbreve" unicode="&#x11f;" 
d="M378 524c-83 0 -157 -234 -157 -398c0 -41 9 -79 35 -79c61 0 127 156 153 303l11 61c15 81 7 113 -42 113zM616 528l-82 -521c-22 -137 -125 -232 -315 -232c-83 0 -198 18 -198 109c0 56 45 97 102 97c41 0 86 -29 80 -83c-37 -4 -56 -30 -56 -56c0 -29 22 -58 77 -58
c78 0 102 58 120 151l72 373l-4 1c-63 -249 -140 -316 -230 -316c-105 0 -142 93 -142 185c0 159 143 354 326 354c99 0 178 -86 250 -4zM544 697l8 -2c-19 -64 -89 -128 -174 -128s-135 64 -134 128l8 2c4 -60 51 -100 131 -100s139 40 161 100z" />
    <glyph glyph-name="gdotaccent" unicode="&#x121;" 
d="M378 524c-83 0 -157 -234 -157 -398c0 -41 9 -79 35 -79c61 0 127 156 153 303l11 61c15 81 7 113 -42 113zM616 528l-82 -521c-22 -137 -125 -232 -315 -232c-83 0 -198 18 -198 109c0 56 45 97 102 97c41 0 86 -29 80 -83c-37 -4 -56 -30 -56 -56c0 -29 22 -58 77 -58
c78 0 102 58 120 151l72 373l-4 1c-63 -249 -140 -316 -230 -316c-105 0 -142 93 -142 185c0 159 143 354 326 354c99 0 178 -86 250 -4zM396 683c26 0 44 -21 44 -46c0 -34 -29 -61 -61 -61c-25 0 -44 20 -44 47c0 32 30 60 61 60z" />
    <glyph glyph-name="gcommaaccent" unicode="&#x123;" 
d="M378 524c-83 0 -157 -234 -157 -398c0 -41 9 -79 35 -79c61 0 127 156 153 303l11 61c15 81 7 113 -42 113zM616 528l-82 -521c-22 -137 -125 -232 -315 -232c-83 0 -198 18 -198 109c0 56 45 97 102 97c41 0 86 -29 80 -83c-37 -4 -56 -30 -56 -56c0 -29 22 -58 77 -58
c78 0 102 58 120 151l72 373l-4 1c-63 -249 -140 -316 -230 -316c-105 0 -142 93 -142 185c0 159 143 354 326 354c99 0 178 -86 250 -4zM439 747l5 -6c-39 -31 -63 -67 -63 -100c0 -28 17 -47 56 -36c3 -29 -20 -44 -44 -44c-26 0 -51 17 -51 53c0 53 51 99 97 133z" />
    <glyph glyph-name="g.calt" 
d="M378 524c-83 0 -157 -234 -157 -398c0 -41 9 -79 35 -79c61 0 127 156 153 303l11 61c15 81 7 113 -42 113zM348 -40l68 348l-4 1c-63 -249 -140 -316 -230 -316c-105 0 -142 93 -142 185c0 159 143 354 326 354c99 0 178 -86 250 -4l-78 -496
c-28 -176 -262 -349 -381 -349c-200 0 -263 177 -406 177c-61 0 -84 -29 -84 -57c0 -25 17 -47 53 -47c24 0 54 24 43 53c137 14 140 -192 -8 -192c-77 0 -118 55 -118 120c0 98 90 220 221 220c231 0 321 -238 378 -238c75 0 101 187 112 241z" />
    <glyph glyph-name="g.swsh" 
d="M378 524c-83 0 -157 -234 -157 -398c0 -41 9 -79 35 -79c61 0 127 156 153 303l11 61c15 81 7 113 -42 113zM616 528l-76 -496c-27 -176 -231 -349 -428 -349c-230 0 -473 177 -616 177c-61 0 -84 -29 -84 -57c0 -25 17 -47 53 -47c24 0 54 24 43 53
c137 14 140 -192 -8 -192c-77 0 -118 55 -118 120c0 98 92 220 293 220c258 0 460 -238 563 -238c75 0 102 187 112 241l66 348l-4 1c-63 -249 -140 -316 -230 -316c-105 0 -142 93 -142 185c0 159 143 354 326 354c99 0 178 -86 250 -4z" />
    <glyph glyph-name="g.titl" horiz-adv-x="616" 
d="M378 524c-83 0 -157 -234 -157 -398c0 -41 9 -79 35 -79c61 0 127 156 153 303l11 61c15 81 7 113 -42 113zM348 -40l68 348l-4 1c-63 -249 -140 -316 -230 -316c-105 0 -142 93 -142 185c0 159 143 354 326 354c99 0 178 -86 250 -4l-78 -496
c-28 -176 -231 -349 -428 -349c-338 0 -674 177 -817 177c-61 0 -84 -29 -84 -57c0 -25 17 -47 53 -47c24 0 54 24 43 53c137 14 140 -192 -8 -192c-77 0 -118 55 -118 120c0 98 92 220 293 220c347 0 661 -238 764 -238c75 0 101 187 112 241z" />
    <glyph glyph-name="hcircumflex" unicode="&#x125;" horiz-adv-x="596" 
d="M42 149l94 573c3 20 -13 35 -41 26l-3 3c35 17 105 39 153 39c57 0 79 -21 66 -89l-93 -484l4 -1c67 256 167 316 257 316c125 0 117 -103 105 -172l-24 -142c-15 -86 -24 -198 20 -215l-3 -3c-108 -21 -231 -8 -205 154l40 248c7 47 7 76 -17 76
c-56 0 -125 -115 -162 -264c-17 -69 -45 -194 -11 -211l-3 -3c-136 -20 -206 -12 -177 149zM266 995l127 -169l-6 -5l-132 107l-166 -107l-4 5z" />
    <glyph glyph-name="hbar" unicode="&#x127;" horiz-adv-x="596" 
d="M42 149l94 573c3 20 -13 35 -41 26l-3 3c35 17 105 39 153 39c57 0 80 -21 66 -89l-13 -65h207l-2 -10h-207l-78 -409l4 -1c67 256 167 316 257 316c125 0 117 -103 105 -172l-24 -142c-15 -86 -24 -198 20 -215l-3 -3c-108 -21 -231 -8 -205 154l40 248
c7 47 7 76 -17 76c-56 0 -125 -115 -162 -264c-17 -69 -45 -194 -11 -211l-3 -3c-136 -20 -206 -12 -177 149z" />
    <glyph glyph-name="h.swsh" horiz-adv-x="596" 
d="M349 7l63 395c7 47 7 76 -17 76c-56 0 -125 -115 -162 -264c-17 -69 -45 -194 -11 -211l-3 -3c-136 -20 -206 -12 -177 149l94 573c3 20 -13 35 -41 26l-3 3c35 17 105 39 153 39c57 0 79 -21 66 -89l-93 -484l4 -1c67 256 167 316 257 316c125 0 117 -103 105 -172
c-70 -408 -75 -479 -75 -535c0 -8 0 -17 1 -24c37 12 74 21 112 21c53 0 105 -18 105 -49c0 -34 -66 -65 -139 -65c-56 0 -113 19 -158 55c-101 -40 -221 -88 -374 -88c-247 0 -500 128 -681 128c-43 0 -72 -11 -99 -43l-5 3c74 146 197 193 294 193
c219 0 371 -231 659 -231c74 0 139 21 199 44c-57 50 -91 130 -74 238zM623 -186c-36 0 -73 -8 -112 -21c7 -50 31 -76 84 -76c45 0 122 20 122 55c0 27 -48 42 -94 42z" />
    <glyph glyph-name="h.titl" horiz-adv-x="596" 
d="M42 149l66 405c19 116 124 191 255 223c-189 -6 -318 -177 -495 -177c-84 0 -162 35 -162 129c0 57 40 111 111 111c52 0 116 -44 92 -117c-41 17 -82 -6 -82 -49c0 -35 27 -62 63 -62c142 0 293 172 482 173l2 -9c-45 -19 -64 -90 -73 -134l-83 -425l4 -1
c67 256 167 316 257 316c125 0 117 -103 105 -172l-24 -142c-15 -86 -24 -198 20 -215l-3 -3c-108 -21 -231 -8 -205 154l40 248c7 47 7 76 -17 76c-56 0 -125 -115 -162 -264c-17 -69 -45 -194 -11 -211l-3 -3c-136 -20 -203 -12 -177 149z" />
    <glyph glyph-name="h.hist" horiz-adv-x="596" 
d="M375 174l37 228c8 47 7 76 -17 76c-56 0 -125 -115 -162 -264c-17 -69 -45 -194 -11 -211l-3 -3c-136 -20 -206 -12 -177 149l94 573c3 20 -13 35 -41 26l-3 3c35 17 105 39 153 39c57 0 80 -21 66 -89l-93 -484l4 -1c67 256 167 316 257 316c125 0 116 -103 105 -172
l-34 -207c-17 -104 -41 -255 108 -255c152 0 303 135 303 286c0 102 -68 133 -123 133c-50 0 -94 -35 -94 -90c0 -44 30 -75 72 -76c7 -61 -50 -107 -107 -107c-71 0 -111 45 -111 102c0 109 136 179 240 179c90 0 162 -41 162 -141c0 -148 -163 -295 -334 -295
c-203 0 -321 101 -291 285z" />
    <glyph glyph-name="h.end" horiz-adv-x="596" 
d="M584 360c-65 -408 -75 -479 -75 -535c0 -70 31 -106 71 -106c29 0 60 26 60 74c0 22 -15 49 -39 56c3 63 56 95 105 95c45 0 88 -30 88 -85c0 -105 -113 -148 -215 -148c-119 0 -261 101 -230 296l63 395c7 47 7 76 -17 76c-56 0 -125 -115 -162 -264
c-17 -69 -45 -194 -11 -211l-3 -3c-136 -20 -206 -12 -177 149l94 573c3 20 -13 35 -41 26l-3 3c35 17 105 39 153 39c57 0 80 -21 66 -89l-93 -484l4 -1c67 256 167 316 257 316c125 0 117 -103 105 -172z" />
    <glyph glyph-name="h.001" horiz-adv-x="596" 
d="M42 149l66 405c18 112 116 186 241 220c-234 -35 -428 68 -535 68c-54 0 -92 -22 -92 -70c0 -40 31 -55 57 -55c24 0 49 11 67 36c103 -46 47 -176 -63 -176c-66 0 -134 51 -134 127c0 80 69 147 162 147c99 0 261 -77 442 -77c38 0 77 3 119 11l2 -9
c-45 -19 -64 -90 -73 -134l-83 -425l4 -1c67 256 167 316 257 316c125 0 117 -103 105 -172l-24 -142c-15 -86 -24 -198 20 -215l-3 -3c-108 -21 -231 -8 -205 154l40 248c7 47 7 76 -17 76c-56 0 -125 -115 -162 -264c-17 -69 -45 -194 -11 -211l-3 -3
c-136 -20 -203 -12 -177 149z" />
    <glyph glyph-name="igrave" unicode="&#xec;" horiz-adv-x="280" 
d="M49 149l52 315c3 20 -13 35 -41 26l-3 3c35 17 105 39 153 39c57 0 77 -21 66 -89l-38 -230c-12 -70 -35 -193 2 -210l-3 -3c-25 -5 -50 -8 -73 -8c-76 0 -136 34 -115 157zM246 577l-4 -6l-207 151c0 16 14 30 32 30c29 0 95 -83 179 -175z" />
    <glyph glyph-name="iacute" unicode="&#xed;" horiz-adv-x="280" 
d="M49 149l52 315c3 20 -13 35 -41 26l-3 3c35 17 105 39 153 39c57 0 77 -21 66 -89l-38 -230c-12 -70 -35 -193 2 -210l-3 -3c-25 -5 -50 -8 -73 -8c-76 0 -136 34 -115 157zM87 571l-3 6c115 92 206 175 235 175c14 0 23 -10 23 -24z" />
    <glyph glyph-name="icircumflex" unicode="&#xee;" horiz-adv-x="280" 
d="M49 149l52 315c3 20 -13 35 -41 26l-3 3c35 17 105 39 153 39c57 0 77 -21 66 -89l-38 -230c-12 -70 -35 -193 2 -210l-3 -3c-25 -5 -50 -8 -73 -8c-76 0 -136 34 -115 157zM225 745l127 -169l-6 -5l-132 107l-166 -107l-4 5z" />
    <glyph glyph-name="itilde" unicode="&#x129;" horiz-adv-x="280" 
d="M49 149l52 315c3 20 -13 35 -41 26l-3 3c35 17 105 39 153 39c57 0 77 -21 66 -89l-38 -230c-12 -70 -35 -193 2 -210l-3 -3c-25 -5 -50 -8 -73 -8c-76 0 -136 34 -115 157zM16 589l-8 3c37 60 62 82 101 82c78 0 115 -87 191 -87c32 0 54 16 86 67l8 -3
c-38 -62 -64 -74 -94 -74c-81 0 -118 87 -194 87c-29 0 -52 -13 -90 -75z" />
    <glyph glyph-name="idieresis" unicode="&#xef;" horiz-adv-x="280" 
d="M49 149l52 315c3 20 -13 35 -41 26l-3 3c35 17 105 39 153 39c57 0 77 -21 66 -89l-38 -230c-12 -70 -35 -193 2 -210l-3 -3c-25 -5 -50 -8 -73 -8c-76 0 -136 34 -115 157zM117 683c26 0 44 -21 44 -46c0 -34 -29 -61 -61 -61c-25 0 -44 20 -44 47c0 32 30 60 61 60z
M315 683c26 0 44 -21 44 -46c0 -34 -29 -61 -61 -61c-25 0 -44 20 -44 47c0 32 30 60 61 60z" />
    <glyph glyph-name="imacron" unicode="&#x12b;" horiz-adv-x="280" 
d="M49 149l52 315c3 20 -13 35 -41 26l-3 3c35 17 105 39 153 39c57 0 77 -21 66 -89l-38 -230c-12 -70 -35 -193 2 -210l-3 -3c-25 -5 -50 -8 -73 -8c-76 0 -136 34 -115 157zM359 620l-2 -10h-318l2 10h318z" />
    <glyph glyph-name="ibreve" unicode="&#x12d;" horiz-adv-x="280" 
d="M49 149l52 315c3 20 -13 35 -41 26l-3 3c35 17 105 39 153 39c57 0 77 -21 66 -89l-38 -230c-12 -70 -35 -193 2 -210l-3 -3c-25 -5 -50 -8 -73 -8c-76 0 -136 34 -115 157zM360 697l8 -2c-19 -64 -89 -128 -174 -128s-135 64 -134 128l8 2c4 -60 51 -100 131 -100
s139 40 161 100z" />
    <glyph glyph-name="iogonek" unicode="&#x12f;" horiz-adv-x="280" 
d="M49 149l52 315c3 20 -13 35 -41 26l-3 3c35 17 105 39 153 39c57 0 77 -21 66 -89l-38 -230c-12 -70 -35 -193 2 -210l-3 -3c-25 -5 -50 -8 -73 -8c-76 0 -136 34 -115 157zM147 571l-2 3c21 33 31 109 1 147c24 44 70 72 111 72c38 0 83 -23 83 -79
c0 -78 -90 -147 -193 -143zM218 -187c-50 3 -67 23 -67 49c0 45 55 105 78 135l4 -2c-23 -29 -73 -90 -73 -130c0 -22 16 -39 60 -42z" />
    <glyph glyph-name="dotlessi" unicode="&#x131;" horiz-adv-x="280" 
d="M49 149l52 315c3 20 -13 35 -41 26l-3 3c35 17 105 39 153 39c57 0 77 -21 66 -89l-38 -230c-12 -70 -35 -193 2 -210l-3 -3c-25 -5 -50 -8 -73 -8c-76 0 -136 34 -115 157z" />
    <glyph glyph-name="i.titl" horiz-adv-x="280" 
d="M108 504h-4c-95 -469 -221 -584 -385 -584c-133 0 -222 76 -222 188c0 119 102 191 203 191c96 0 200 -57 200 -158c0 -67 -51 -123 -130 -123c-57 0 -106 46 -88 107c48 1 86 41 86 94c0 52 -46 72 -83 72c-71 0 -147 -75 -147 -180c0 -70 35 -181 185 -181
c162 0 283 130 374 584c33 12 73 18 113 18c57 0 77 -21 66 -89l-38 -230c-12 -70 -36 -198 -2 -215l-3 -3c-72 -11 -211 -7 -184 154zM147 571l-2 3c21 33 31 109 1 147c24 44 70 72 111 72c38 0 83 -23 83 -79c0 -78 -90 -147 -193 -143z" />
    <glyph glyph-name="i.hist" horiz-adv-x="280" 
d="M276 443l-48 -290c-17 -104 -41 -255 108 -255c152 0 303 135 303 286c0 102 -68 133 -123 133c-50 0 -94 -35 -94 -90c0 -44 30 -75 72 -76c7 -61 -50 -107 -107 -107c-71 0 -111 45 -111 102c0 109 136 179 240 179c90 0 162 -41 162 -141c0 -148 -163 -295 -334 -295
c-203 0 -321 101 -291 285l48 290c3 20 -13 35 -41 26l-3 3c35 17 105 39 153 39c57 0 77 -21 66 -89zM147 571l-2 3c21 33 31 109 1 147c24 44 70 72 111 72c38 0 83 -23 83 -79c0 -78 -90 -147 -193 -143z" />
    </font>
</defs>
</svg>
